<?xml version="1.0" standalone="no"?>
<!DOCTYPE svg PUBLIC "-//W3C//DTD SVG 1.1//EN" "http://www.w3.org/Graphics/SVG/1.1/DTD/svg11.dtd" >
<svg xmlns="http://www.w3.org/2000/svg" xmlns:xlink="http://www.w3.org/1999/xlink" version="1.1">
<metadata></metadata>
<defs>
<font id="aenor_fontana_nditalic" horiz-adv-x="807" >
<font-face units-per-em="2048" ascent="1585" descent="-463" />
<missing-glyph horiz-adv-x="358" />
<glyph horiz-adv-x="0" />
<glyph unicode="&#xd;" horiz-adv-x="1024" />
<glyph unicode=" "  horiz-adv-x="358" />
<glyph unicode="&#x09;" horiz-adv-x="358" />
<glyph unicode="&#xa0;" horiz-adv-x="358" />
<glyph unicode="!" horiz-adv-x="465" d="M66 0l34 217h127l-22 -217h-139zM125 381l113 1053h149l-147 -1053h-115z" />
<glyph unicode="&#x22;" horiz-adv-x="623" d="M88 944l59 490h136l-72 -490h-123zM342 944l59 490h134l-70 -490h-123z" />
<glyph unicode="#" d="M29 274l12 101h125l41 325h-125l12 101h125l33 256h131l-33 -256h168l33 256h131l-33 -256h129l-10 -101h-129l-41 -325h129l-12 -101h-127l-33 -274h-129l33 274h-172l-33 -274h-129l33 274h-129zM293 369h180l41 336h-180z" />
<glyph unicode="$" d="M51 76l53 92q18 -20 41.5 -35.5t49.5 -26.5t53 -16.5t53 -5.5q43 0 81.5 14.5t67 40.5t45.5 62.5t17 81.5q0 53 -26.5 89.5t-66 66t-85.5 57t-85.5 62.5t-66 82t-26.5 116q0 62 18.5 114.5t53 93.5t82 69t106.5 42l41 359h135l-53 -355q48 -2 87.5 -12t78.5 -23l-15 -106 q-40 14 -82.5 27.5t-95.5 13.5q-45 0 -84.5 -12.5t-69 -37t-46.5 -60t-17 -81.5q0 -52 26.5 -87.5t66 -64.5t85.5 -56t85.5 -61.5t66 -81.5t26.5 -115q0 -62 -18 -116t-52 -97t-82.5 -73.5t-109.5 -45.5l-45 -371h-139l59 358q-26 2 -56.5 9t-60 19t-55 30t-41.5 41z" />
<glyph unicode="%" horiz-adv-x="1008" d="M53.5 654q-0.5 56 7.5 122q9 65 23.5 120.5t40 95.5t63.5 62.5t93 22.5t87 -22.5t47 -62.5t15 -96q0 -55 -8 -120t-22 -121.5t-39 -97.5t-63 -64.5t-93 -23.5q-56 0 -88.5 23t-47.5 64.5t-15.5 97.5zM127.5 699q-0.5 -39 7.5 -70t26.5 -50.5t53.5 -19.5q34 0 58 19.5 t40 50t25 69.5t14 78t5.5 76.5t-8 67.5t-27 48.5t-52.5 18.5q-35 0 -59 -19t-39.5 -49t-25 -67.5t-13.5 -75.5q-5 -38 -5.5 -77zM342 -381l203 1661h100l-203 -1661h-100zM578.5 162.5q-0.5 56.5 7.5 122.5q8 65 22.5 120.5t39.5 96t63 63.5t94 23q54 0 86 -23t47 -63.5 t15.5 -96t-7.5 -120.5q-8 -66 -22.5 -122.5t-40 -97.5t-63.5 -64.5t-93 -23.5t-87 23.5t-46.5 64.5t-15 97.5zM650 207q0 -38 8 -69t27 -50.5t54 -19.5q34 0 57.5 19t39 50t24.5 70t14 78q5 38 6 76t-7 68t-27 48.5t-53 18.5q-35 0 -59 -19t-40 -49.5t-25 -68t-14 -74.5 q-5 -39 -5 -78z" />
<glyph unicode="&#x26;" horiz-adv-x="1452" d="M47 436q0 78 18.5 156.5t53 150t83.5 133.5t110 107.5t132 71.5t150 26q49 0 92.5 -14t76.5 -41t52 -66.5t19 -89.5q0 -67 -29.5 -121t-76 -96.5t-104 -73.5t-114.5 -51l164 -432q176 42 276.5 152t120.5 280q-12 -3 -24.5 -3.5t-24.5 -0.5q-27 0 -50 2t-43.5 8.5 t-39.5 19t-39 32.5l18 80q26 -13 54 -17t57 -4q42 0 83.5 7.5t82.5 17t83 17t85 7.5q42 0 83 -15.5t70 -47.5l-20 -80q-25 12 -53 16t-56 4q-31 0 -61.5 -4t-61.5 -10q-13 -105 -49.5 -195.5t-98.5 -162.5t-151 -123.5t-206 -79.5q27 -72 45.5 -125.5t40 -99t53.5 -88 t88 -91.5l-39 -102q-54 34 -92.5 66.5t-66 67t-47.5 72t-36.5 80t-33.5 92t-39 107.5q-16 -2 -30 -3t-30 -1q-108 0 -196 32t-150 92t-95.5 146.5t-33.5 194.5zM193 463q0 -87 22.5 -157.5t66.5 -120t110 -76.5t153 -27l-183 496q48 13 105.5 38.5t108 62t84.5 84.5t34 105 q0 50 -29.5 79.5t-78.5 29.5q-56 0 -110 -27t-101 -71.5t-85 -101.5t-61 -118q-20 -51 -28 -101t-8 -95z" />
<glyph unicode="'" horiz-adv-x="371" d="M88 944l59 490h136l-72 -490h-123z" />
<glyph unicode="(" horiz-adv-x="539" d="M95.5 -90.5q-3.5 54.5 4.5 123.5l117 960q9 68 26 122t40.5 101t52.5 90.5t61 90.5l64 90l78 -57q-38 -62 -69 -114.5t-54.5 -103t-39.5 -103.5t-24 -116l-119 -960q-8 -63 -6 -116t11.5 -104t26 -104t38.5 -115l-82 -57l-41 90q-21 47 -39 90.5t-30 90.5t-15.5 101.5z " />
<glyph unicode=")" horiz-adv-x="539" d="M2 -406q38 62 69.5 115t55.5 104t39.5 104t23.5 116l121 983q8 62 6 111t-11.5 95.5t-26.5 96t-39 111.5l84 57l41 -90q21 -47 39.5 -87t30.5 -83t16 -93.5t-5 -117.5l-120 -983q-9 -69 -26 -123.5t-40 -101.5t-52 -90.5t-61 -90.5l-63 -90z" />
<glyph unicode="*" d="M43 1061q37 33 61 52.5t51 32.5t64.5 24t102.5 26q-23 44 -38.5 70t-32 45t-38 36.5t-57.5 43.5l67 73q43 -24 69 -40t47 -38t43.5 -56t57.5 -93q34 37 54.5 60t33.5 44.5t22.5 48t22.5 70.5l93 -43q-9 -48 -16.5 -78t-21.5 -57t-39.5 -58.5t-70.5 -82.5q45 -23 72.5 -35 t52.5 -18t52.5 -6.5t72.5 1.5l-10 -100q-47 -7 -77.5 -9.5t-60.5 2.5t-69 19t-102 41q-6 -49 -9 -79.5t-1 -55.5t9 -52t21 -69l-100 -18q-13 30 -21.5 51.5t-14 41t-8.5 38.5t-3.5 43t1.5 56t5 77q-49 -9 -78.5 -16t-52.5 -16.5t-46 -24.5t-59 -41z" />
<glyph unicode="+" d="M35 487l12 101h295l49 391h131l-47 -391h297l-12 -101h-297l-51 -411h-131l51 411h-297z" />
<glyph unicode="," horiz-adv-x="293" d="M-49 -231q25 41 43 72t30.5 57.5t20.5 50t14 50.5t11 59t10 75l10 84h133l-10 -82q-8 -68 -15.5 -112.5t-20.5 -80t-34 -68t-55 -77.5l-63 -82z" />
<glyph unicode="-" horiz-adv-x="637" d="M66 489l14 101h489l-12 -101h-491z" />
<glyph unicode="." horiz-adv-x="293" d="M78 0l26 217h134l-27 -217h-133z" />
<glyph unicode="/" horiz-adv-x="457" d="M78 -381l203 1661h100l-203 -1661h-100z" />
<glyph unicode="0" d="M66 528q0 113 11.5 213.5t47.5 176t102 119.5t176 44q74 0 128 -20t91 -56t60 -87t35.5 -112t17 -131.5t4.5 -146.5q0 -114 -11 -214.5t-46.5 -175.5t-102.5 -119t-178 -44t-177.5 44.5t-101.5 120.5t-45.5 176.5t-10.5 211.5zM164 530q0 -78 9.5 -154t35.5 -136t72 -97 t120 -37q77 0 124.5 35t73.5 94t35 135.5t9 159.5q0 80 -9.5 155t-36.5 133.5t-75.5 94t-126.5 35.5q-75 0 -120.5 -38t-70 -98t-32.5 -134.5t-8 -147.5z" />
<glyph unicode="1" d="M68 911l438 191v-1006h239v-96h-665v96h295v842l-252 -145z" />
<glyph unicode="2" d="M35 0q56 55 116.5 113t119.5 118.5t112 123t93 125.5t63.5 126t23.5 125q0 121 -67.5 185.5t-186.5 64.5q-40 0 -78 -7t-68 -15.5t-48.5 -15.5l-18.5 -7v102l19.5 6.5t51 15t71.5 15t81 6.5q89 0 160 -22t120.5 -66t76 -110.5t26.5 -155.5t-36 -175t-91.5 -165.5 t-122.5 -152t-130 -134.5h413v-100h-700z" />
<glyph unicode="3" d="M33 -315q2 0 30.5 2t78.5 10.5t108 24.5t117.5 44t107.5 69t78.5 99.5t30.5 135.5q0 79 -31 130t-77.5 81.5t-100.5 44t-100.5 17.5t-77.5 3l-31 -2v102l28 4t70 15.5t90.5 32t90.5 54t70 82t28 114.5q0 56 -20.5 99t-57 72.5t-85.5 44.5t-106 15q-48 0 -87 -7t-67 -15.5 t-44 -15.5l-15 -7v100l15.5 7.5t45.5 16t73 16t98 7.5q85 0 156.5 -20t123 -61t80.5 -103.5t29 -148.5q0 -72 -24.5 -127t-58.5 -91.5t-70 -60t-58.5 -33t-24.5 -10.5q2 0 28.5 -8.5t69 -31.5t82 -62.5t68.5 -102.5t29 -151q0 -100 -35.5 -174.5t-91.5 -126t-124.5 -85 t-136 -51.5t-125 -27t-91 -10.5t-35.5 -1.5z" />
<glyph unicode="4" d="M86 0v102q0 73 3 127t13.5 103t30 98.5t51.5 114.5l271 536l120 -49l-286 -590q-23 -46 -35.5 -82.5t-19 -74t-8 -81t-1.5 -104.5h363v389h135v-870h-135v381h-502z" />
<glyph unicode="5" d="M80 -313q2 0 29 2.5t74.5 12t102 27.5t111 48.5t102 74.5t74.5 107t29 145q0 81 -27.5 137.5t-71 91.5t-97 54.5t-105.5 27t-96.5 8t-71 -2t-27.5 -2.5l72 639h238q35 0 63.5 2.5t53.5 8t49.5 13.5t52.5 19l29 10l45 -78l-33 -14q-32 -16 -60.5 -28t-57 -19.5t-59.5 -11 t-67 -3.5h-133l-43 -426q1 0 27 -1t70 -7.5t95 -22t103.5 -44.5t95 -74.5t69.5 -112.5t27 -159q0 -105 -34 -183.5t-87.5 -133.5t-120 -92t-131 -58t-120 -32t-87.5 -13.5t-34 -2.5z" />
<glyph unicode="6" d="M49 610q0 169 33 297.5t85.5 219t117.5 152t128 97.5t117 54.5t85.5 24t33.5 5.5l43 -90l-31.5 -8t-79.5 -30t-106 -60.5t-111.5 -99t-94.5 -146t-56 -201.5l13 4t37 9.5t57 9.5t73 4q102 0 173.5 -31t116.5 -88t66 -138.5t21 -182.5q0 -91 -19.5 -171t-61 -139.5 t-107 -94t-156.5 -34.5q-80 0 -139 25t-101 69t-68.5 104.5t-42 131.5t-21 149t-5.5 158zM192.5 585q-1.5 -73 5 -145t21 -138t41.5 -116.5t67 -81t97 -30.5q63 0 102.5 28t62 73.5t30.5 104.5t8 121q0 78 -12.5 142.5t-43 111.5t-81.5 73t-128 26q-35 0 -64.5 -5 t-51.5 -11.5t-34.5 -11.5l-12.5 -5q-5 -63 -6.5 -136z" />
<glyph unicode="7" d="M72 565v492h676v-133q0 -63 -4.5 -125t-16.5 -124t-37 -126l-356 -955l-133 48l362 960q18 47 27.5 88.5t14 83t5 85.5t0.5 95h-405v-389h-133z" />
<glyph unicode="8" d="M43 324q0 73 18 132.5t49.5 111t75.5 96.5t97 88q-43 37 -80.5 74t-65 79t-43.5 93.5t-16 119.5q0 75 25 137t70 106.5t107.5 69.5t137.5 25q67 0 124.5 -22.5t99.5 -63t65.5 -97t23.5 -124.5q0 -67 -16 -124.5t-43 -107t-63 -90.5t-77 -75q52 -39 95 -81t73.5 -89 t47 -101.5t16.5 -120.5q0 -86 -25 -157t-72.5 -121.5t-115.5 -78.5t-154 -28q-77 0 -141.5 25t-112 70.5t-74 110t-26.5 143.5zM168 334q0 -61 19 -109.5t51.5 -82.5t74 -52t86.5 -18q51 0 92.5 22.5t70.5 60t45 87.5t16 104q0 51 -19 98t-53.5 91t-81.5 84.5t-104 78.5 q-44 -37 -80 -76t-62 -83t-40.5 -94.5t-14.5 -110.5zM219 1128q0 -51 21 -96t54.5 -84.5t76 -73.5t84.5 -63q155 146 155 336q0 48 -16 87.5t-42.5 67.5t-60.5 43t-71 15q-45 0 -82.5 -17.5t-63.5 -48.5t-40.5 -73.5t-14.5 -92.5z" />
<glyph unicode="9" d="M35 641q0 91 19.5 171t61 140t106.5 94.5t157 34.5q80 0 139 -25t100.5 -69t68.5 -104.5t42 -131.5t21 -150t6 -159q0 -169 -33 -296.5t-85.5 -218t-117.5 -152.5t-128 -98t-117 -55t-85.5 -24.5t-33.5 -5.5l-43 93l31.5 8t79.5 29.5t106 60t111 99t94.5 146t56.5 201.5 l-13 -4t-37 -9t-57 -9t-73 -4q-102 0 -173.5 30.5t-116.5 87.5t-66 138t-21 182zM178 651q0 -77 12.5 -141.5t43 -111.5t81 -73t127.5 -26q35 0 65 5.5t52.5 12t35.5 12l13 5.5q5 63 5.5 136t-5.5 145t-21 138t-42 116.5t-67 81t-97 30.5q-62 0 -101.5 -28t-62 -74 t-31 -105.5t-8.5 -122.5z" />
<glyph unicode=":" horiz-adv-x="397" d="M78 0l26 217h134l-25 -217h-135zM180 838l29 219h133l-27 -219h-135z" />
<glyph unicode=";" horiz-adv-x="393" d="M-37 -231q25 41 42.5 72t30 57.5t21 50t14 50.5t10 59t9.5 75l12 84h134l-11 -82q-8 -68 -16 -112.5t-21 -80t-33.5 -68t-54.5 -77.5l-63 -82zM178 838l27 219h135l-29 -219h-133z" />
<glyph unicode="&#x3c;" d="M68 485l12 101l698 358l-12 -108l-584 -299l500 -306l-16 -133z" />
<glyph unicode="=" horiz-adv-x="782" d="M23 367l12 100h690l-12 -100h-690zM51 614l12 101h691l-13 -101h-690z" />
<glyph unicode="&#x3e;" d="M33 102l14 109l584 299l-506 305l14 133l606 -387l-12 -100z" />
<glyph unicode="?" horiz-adv-x="674" d="M20 1321l15 113q36 9 66 14t52 7t34 2.5l12 0.5q97 0 172.5 -28t127.5 -81t78.5 -130t26.5 -175q0 -93 -27 -182t-78.5 -174t-125.5 -167t-168 -161l-117 56q89 76 158 156.5t116.5 161.5t72 159.5t24.5 150.5q0 68 -18.5 123t-54.5 94t-89 60.5t-121 21.5 q-32 0 -60 -3.5t-49.5 -7.5t-34 -7.5zM66 0l34 217h129l-22 -217h-141z" />
<glyph unicode="@" horiz-adv-x="1591" d="M80 205q0 102 25 206t72 201.5t114 182.5t150.5 148t182.5 99.5t210 36.5q70 0 127.5 -15.5t98.5 -48.5t63 -86t22 -128q0 -72 -10 -142.5t-22 -141.5t-22 -142.5t-10 -143.5q0 -51 14 -99.5t31 -96.5l-84 -66l-79 154q-18 -37 -48 -64.5t-66.5 -46t-77 -28t-79.5 -9.5 q-60 0 -103.5 20.5t-71 55.5t-41 83t-13.5 104q0 78 22.5 137t61 102.5t90.5 74t111.5 52.5t123 38t125.5 30q5 34 8 68t3 69q0 92 -50.5 129t-138.5 37q-91 0 -170.5 -33.5t-145.5 -91t-117.5 -133.5t-86.5 -160.5t-53.5 -172.5t-18.5 -169q0 -114 29.5 -218.5t89.5 -185 t152.5 -128.5t218.5 -48q121 0 218 37.5t172 102.5t129 152.5t89 187.5t51.5 206.5t16.5 210.5q0 31 -2.5 62.5t-4.5 62.5l127 33q5 -42 8 -83t3 -83q0 -129 -19.5 -253.5t-61.5 -235t-107 -204t-155 -161t-207 -105.5t-263 -38q-154 0 -271.5 50.5t-197.5 140.5t-121 214.5 t-41 272.5zM598 246q0 -32 7 -61t22.5 -51.5t40.5 -36t61 -13.5q58 0 98.5 24.5t67.5 64.5t43 91t24.5 105t12.5 105.5t8 92.5q-46 -12 -92.5 -24t-89 -27.5t-80 -37.5t-65 -54t-43 -75.5t-15.5 -102.5z" />
<glyph unicode="A" horiz-adv-x="1010" d="M-96 0l745 1434h160l35 -1434h-150l-6 467h-412l-237 -467h-135zM332 571h356l-6 566q0 21 0.5 45t1.5 45q2 21 2 35v14h-6l-6 -14q-5 -13 -14 -33t-20 -43.5t-22 -44.5z" />
<glyph unicode="B" horiz-adv-x="1042" d="M41 0l358 1434h283q80 0 150.5 -12t123.5 -42t84 -82t31 -133q0 -65 -17.5 -129.5t-53 -121t-89.5 -99t-127 -63.5q80 -32 119 -100t39 -152q0 -111 -37.5 -203t-105 -158t-161 -102.5t-204.5 -36.5h-393zM215 106h186q83 0 153.5 29t121.5 80t79.5 121t28.5 153 q0 58 -20 96.5t-55.5 61.5t-85 33t-107.5 10h-156zM387 801h180q76 0 140 26.5t110 73t72 110t26 138.5q0 51 -18 85t-50 54.5t-75 29.5t-94 9h-160z" />
<glyph unicode="C" horiz-adv-x="850" d="M88 379q0 88 14 175.5t35 174.5q22 91 52 180.5t69.5 170.5t92 150.5t120 120t152 79t190.5 28.5q48 0 88 -6.5t68 -15t43 -14.5l16 -7l-29 -115l-14 8q-14 7 -39.5 16t-61 16.5t-79.5 7.5q-80 0 -144.5 -28t-116 -75t-91 -109.5t-70 -131.5t-52.5 -140.5t-38 -136.5 q-20 -82 -32.5 -165t-12.5 -167q0 -53 8 -108t31 -99.5t64 -73t106 -28.5q56 0 100.5 16t75 35.5t47.5 36.5l16 16l39 -92l-19 -20q-20 -19 -59 -42.5t-98 -43t-137 -19.5q-93 0 -157 32.5t-103 88t-56.5 129.5t-17.5 156z" />
<glyph unicode="D" horiz-adv-x="1104" d="M41 0l358 1434h271q100 0 180.5 -20.5t137.5 -65t87.5 -115t30.5 -170.5q0 -85 -13.5 -166.5t-33.5 -165.5q-23 -97 -51 -188.5t-67 -173t-91.5 -149.5t-124 -116.5t-165 -76t-214.5 -27.5h-305zM215 106h139q90 0 160.5 26t125 70.5t96 105t72.5 129.5t54.5 144 t42.5 148q20 77 33.5 156t13.5 159t-20.5 134t-61.5 87t-101.5 47.5t-141.5 14.5h-109z" />
<glyph unicode="E" horiz-adv-x="868" d="M41 0l358 1434h633l-26 -107h-488l-131 -530h459l-29 -109h-457l-145 -582h487l-26 -106h-635z" />
<glyph unicode="F" horiz-adv-x="838" d="M43 0l358 1434h611l-27 -107h-463l-133 -530h434l-26 -109h-435l-172 -688h-147z" />
<glyph unicode="G" horiz-adv-x="1059" d="M90 397q0 85 13.5 168t33.5 164q25 98 57 190.5t75 173.5t99 148t128.5 115.5t164 75t205.5 26.5q53 0 97.5 -7t76.5 -15.5t50 -15.5l18 -7l-29 -108l-17.5 7.5t-46.5 17t-68 17t-81 7.5q-90 0 -162 -25.5t-129.5 -70t-102 -104.5t-78.5 -129.5t-59 -145.5t-44 -152 q-19 -75 -31 -151.5t-12 -153.5q0 -67 12.5 -128t42.5 -107.5t81 -74.5t128 -28q50 0 86 7t51 13t17 7l137 544h-236l27 109h383l-176 -713l-24.5 -12t-68 -27t-103.5 -27t-132 -12q-96 0 -168 30t-119.5 85.5t-71.5 134t-24 174.5z" />
<glyph unicode="H" horiz-adv-x="1092" d="M41 0l358 1434h148l-160 -637h449l157 637h150l-359 -1434h-147l172 688h-449l-172 -688h-147z" />
<glyph unicode="I" horiz-adv-x="496" d="M41 0l358 1434h148l-359 -1434h-147z" />
<glyph unicode="J" horiz-adv-x="569" d="M-143 -422q55 76 94 132.5t67.5 103t48 86.5t35.5 84t30 96t32 121l280 1130h-219l27 103h366l-307 -1229l-32 -128t-29.5 -102.5t-33.5 -86.5t-44 -80.5t-61 -84.5t-84 -98l-101 -110z" />
<glyph unicode="K" horiz-adv-x="1001" d="M43 0l358 1434h150l-162 -641q64 24 112 45.5t88 48t76 62t76 89.5l314 430l84 -98l-381 -506l96 -864h-156l-75 780l-263 -102l-167 -678h-150z" />
<glyph unicode="L" horiz-adv-x="743" d="M43 0l358 1434h148l-332 -1328h399l-26 -106h-547z" />
<glyph unicode="M" horiz-adv-x="1395" d="M41 0l356 1434h178l111 -922h8l568 922h186l-358 -1434h-144l291 1128q5 21 13 46.5t15.5 47.5t12.5 37l6 15h-8l-8 -15q-7 -15 -18.5 -37t-25.5 -47t-26 -45l-467 -751h-162l-92 766q-2 18 -3.5 40.5t-2 42.5t-0.5 34v14h-8l-2 -15t-5.5 -36.5t-7.5 -44.5t-8 -39 l-272 -1141h-127z" />
<glyph unicode="N" horiz-adv-x="1118" d="M41 0l356 1434h181l157 -1125q2 -19 3.5 -42t2.5 -43.5t1 -33.5l1 -14h9l2 13t5.5 33t8.5 43t10 44l264 1125h129l-358 -1434h-180l-154 1128q-3 20 -5 44t-3 44.5t-1 33.5l-1 14h-8l-2 -14q-2 -13 -5.5 -33t-8 -44t-9.5 -45l-268 -1128h-127z" />
<glyph unicode="O" horiz-adv-x="1081" d="M82 324q0 100 18.5 200t42.5 197q21 82 45.5 169t59 169t81 155t109.5 127.5t145 86.5t189 32q163 0 241.5 -90t78.5 -254q0 -100 -18.5 -199t-43.5 -196q-21 -82 -45.5 -169t-59 -170t-81 -157t-109.5 -129.5t-145.5 -88t-188.5 -32.5q-81 0 -141 24t-99.5 69t-59 109.5 t-19.5 146.5zM231 336q0 -51 10 -96.5t33.5 -80t61 -55t92.5 -20.5q71 0 128.5 32t103 85t80.5 121t62 139.5t46 140.5t33 125q23 93 43 188.5t20 192.5q0 51 -10.5 95.5t-33.5 78t-61.5 53t-93.5 19.5q-71 0 -128.5 -31t-103 -82.5t-80 -117.5t-61 -136t-45 -138 t-32.5 -124q-23 -96 -43.5 -194t-20.5 -195z" />
<glyph unicode="P" horiz-adv-x="963" d="M43 0l358 1434h213q88 0 165 -11.5t133.5 -43t89 -87.5t32.5 -145q0 -125 -37.5 -223t-107.5 -165.5t-170 -102.5t-225 -35h-150l-154 -621h-147zM373 727h137q87 0 155.5 30.5t115.5 84.5t71.5 127.5t24.5 160.5q0 61 -16.5 99t-48.5 60t-78.5 30t-106.5 8h-105z" />
<glyph unicode="Q" horiz-adv-x="1049" d="M123 0l27 111q103 0 190.5 29t160.5 79.5t132.5 120t106 150t80.5 169t57 177.5q17 68 30 137.5t13 138.5q0 51 -12.5 95.5t-38.5 77t-66 51t-94 18.5q-86 0 -150.5 -40t-111 -104t-77 -145t-48.5 -162q-11 -48 -18 -93t-7 -85q0 -54 12.5 -99.5t38 -78t65 -50.5 t93.5 -18l-66 -104q-68 0 -123 25t-93 68.5t-58.5 102.5t-20.5 127q0 53 5.5 104.5t17.5 100.5q25 115 70 216t113 176.5t161 119t215 43.5q78 0 141.5 -23.5t108.5 -68t69.5 -107.5t24.5 -141q0 -66 -10.5 -138.5t-24.5 -141.5q-16 -76 -44 -156.5t-67.5 -159t-91 -151 t-115 -131.5t-140.5 -102t-166 -62q34 0 83 -7t100.5 -17.5t100 -22.5t80.5 -23l-92 -125q-60 30 -130.5 52.5t-144 37t-147 22t-139.5 7.5z" />
<glyph unicode="R" horiz-adv-x="1022" d="M41 0l356 1434h248q82 0 156 -11t129.5 -40.5t88 -82t32.5 -135.5q0 -67 -18 -134.5t-55.5 -126t-95.5 -102.5t-137 -63q40 -21 59.5 -56.5t27 -78t7.5 -87.5q0 -44 1 -83l12 -393l-158 -76l-8 520q-1 58 -13 97t-38.5 63t-67 34.5t-98.5 10.5h-109l-172 -690h-147z M387 801h162q80 0 143.5 27t108 74t68.5 111t24 138q0 51 -18 84.5t-49.5 54t-75 29t-95.5 8.5h-137z" />
<glyph unicode="S" d="M-51 96l78 92l17 -16t48 -35t74 -35t94 -16q64 0 117 22t91 61.5t59.5 93.5t21.5 118q0 59 -25 109t-62.5 96t-81.5 91.5t-81.5 96t-62.5 109t-25 131.5q0 103 35.5 185t99.5 139.5t151 88.5t191 31q46 0 85.5 -7t69 -15.5t45.5 -15.5l17 -7l-26 -113l-15 8q-15 8 -41 17 t-62.5 17t-78.5 8q-67 0 -123.5 -21.5t-98 -60.5t-64.5 -94.5t-23 -122.5q0 -60 25 -110t62.5 -96t81.5 -91.5t81.5 -95.5t62.5 -108.5t25 -131.5q0 -101 -33.5 -183t-94 -140t-144 -90t-183.5 -32q-75 0 -132.5 19t-96.5 42.5t-49 33.5z" />
<glyph unicode="T" horiz-adv-x="772" d="M178 0l332 1327h-285l27 107h717l-27 -107h-285l-331 -1327h-148z" />
<glyph unicode="U" horiz-adv-x="1065" d="M94 229q0 48 8 95.5t19 95.5l254 1014h147l-254 -1012q-9 -42 -16.5 -83t-7.5 -83q0 -174 174 -174q75 0 128 29t90 77t60.5 109t38.5 125l252 1012h150l-254 -1014q-27 -110 -64 -193t-93.5 -139t-136.5 -84.5t-194 -28.5q-66 0 -121.5 14.5t-95 45.5t-62 79t-22.5 115z " />
<glyph unicode="V" horiz-adv-x="975" d="M254 1434h147l11 -1125q0 -21 -1.5 -44.5t-4 -43.5t-4.5 -33l-1 -14h9l4 14q5 13 12.5 33t17.5 43.5t21 44.5l375 735q27 53 45 95t29 82.5t15 85.5q3 36 3 81v23l119 45q9 -68 13 -116q1 -18 1 -36q1 -28 -3 -53q-6 -42 -23 -86t-48 -104l-553 -1061h-170z" />
<glyph unicode="W" horiz-adv-x="1331" d="M150 0l104 1434h147l-88 -1131q-2 -21 -5 -45t-6 -44q-4 -20 -6 -34l-3 -14h8l5 13q6 13 14.5 32.5t18.5 43t19 44.5l349 758h180l-27 -760q-1 -21 -3 -45t-4 -44q-1 -20 -3 -34l-2 -14h10l4 14q4 15 11 36t15.5 45.5t16.5 45.5l316 756q23 55 40.5 95t29 78t16.5 80 q4 35 4 82v19l119 45q6 -45 9 -79.5t3 -63.5t-4 -55t-12.5 -53.5t-22 -60t-31.5 -73.5l-465 -1071h-192l26 760q1 20 3 43.5t4 44t4 34.5l2 13h-11l-5 -13q-5 -14 -12.5 -34t-17.5 -43.5t-20 -44.5l-350 -760h-188z" />
<glyph unicode="X" horiz-adv-x="930" d="M-96 0l528 743l-63 312q-9 48 -15.5 84t-16.5 68t-27 62.5t-48 67.5l51 127q50 -40 80 -70t49 -62t31 -73t25 -102l57 -280h6l9 15q9 14 22.5 35.5t29.5 46t29 44.5l287 416h147l-493 -691l76 -401q8 -46 13.5 -77.5t14.5 -57.5t25.5 -52.5t48.5 -62.5l-45 -125 q-51 34 -82.5 62t-51 58.5t-31 70t-21.5 98.5l-66 354h-6l-9 -14q-8 -15 -21 -36t-28.5 -45t-29.5 -44l-328 -471h-147z" />
<glyph unicode="Y" horiz-adv-x="901" d="M250 0l145 586l-143 850h154l88 -568q3 -20 5 -45.5t3.5 -48t2.5 -38l1 -15.5h6l8 14.5t20.5 36.5t27.5 48t30 48l363 568h143l-561 -852l-148 -584h-145z" />
<glyph unicode="Z" horiz-adv-x="829" d="M-90 0l29 115l835 1208h-516l29 113h739l-911 -1323h209q45 0 76 0.5t56 3.5t48 9.5t50 17.5t62 28.5t86 42.5l23 -102q-57 -28 -97.5 -47.5t-72.5 -32t-60 -19.5t-61.5 -10t-76 -3.5t-103.5 -0.5h-344z" />
<glyph unicode="[" horiz-adv-x="633" d="M72 -432l231 1888h328l-13 -98h-194l-209 -1692h195l-13 -98h-325z" />
<glyph unicode="\" horiz-adv-x="457" d="M76 1280h100l207 -1661h-100z" />
<glyph unicode="]" horiz-adv-x="633" d="M8 -432l12 98h195l209 1692h-195l13 98h325l-231 -1888h-328z" />
<glyph unicode="^" d="M23 256l403 801h145l183 -801h-146l-139 645l-324 -645h-122z" />
<glyph unicode="_" d="M23 -455l14 99h745l-12 -99h-747z" />
<glyph unicode="`" horiz-adv-x="639" d="M119 1522l35 143l389 -164l-49 -71z" />
<glyph unicode="a" horiz-adv-x="909" d="M29 258q0 66 11.5 134t31.5 136q33 109 87 209t128.5 176.5t168 122t206.5 45.5q48 0 88.5 -6t69.5 -13.5t45 -13.5l16 -6l-168 -677q-13 -45 -22 -91t-9 -94q0 -30 3 -56.5t6 -47t6 -32.5l3 -11l-94 -66l-45 195q-1 -1 -12.5 -19t-37 -46.5t-61 -55.5t-83.5 -46.5 t-105 -19.5q-65 0 -109 20.5t-72 57.5t-40 89t-12 116zM170 270q0 -38 5.5 -72.5t19.5 -60.5t39 -41.5t63 -15.5q41 0 79 23t71 61t61.5 86.5t51 100t39 101t26.5 89.5l102 411q-1 1 -9.5 7.5t-32 14t-58.5 7.5q-64 0 -122.5 -35t-109 -92.5t-92 -132t-71.5 -153.5 t-46 -156.5t-16 -141.5z" />
<glyph unicode="b" horiz-adv-x="909" d="M25 14l391 1571h135l-154 -612l16 17t46 37t72.5 37t95.5 17q63 0 108.5 -21t75 -58.5t43.5 -89.5t14 -115q0 -96 -19 -194.5t-55.5 -190t-90 -171t-122.5 -139t-152.5 -93.5t-180.5 -34q-56 0 -97.5 6t-69.5 13.5t-35 10.5zM178 104q1 -1 9.5 -7t32 -13.5t61.5 -7.5 q67 0 126 33.5t109 90t89.5 129t67 151t42 157t14.5 145.5q0 38 -4.5 73t-18 62t-37 43.5t-61.5 16.5q-68 0 -118.5 -39t-88 -99t-63 -132t-41.5 -138z" />
<glyph unicode="c" horiz-adv-x="664" d="M43 283q0 80 13.5 170t42 178.5t72.5 170t105 143.5t139 99t175 37q34 0 62.5 -6t49 -12.5t32.5 -12.5l11 -6l-26 -104l-9 6q-10 5 -27.5 11.5t-42 12t-54.5 5.5q-68 0 -124.5 -33t-101.5 -87.5t-78.5 -124t-55.5 -143t-33 -144.5t-11 -128q0 -43 6.5 -84t23.5 -73.5 t47 -52t77 -19.5q39 0 71.5 11t56.5 24t37 24l13 11l16 -88l-14 -14q-15 -15 -44 -32.5t-72 -32t-99 -14.5q-66 0 -114.5 23t-80.5 64.5t-47.5 98t-15.5 122.5z" />
<glyph unicode="d" horiz-adv-x="911" d="M29 260q0 66 11.5 134t31.5 134q33 108 87 208t128.5 176.5t169 122.5t207.5 46q18 0 41 -2.5t37 -5t16 -2.5l129 512h131l-305 -1218q-11 -44 -21 -88t-10 -91q0 -29 3 -56.5t6 -49t6 -34.5l3 -13l-94 -66l-47 195q-1 -1 -12.5 -19t-36.5 -46.5t-60 -55.5t-83 -46.5 t-105 -19.5q-64 0 -108.5 20.5t-72 58t-40 90t-12.5 116.5zM170 270q0 -38 5 -72.5t19 -60.5t38.5 -41.5t62.5 -15.5q41 0 79 23t71.5 61t62 86.5t51.5 100t39.5 101t26.5 89.5l102 411q-1 1 -9 7.5t-31 14t-62 7.5q-64 0 -122.5 -35t-109 -92.5t-92 -132t-70.5 -153.5 t-45 -156.5t-16 -141.5z" />
<glyph unicode="e" horiz-adv-x="795" d="M55 383q0 77 18 158.5t51.5 159t81.5 146.5t107.5 121t129 82.5t147.5 30.5q48 0 89.5 -15t72 -43t48 -66.5t17.5 -86.5q0 -66 -27.5 -123.5t-74.5 -104.5t-108.5 -85t-130 -65.5t-139.5 -45.5t-136 -26q-2 -24 -2 -47q0 -43 7 -83q11 -62 40.5 -108.5t79.5 -74 t123 -27.5q38 0 71 5t57 11.5t38 11.5l14 5l-27 -105l-14 -5t-38 -11.5t-57.5 -11.5t-72.5 -5q-92 0 -160 29t-114 82.5t-68.5 129t-22.5 167.5zM211 522q81 9 164 37.5t151 73.5t111 104.5t43 130.5q0 51 -29.5 81t-79.5 30q-45 0 -88 -21.5t-81.5 -57.5t-71 -83t-57 -97.5 t-41 -102t-21.5 -95.5z" />
<glyph unicode="f" horiz-adv-x="492" d="M-150 -422q36 47 60.5 81.5t42 67.5t30.5 71.5t27 92.5l264 1061h-137l25 105h139l51 213q18 69 46.5 127t70.5 100.5t98 66t127 23.5q26 0 41 -2l15 -2l-7 -104l-14.5 2t-40.5 2q-46 0 -79.5 -19.5t-57 -51.5t-39 -72t-25.5 -80l-51 -203h158l-27 -105h-155l-267 -1061 q-13 -52 -24.5 -88.5t-24 -65t-28 -52t-36 -48t-47.5 -53.5t-63 -69z" />
<glyph unicode="g" horiz-adv-x="909" d="M-145 -442l55 100l12 -5t33 -10.5t49 -10.5t59 -5q94 0 164 24t120.5 71.5t85 117t59.5 160.5l30 117l-17 -22t-50 -49t-81.5 -49t-111.5 -22q-64 0 -108 20.5t-71.5 57.5t-39.5 89t-12 116q0 133 41 270q33 108 87 208t128.5 176.5t169 122.5t207.5 46q48 0 88 -6 t69 -13.5t45.5 -13.5l16.5 -6l-269 -1067q-28 -112 -73 -196.5t-110.5 -140.5t-154 -84.5t-204.5 -28.5q-50 0 -90 5t-68.5 11.5t-43.5 11.5zM170 272q0 -38 5 -73t19.5 -61.5t39 -42t63.5 -15.5q41 0 79 23t71 61t61.5 86.5t51 100t39 101t26.5 89.5l102 411q-1 1 -9.5 7.5 t-32 14t-58.5 7.5q-64 0 -122.5 -34.5t-109 -92t-92 -132t-71.5 -153t-46 -156t-16 -141.5z" />
<glyph unicode="h" horiz-adv-x="868" d="M8 0l395 1583h132l-154 -618l20 17q20 18 55.5 39t83 38.5t101.5 17.5q67 0 108 -23t59 -64q18 -39 18 -91v-6q-1 -56 -17 -123l-193 -770h-133l193 764q12 46 16 84q1 12 1 22q0 24 -6 44q-8 28 -29.5 42.5t-61.5 14.5q-46 0 -90.5 -21t-79.5 -46q-34 -26 -56 -47 l-22 -21l-209 -836h-131z" />
<glyph unicode="i" horiz-adv-x="418" d="M8 0l264 1057h131l-262 -1057h-133zM313 1217l54 217h131l-54 -217h-131z" />
<glyph unicode="j" horiz-adv-x="453" d="M-141 -422q40 59 65.5 98t43.5 75t32 79t31 111l252 1015h-160l24 101h291l-276 -1116q-15 -58 -29 -104t-32 -85.5t-41.5 -75t-55.5 -71.5l-76 -90zM348 1217l53 217h134l-56 -217h-131z" />
<glyph unicode="k" horiz-adv-x="795" d="M8 0l395 1583h132l-154 -622l15 19q15 18 43.5 40.5t71 41.5t97.5 19q47 0 85 -14.5t64.5 -41t41 -64.5t14.5 -84q0 -64 -24.5 -120t-66 -102.5t-96.5 -82t-116 -56.5q21 -89 32.5 -138t16.5 -72t5 -28l1 -4q10 -44 18 -73.5t18 -53.5t24.5 -45.5t38.5 -48.5l-66 -104 q-43 37 -68 62.5t-39.5 49t-22 49.5t-15.5 64l-86 395q54 15 109 42t100 64.5t73.5 84t28.5 100.5q0 57 -24.5 87t-80.5 30q-41 0 -74.5 -16.5t-61.5 -44.5t-50 -65.5t-39.5 -79t-31 -84.5t-23.5 -83l-154 -604h-131z" />
<glyph unicode="l" horiz-adv-x="424" d="M73 204q2 40 10.5 86t22.5 103l297 1190h132l-297 -1190q-17 -67 -26 -109q-10 -44 -12 -80l-2 -26q0 -24 4 -48q4 -38 15 -97l-90 -66l-33 90q-13 37 -18 73q-4 25 -4 52q0 11 1 22z" />
<glyph unicode="m" horiz-adv-x="1331" d="M16 0l174 698q13 52 20.5 87.5t9.5 68.5v15q0 26 -4 56q-5 38 -15 97l90 63l59 -153l21 22q21 23 59 50.5t91 50t118 22.5q50 0 82 -14t51.5 -35.5t28.5 -46.5t12 -47q10 12 34.5 35.5t61 47.5t84.5 42t105 18q67 0 105.5 -26.5t54.5 -69.5q13 -37 13 -84q-1 -8 -1 -15 q-2 -56 -17 -114l-92 -375q-17 -67 -27 -109q-10 -43 -12 -79q-1 -13 0 -26q0 -25 2 -49q4 -38 17 -97l-90 -66l-33 90q-18 47 -24 85q-4 24 -3 49q0 13 1 27q3 38 13 79t23 96l90 361q12 46 17 85q2 16 2 31q0 20 -4 36q-7 28 -28 44.5t-63 16.5q-33 0 -66.5 -14 t-62.5 -33.5t-52.5 -40.5t-36 -34t-13.5 -14l-207 -831h-131l189 754q11 46 16 85q2 17 2 32q0 19 -4 35q-6 28 -27.5 44.5t-62.5 16.5q-33 0 -67 -14t-63 -33.5t-52.5 -40.5t-36 -34t-13.5 -14l-207 -831h-131z" />
<glyph unicode="n" horiz-adv-x="893" d="M16 0l174 698q13 52 20.5 87.5t9.5 68.5v15q0 26 -4 56q-5 38 -15 97l90 63l57 -155l23 23t64 50.5t96 50.5t120 23q67 0 107 -24t58 -65q17 -38 16 -89v-9q-2 -56 -17 -120l-94 -377q-17 -67 -27 -109q-10 -43 -12 -79q-1 -13 -1 -26q-1 -25 3 -49q4 -38 16 -97l-90 -66 l-32 90q-18 49 -24 88q-3 24 -3 47q-1 16 1 30q4 38 14.5 78t23.5 93l92 371q12 46 16 84q1 13 1 24q0 24 -5 42q-8 28 -30 42.5t-62 14.5q-46 0 -90.5 -21t-79 -46.5t-55.5 -46.5l-21 -21l-209 -836h-131z" />
<glyph unicode="o" horiz-adv-x="848" d="M31 238q0 74 13 146.5t30 143.5q16 64 35 130t45 127.5t61.5 115t84.5 94t113 63.5t148 23q128 0 192 -67t64 -195q0 -74 -14 -146.5t-31 -144.5q-16 -65 -35 -131t-45 -127.5t-61.5 -115.5t-84 -93.5t-113.5 -62.5t-150 -23q-128 0 -190 66.5t-62 196.5zM166 254 q0 -37 6.5 -69t23 -56t44 -37.5t69.5 -13.5q53 0 95.5 21.5t75.5 57.5t57.5 83t43.5 97t32.5 100t23.5 93q17 66 31 134t14 137q0 39 -7.5 71.5t-25.5 56.5t-47.5 37t-73.5 13q-53 0 -94 -22t-73 -58.5t-55.5 -84t-41 -97t-30.5 -98.5t-23 -89q-17 -68 -31 -137.5 t-14 -138.5z" />
<glyph unicode="p" horiz-adv-x="920" d="M-92 -455l291 1155q9 41 16.5 82.5t7.5 83.5q0 41 -5 80.5t-11 77.5l92 63l53 -174q22 32 51 62.5t63.5 54t75.5 37.5t89 14q63 0 108 -21t74.5 -59t43 -90.5t13.5 -115.5q0 -96 -19 -194.5t-56 -189.5t-90.5 -170.5t-122.5 -138.5t-152.5 -93t-179.5 -34 q-47 0 -73.5 7.5l-26.5 7.5l-111 -445h-131zM182 106q1 -1 8 -7.5t29.5 -14.5t61.5 -8q52 0 98.5 20t87.5 54t76 79t63 95.5t48.5 102.5t33.5 101q17 59 30 125.5t13 126.5q0 38 -4 73.5t-16 63t-35 44t-62 16.5q-45 0 -83 -18t-69.5 -49t-57 -72t-46 -86t-35.5 -92.5 t-26 -90.5z" />
<glyph unicode="q" horiz-adv-x="920" d="M37 260q0 66 11.5 133t33.5 135q32 109 86.5 209t129 176.5t168.5 122t206 45.5q48 0 88 -6t69 -13.5t45.5 -13.5l16.5 -6l-277 -1105q-11 -45 -19.5 -78.5t-14 -60.5t-8 -51t-1.5 -49.5t5 -55t12 -68.5l-92 -63l-31 88q-14 37 -19 73q-5 27 -5 58q0 8 1 17q1 40 9.5 86 t23.5 104l43 165l-17 -20t-49 -43.5t-77.5 -43.5t-102.5 -20q-64 0 -108.5 20.5t-72.5 57.5t-41 89.5t-13 117.5zM180 270q0 -38 5.5 -72.5t19.5 -60.5t39 -41.5t63 -15.5q41 0 78 23.5t70 61.5t61.5 87t51.5 100t40 100.5t27 88.5l100 411q-1 1 -9.5 7.5t-31.5 14t-59 7.5 q-63 0 -121.5 -35t-109 -92.5t-92 -132t-71 -153.5t-45.5 -156.5t-16 -141.5z" />
<glyph unicode="r" horiz-adv-x="539" d="M16 0l174 698q9 34 15 61t9.5 50t4.5 44.5t-0.5 46t-6 54t-11.5 68.5l92 63l57 -155q54 59 102.5 89.5t88.5 43.5t69.5 13.5t44.5 0.5l-34 -135q-16 0 -43.5 -0.5t-63 -10.5t-76.5 -34t-84 -70l-207 -827h-131z" />
<glyph unicode="s" horiz-adv-x="680" d="M-66 76l66 92l13 -13t38 -29t61 -29t81 -13q46 0 87.5 13.5t73.5 39.5t51 63t19 85q0 49 -22 86t-55.5 69.5t-72 64t-72 68.5t-55.5 83.5t-22 109.5q0 78 30 137t81.5 99t120.5 60.5t147 20.5q47 0 85 -6t64.5 -13.5t40.5 -13.5l15 -6l-27 -106l-14 6q-15 7 -39.5 14.5 t-57 14t-69.5 6.5q-45 0 -87.5 -11.5t-75 -35t-52 -59.5t-19.5 -85t22.5 -86t55.5 -69t72.5 -63t72.5 -67.5t55.5 -83t22.5 -108.5q0 -78 -31.5 -139.5t-84.5 -105t-123 -66.5t-148 -23q-64 0 -110.5 15.5t-77 34t-38.5 25.5z" />
<glyph unicode="t" horiz-adv-x="475" d="M96 204q2 40 10.5 86t22.5 103l141 563h-139l27 101h137l53 215l146 49l-68 -264h158l-27 -101h-156l-139 -563q-11 -45 -19 -78.5t-12.5 -60.5t-6.5 -50.5t0 -48.5t6.5 -54t11.5 -68l-90 -66l-33 90q-13 37 -19 73q-4 26 -5 54q0 9 1 20z" />
<glyph unicode="u" horiz-adv-x="877" d="M44 160q2 56 19 123l193 774h131l-190 -766q-12 -47 -16 -85q-1 -13 -1 -24q0 -23 5 -41q8 -27 29.5 -42t61.5 -15q36 0 72.5 14t67 33t55 39t37.5 33l14 14l211 840h131l-176 -701q-13 -53 -20.5 -88t-8.5 -68v-12q-1 -28 3 -59q4 -38 16 -96l-90 -66l-60 158l-23 -23 q-23 -24 -63 -52t-95.5 -51.5t-119.5 -23.5q-68 0 -108.5 23t-58.5 64q-16 37 -16 86v12z" />
<glyph unicode="v" horiz-adv-x="760" d="M160 1057h139l10 -766q0 -21 -1.5 -45t-3.5 -44q-1 -20 -2 -34l-1 -14h12l4 14q4 13 11 33.5t16.5 44.5t20.5 45l223 416q29 54 46 92t26 73t11.5 73.5t2.5 92.5l88 35l14 -92q6 -40 6 -71v-5q0 -33 -10.5 -66.5t-30.5 -73.5t-51 -97l-360 -668h-144z" />
<glyph unicode="w" horiz-adv-x="1257" d="M160 1057h137l-12 -785q-1 -21 -3 -45t-4 -45q-2 -20 -4 -34l-2 -13h9l55 131l354 791h170l-41 -787l-12 -135h10l5 13q4 14 11.5 34.5t17 44.5t19.5 45l222 437q27 54 42.5 92t23 72.5t9.5 72.5t2 92l88 35l15 -92q6 -40 6 -70v-5q0 -32 -9.5 -65.5t-28 -73t-48.5 -97.5 l-344 -670h-164l39 774q1 21 3.5 45t5.5 44.5t5 34.5l2 13h-12l-5 -13q-4 -14 -11.5 -34.5t-16.5 -44.5t-18 -45l-350 -774h-164z" />
<glyph unicode="x" horiz-adv-x="698" d="M-102 0l383 549l-48 205q-9 41 -13.5 70t-11.5 53.5t-19.5 47.5t-36.5 52l49 108q42 -32 67 -56t40 -49t23.5 -54.5t16.5 -71.5l39 -190h6l8 14q8 13 20.5 33t27 43t26.5 43l170 260h135l-354 -508l47 -273q9 -44 14.5 -74.5t13.5 -54.5t21 -45.5t37 -48.5l-55 -104 q-40 34 -65 59.5t-40.5 50t-24 51t-14.5 64.5l-45 254h-6l-7 -12q-7 -13 -18 -32.5t-24.5 -42t-26.5 -42.5l-198 -299h-137z" />
<glyph unicode="y" horiz-adv-x="702" d="M-119 -360q46 30 76.5 57.5t54 59.5t45 71.5t49.5 93.5l80 154l-30 981h145l8 -651q1 -21 0 -46t-2.5 -47t-2.5 -37l-1 -14h6l5.5 15t14 37t19 47t21.5 45l323 651h127l-635 -1229q-22 -43 -42 -77t-42.5 -63.5t-50.5 -57t-65 -56.5l-78 -61z" />
<glyph unicode="z" horiz-adv-x="664" d="M-104 0l28 113l604 843h-378l24 101h588l-688 -957h174q38 0 63 1.5t50 9t56.5 23t84.5 42.5l26 -92q-58 -29 -94.5 -46t-68.5 -25.5t-67.5 -10.5t-92.5 -2h-309z" />
<glyph unicode="{" horiz-adv-x="541" d="M55 514l70 92q37 51 52.5 105t23.5 114l18 168q9 68 26 122t40.5 101.5t52.5 91t61 89.5l64 90l74 -62q-38 -61 -68.5 -113t-53 -103t-38 -104t-23.5 -116l-20 -168q-8 -60 -24 -114t-54 -105l-74 -90l49 -86q22 -35 28 -97t-3 -136l-20 -164q-8 -63 -5.5 -116t13 -104 t28 -104t39.5 -115l-88 -53l-41 90q-21 46 -39 89.5t-30 91t-15.5 102t4.5 123.5l21 164q8 60 5 116t-28 107z" />
<glyph unicode="|" horiz-adv-x="457" d="M178 1280h101v-1661h-99z" />
<glyph unicode="}" horiz-adv-x="541" d="M2 -406q38 62 69 115t54 104t38 104t23 116l21 164q7 58 25 121t59 112l67 84l-43 82q-14 25 -22 50.5t-11.5 53t-2.5 58t6 67.5l20 168q8 63 5.5 116t-13 103.5t-28.5 103t-40 114.5l88 57l41 -90q21 -46 39.5 -89.5t30.5 -91t15.5 -101.5t-5.5 -122l-20 -168 q-8 -60 -6 -114t26 -105l47 -92l-67 -94q-37 -51 -53.5 -107t-22.5 -116l-23 -164q-8 -69 -25 -123.5t-40 -102t-52 -91t-61 -89.5l-63 -90z" />
<glyph unicode="~" d="M96 516l21 82l27 -10t81 -10q46 0 86.5 7.5t80.5 17t80.5 17t86.5 7.5q39 0 67.5 -10t48 -22t29.5 -22l9 -10l-21 -82q-1 1 -12 6t-36 11t-58 6q-46 0 -86.5 -7.5t-80.5 -17t-80.5 -17t-86.5 -7.5q-39 0 -68.5 9.5t-49 21t-28.5 20.5z" />
<glyph unicode="&#xa1;" horiz-adv-x="465" d="M66 -379l147 1055h115l-113 -1055h-149zM227 838l23 219h137l-35 -219h-125z" />
<glyph unicode="&#xa2;" d="M109 389q0 62 6.5 132t23 140.5t43 137.5t66.5 122t94.5 94t126.5 54l43 365h139l-57 -357q15 0 33.5 -3.5t36.5 -9t34 -11t27 -9.5l-14 -104q-26 14 -62 24.5t-78 10.5q-68 0 -118 -27.5t-86 -73.5t-59.5 -105t-37 -122t-19 -125.5t-5.5 -113.5q0 -30 3 -65.5 t10.5 -71.5t20.5 -69.5t33.5 -59t49.5 -41t69 -15.5q22 0 46.5 5t47.5 14t43 22t35 29l29 -88q-17 -18 -39.5 -33t-48 -26.5t-51.5 -19.5t-50 -12l-45 -358h-135l60 367q-66 17 -108 60t-66 100t-32.5 120.5t-8.5 122.5z" />
<glyph unicode="&#xa3;" d="M68 514l14 100h184l13 111q14 115 53.5 185t91 108t107.5 50.5t102.5 12t77 -7l30.5 -6.5l23 -100l-22.5 6.5t-57 9t-76 -4t-79.5 -32t-68 -75.5t-41 -134l-17 -123h259l-13 -100h-254l-12 -98q-7 -55 -14 -96t-20.5 -76.5t-36.5 -69.5t-62 -76h465l-13 -98h-604l11 84 q39 48 62.5 86t37 75t20.5 78t13 95l12 96h-186z" />
<glyph unicode="&#xa4;" d="M2 16l160 250q-31 48 -44.5 111t-2.5 149q9 87 38.5 149.5t71.5 110.5l-98 252l104 35l91 -219q23 12 55.5 19.5t71.5 7.5q37 0 66 -7.5t50 -19.5l142 219l98 -35l-160 -252q31 -48 44.5 -110.5t2.5 -149.5q-11 -86 -40.5 -149t-71.5 -111l100 -250l-107 -36l-88 219 q-27 -13 -58.5 -20t-70.5 -7q-73 0 -116 27l-142 -219zM244.5 430.5q2.5 -46.5 16.5 -82t41 -56t69 -20.5q41 0 73 21t55 56.5t37.5 82.5t20.5 98q7 52 4 97.5t-17 80t-41 54.5t-69 20t-74 -20.5t-55 -55t-37 -80.5t-20 -98q-6 -51 -3.5 -97.5z" />
<glyph unicode="&#xa5;" d="M51 395l12 103l213 -2v6l-161 555h153l113 -510l254 510h125l-287 -555v-6l207 2l-10 -103l-246 4l-49 -399h-127l49 399z" />
<glyph unicode="&#xa6;" horiz-adv-x="436" d="M82 2l68 553h100l-68 -553h-100zM190 881l68 553h98l-65 -553h-101z" />
<glyph unicode="&#xa7;" horiz-adv-x="829" d="M63 -463l19 113q25 -8 52 -11.5t54 -3.5q50 0 91 15t70 43.5t45 69.5t16 92q0 64 -25.5 115.5t-63.5 99t-83 94t-83 101t-63.5 120t-25.5 150.5q0 60 16.5 116.5t47 105t74 88t97.5 66.5q-19 38 -29 85t-10 89q0 83 30 150.5t81.5 115t121.5 73.5t150 26q29 0 60.5 -4.5 t60.5 -13.5l-21 -109q-26 6 -54 8t-54 2q-51 0 -91 -15t-68 -43.5t-43 -68.5t-15 -90q0 -63 25.5 -114.5t63.5 -98.5t83 -94t83 -102t63.5 -121.5t25.5 -151.5q0 -61 -16.5 -117.5t-47 -105t-74 -88t-98.5 -66.5q19 -37 29 -84t10 -88q0 -84 -30.5 -151t-83.5 -114.5 t-123.5 -73t-151.5 -25.5q-26 0 -57.5 3.5t-57.5 12.5zM215 569q0 -65 24 -121.5t61.5 -107.5t83 -96.5l87.5 -87.5q34 18 60 44t44 58t27.5 68t9.5 73q0 65 -24 122t-61.5 108t-83 96.5l-87.5 87.5q-34 -17 -60 -43.5t-44 -58.5t-27.5 -68.5t-9.5 -73.5z" />
<glyph unicode="&#xa8;" horiz-adv-x="639" d="M311 1444l54 217h108l-53 -217h-109zM528 1444l56 217h106l-53 -217h-109z" />
<glyph unicode="&#xa9;" horiz-adv-x="897" d="M66 528q0 71 6 140t22 130.5t43 114t70 90t103 59t141 21.5q80 0 139.5 -21.5t101.5 -60t69 -91t42.5 -114.5t21.5 -130t6 -138t-6 -139t-21.5 -131t-43 -114.5t-70 -91t-102 -60t-139.5 -21.5q-81 0 -141 22t-102.5 61t-69.5 92t-42.5 115t-21.5 130t-6 137zM147 526 q0 -52 4.5 -108t16.5 -110.5t33 -103.5t54.5 -86t81 -59t112.5 -22q64 0 111.5 22t81 59.5t54.5 87t33 104t16.5 110.5t4.5 108t-4 109t-16 111.5t-33 104t-54 86.5t-80.5 59t-111.5 22q-65 0 -113 -22t-82 -59t-55 -86.5t-33 -104.5t-16.5 -112t-4.5 -110zM307 440 q0 38 3.5 82t12.5 87.5t25 84.5t41.5 72t62 49.5t85.5 18.5q20 0 40.5 -3.5t38.5 -9.5l-8 -71q-12 5 -25.5 7.5t-25.5 2.5q-33 0 -57 -16.5t-40 -43.5t-25.5 -61.5t-14.5 -69.5t-6.5 -68t-1.5 -57q0 -19 2 -43.5t9.5 -46t22.5 -36.5t41 -15q19 0 38 8.5t30 24.5l12 -66 q-18 -21 -51 -31t-61 -10q-45 0 -74 19t-45.5 49t-22.5 67.5t-6 75.5z" />
<glyph unicode="&#xaa;" horiz-adv-x="506" d="M43 1044q0 68 21 139t59.5 129.5t93.5 96t123 37.5q60 0 92.5 -10.5l32.5 -10.5l-45 -372q-3 -19 -5.5 -37t-2.5 -35q0 -58 22 -113l-61 -34l-39 106l-8 -16t-25.5 -35t-45.5 -35t-69 -16t-68 17t-44 45.5t-24 65.5t-7 78zM133 1040q0 -21 3.5 -44.5t12 -43t23 -32.5 t35.5 -13q38 0 63 30t40.5 74t23 93.5t12.5 87.5l3 23t7 53t7.5 58.5t5.5 39.5l-11 5t-32 5q-31 0 -57 -16.5t-47.5 -43.5t-38 -62.5t-27.5 -72.5t-17 -74t-6 -67z" />
<glyph unicode="&#xab;" d="M37 686l291 381l110 -20l-235 -361l147 -358l-104 -23zM350 686l293 381l117 -20l-238 -361l150 -358l-113 -23z" />
<glyph unicode="&#xac;" d="M39 489l12 101h715l-55 -426h-127l41 325h-586z" />
<glyph unicode="&#xad;" horiz-adv-x="637" d="M66 489l14 101h489l-12 -101h-491z" />
<glyph unicode="&#xae;" horiz-adv-x="754" d="M68 1016q0 85 12 165t45.5 142t95 99.5t160.5 37.5q97 0 157 -38t93 -100.5t44 -142t11 -163.5q0 -57 -4.5 -112.5t-17 -105t-34 -91.5t-55.5 -72.5t-82.5 -48t-113.5 -17.5q-98 0 -159 38.5t-95 101.5t-45.5 143t-11.5 164zM152 1016q0 -67 8 -135.5t32 -124.5 t68.5 -91.5t118.5 -35.5q73 0 117 35.5t67.5 91.5t31 124.5t7.5 135.5t-7.5 135t-30.5 123t-66.5 90t-116.5 35q-74 0 -119 -35t-69.5 -90t-32.5 -123t-8 -135zM238 784l57 469h125q48 0 74 -26t26 -74q0 -43 -17 -81t-57 -50q17 -6 26 -24t13 -46.5t6 -67.5t5 -87l-86 -25 l-4 158q0 21 -2.5 33t-9 18t-19 8t-33.5 2l-25 -207h-79zM350 1051h31q17 0 27.5 9.5t16.5 23.5t8.5 30.5t2.5 30.5q0 20 -9 34.5t-32 14.5h-26z" />
<glyph unicode="&#xaf;" horiz-adv-x="639" d="M236 1538l22 100h530l-24 -100h-528z" />
<glyph unicode="&#xb0;" horiz-adv-x="453" d="M39 1188q0 65 8.5 115t30 84t58 51.5t91.5 17.5t91.5 -17.5t57.5 -51.5t29.5 -84t8.5 -115t-8.5 -116t-30.5 -86t-58.5 -53t-91.5 -18q-56 0 -92 18t-57 52.5t-29 85.5t-8 117zM127 1188q0 -39 2.5 -75.5t12 -65t29 -45.5t54.5 -17q34 0 54.5 17t30.5 45t13 65t3 76 q0 38 -3 74.5t-13 64.5t-29.5 45t-53.5 17q-35 0 -54.5 -17.5t-30 -45.5t-13 -64.5t-2.5 -73.5z" />
<glyph unicode="&#xb1;" d="M23 0l12 100h676l-13 -100h-675zM92 582l12 100h275l47 375h129l-45 -375h272l-12 -100h-270l-45 -379h-133l49 379h-279z" />
<glyph unicode="&#xb2;" horiz-adv-x="444" d="M51 887q36 44 76.5 92.5t75 98t57.5 99t23 95.5q0 31 -8.5 52.5t-23.5 35t-35 20t-42 6.5q-23 0 -46 -6t-35.5 -11.5t-14.5 -6.5v63l9.5 4t25 8.5t35 8.5t40.5 4q35 0 67.5 -9.5t57 -31t39.5 -56t15 -83.5q0 -42 -16.5 -85t-41 -84.5t-54 -80t-56.5 -70.5h190v-63h-338z " />
<glyph unicode="&#xb3;" horiz-adv-x="461" d="M51 918q2 0 26 2t62 11.5t74 29.5t62 56.5t26 92.5q0 47 -19.5 75t-46.5 41t-55.5 16.5t-46.5 2t-20 -1.5v62q1 0 17.5 2.5t42.5 11t50.5 25t42 44t17.5 68.5q0 53 -32 82t-85 29q-25 0 -49.5 -6.5t-38 -12t-15.5 -6.5v66q2 1 15 6t39.5 10.5t56.5 5.5q42 0 77 -11 t61 -33t40.5 -53.5t14.5 -72.5q0 -48 -18.5 -81t-40 -52.5t-40 -28l-18.5 -8.5q1 0 14 -4t34 -15.5t41 -31.5t34 -52t14 -77q0 -62 -23 -105t-58 -71t-75.5 -43t-75.5 -22.5t-58 -8.5l-23 -2z" />
<glyph unicode="&#xb4;" horiz-adv-x="639" d="M276 1501l469 164l-34 -143l-422 -92z" />
<glyph unicode="&#xb5;" horiz-adv-x="887" d="M-109 -455l377 1512h131l-190 -764q-12 -47 -14.5 -85t7 -65t32.5 -42t63 -15q45 0 88 21t76.5 45.5t53.5 45.5l20 21l208 838h131l-174 -699q-13 -53 -20 -88t-8.5 -68t3 -71t15.5 -96l-90 -64l-59 156l-19.5 -23.5t-55.5 -51.5t-88 -51.5t-116 -23.5q-42 0 -71 11 t-40 20.5t-12 11.5l-116 -475h-132z" />
<glyph unicode="&#xb6;" horiz-adv-x="899" d="M55 543q0 94 25 186t76 165t128.5 118t182.5 45h352l-184 -1512h-135l172 1387h-133l-121 -991q-7 -54 -13.5 -93.5t-15 -71.5t-19 -59t-25 -56.5t-33.5 -64.5t-44 -81l-92 53q41 84 63.5 157.5t35.5 147.5t21 153t19 173q-72 0 -121.5 30.5t-80.5 79.5t-44.5 110.5 t-13.5 123.5z" />
<glyph unicode="&#xb7;" horiz-adv-x="293" d="M66 471l26 217h133l-24 -217h-135z" />
<glyph unicode="&#xb8;" horiz-adv-x="639" d="M-2 -299q37 50 61.5 84t41.5 65t29 64.5t24 81.5h137q-13 -51 -26.5 -87t-29.5 -65.5t-36 -56t-47 -57.5l-80 -92z" />
<glyph unicode="&#xb9;" horiz-adv-x="428" d="M41 1362l225 98v-510h117v-63h-338v63h139v404l-121 -72z" />
<glyph unicode="&#xba;" horiz-adv-x="506" d="M53 1059q0 68 11 138.5t37.5 128t71.5 94t114 36.5q49 0 81 -16.5t51 -45t26.5 -67t7.5 -82.5q0 -68 -11.5 -138.5t-38.5 -128t-73 -94t-115 -36.5q-49 0 -80.5 17t-49.5 45.5t-25 67t-7 81.5zM141 1065q0 -24 2 -50t10 -47.5t24.5 -35.5t45.5 -14q41 0 68 35.5 t43.5 86.5t23.5 106.5t7 96.5q0 25 -2.5 51t-11.5 47t-26 34.5t-46 13.5q-27 0 -48 -16.5t-36.5 -44t-25.5 -62t-16.5 -70.5t-9 -70.5t-2.5 -60.5z" />
<glyph unicode="&#xbb;" d="M45 326l238 360l-150 358l113 23l209 -381l-291 -381zM367 326l237 360l-149 358l104 23l209 -381l-291 -381z" />
<glyph unicode="&#xbc;" horiz-adv-x="676" d="M55 686v66h566v-66h-566zM168 1362l225 98v-510h117v-63h-338v63h139v404l-121 -72zM180 0v63q-1 36 0 63.5t5 52t12 49t22 55.5l131 278l80 -24l-139 -308q-11 -23 -16.5 -41.5t-8 -37t-2.5 -40.5v-49h150v193h84v-453h-84v199h-234z" />
<glyph unicode="&#xbd;" horiz-adv-x="676" d="M55 686v66h566v-66h-566zM164 0h340v61h-193q27 32 56.5 70.5t54.5 80t41 84.5t16 85q0 49 -15 83.5t-39.5 56t-57 31t-66.5 9.5q-21 0 -40.5 -3.5t-35.5 -7.5t-25.5 -7.5l-9.5 -3.5v-66q2 1 15 6.5t36 12t46 6.5q22 0 41.5 -6.5t34.5 -20.5t23.5 -35.5t8.5 -52.5 q0 -45 -22.5 -94.5t-57 -99t-75 -98t-76.5 -91.5zM164 0q36 43 76.5 91.5t75 98t57 99t22.5 94.5q0 31 -8.5 52.5t-23.5 35.5t-34.5 20.5t-41.5 6.5q-23 0 -46 -6.5t-36 -12t-15 -6.5v66l9.5 3.5t25.5 7.5t35.5 7.5t40.5 3.5q34 0 66.5 -9.5t57 -31t39.5 -56t15 -83.5 q0 -42 -16 -85t-41 -84.5t-54.5 -80t-56.5 -70.5h193v-61h-340zM168 1362l225 98v-510h117v-63h-338v63h139v404l-121 -72z" />
<glyph unicode="&#xbe;" horiz-adv-x="676" d="M55 686v66h566v-66h-566zM174 918q2 0 26 2t62.5 11.5t75 29.5t62.5 56.5t26 92.5q0 47 -20 75t-48 41t-57 16.5t-47.5 2t-20.5 -1.5v62q1 0 18 2.5t43 11t51 25t43 44t18 68.5q0 53 -32.5 82t-84.5 29q-25 0 -49.5 -6.5t-38 -12t-15.5 -6.5v66q2 1 14.5 6t38.5 10.5 t58 5.5q42 0 77 -11t60.5 -33t40 -53.5t14.5 -72.5q0 -48 -18 -81t-40 -52.5t-40 -28l-18 -8.5q1 0 14 -4t34 -15.5t41 -31.5t34 -52t14 -77q0 -62 -23 -105t-58 -71t-75.5 -43t-75.5 -22.5t-58 -9l-23 -1.5zM180 0v63q-1 36 0 63.5t5 52t12 49t22 55.5l131 278l80 -24 l-139 -308q-11 -23 -16.5 -41.5t-8 -37t-2.5 -40.5v-49h150v193h84v-453h-84v199h-234z" />
<glyph unicode="&#xbf;" horiz-adv-x="674" d="M66 10q0 94 27 183t79 174.5t126 167.5t169 161l115 -55q-89 -77 -158 -158t-116 -162t-71 -160t-24 -151q0 -68 18.5 -123t54 -94t88 -60.5t120.5 -21.5q31 0 59.5 4t49.5 8.5t33 8.5l13 4l-12 -115q-37 -9 -67.5 -14t-52.5 -7t-34 -2.5l-12 -0.5q-98 0 -173 28t-127 81 t-78.5 129.5t-26.5 174.5zM440 838l25 219h139l-33 -219h-131z" />
<glyph unicode="&#xc0;" horiz-adv-x="1010" d="M-98 0l708 1280h158l76 -1280h-156l-16 408h-418l-219 -408h-133zM313 518h355l-19 496q-1 20 -0.5 44t1 45t1 35.5l0.5 14.5h-8l-5.5 -13.5t-14.5 -34t-20 -44.5t-21 -45zM555 1522l35 143l387 -164l-47 -71z" />
<glyph unicode="&#xc1;" horiz-adv-x="1010" d="M-98 0l708 1280h158l76 -1280h-156l-16 408h-418l-219 -408h-133zM313 518h355l-19 496q-1 20 -0.5 44t1 45t1 35.5l0.5 14.5h-8l-5.5 -13.5t-14.5 -34t-20 -44.5t-21 -45zM539 1501l469 164l-37 -143l-420 -92z" />
<glyph unicode="&#xc2;" horiz-adv-x="1010" d="M-94 0l706 1280h156l74 -1280h-156l-16 408h-418l-219 -408h-127zM311 518h355l-21 496q-1 20 -0.5 44t1.5 45t2 35.5l1 14.5h-8l-5.5 -13.5t-14.5 -34t-20 -44.5t-21 -45zM485 1419v82l301 166l222 -166l-39 -82l-213 119z" />
<glyph unicode="&#xc3;" horiz-adv-x="1010" d="M-98 0l708 1280h158l76 -1280h-156l-16 408h-418l-219 -408h-133zM313 518h355l-19 496q-1 20 -0.5 44t1 45t0.5 35l1 15h-8l-5.5 -13.5t-14.5 -34t-20 -44.5t-21 -45zM459 1559l18 81l28.5 -10t82.5 -10q45 0 85.5 7.5t80 17t80.5 17t88 7.5q38 0 66.5 -10t47 -21.5 t28.5 -21.5l9 -10l-18 -82l-27.5 11t-81.5 11q-45 0 -86 -8t-80.5 -17.5t-80.5 -17.5t-87 -8q-38 0 -67 10t-48 22t-29 22z" />
<glyph unicode="&#xc4;" horiz-adv-x="1010" d="M-98 0l708 1280h158l76 -1280h-156l-16 408h-418l-219 -408h-133zM313 518h355l-19 496q-1 20 -0.5 44t1 45t0.5 35l1 15h-8l-5.5 -13.5t-14.5 -34t-20 -44.5t-21 -45zM567 1444l56 217h108l-53 -217h-111zM786 1444l54 217h108l-53 -217h-109z" />
<glyph unicode="&#xc5;" horiz-adv-x="1010" d="M-98 0l708 1280h158l76 -1280h-156l-16 408h-418l-219 -408h-133zM313 518h355l-19 496q-1 20 -0.5 44t1 45t1 35.5l0.5 14.5h-8l-5.5 -13.5t-14.5 -34t-20 -44.5t-21 -45zM555 1443.5q-8 30.5 2 72.5q22 85 81 122t153 37q38 0 70.5 -9t54 -28.5t29.5 -49.5t-3 -72 q-20 -84 -78.5 -123t-152.5 -39q-39 0 -72 9.5t-54.5 29.5t-29.5 50.5zM659 1516q-11 -44 6.5 -72.5t59.5 -28.5q51 0 77.5 28t37.5 73q11 43 -6 70.5t-60 27.5q-49 0 -76.5 -27.5t-38.5 -70.5z" />
<glyph unicode="&#xc6;" horiz-adv-x="1415" d="M-127 0l924 1434h569l-8 -107h-410l-49 -530h404l-11 -109h-403l-55 -582h401l-10 -106h-555l51 467h-412l-295 -467h-141zM377 571h354l64 566q2 21 6 45t8 44.5t7 34l3 13.5h-8l-7.5 -13.5t-18.5 -34t-25 -44.5t-27 -45z" />
<glyph unicode="&#xc7;" horiz-adv-x="850" d="M88 379q0 88 14 175.5t35 174.5q22 91 52 180.5t69.5 170.5t92 150.5t120 120t152 79t190.5 28.5q48 0 88 -6.5t68 -15t43.5 -15l15.5 -6.5l-29 -115l-14 7.5t-39.5 16.5t-61 16.5t-79.5 7.5q-80 0 -144.5 -28t-116 -75t-91 -109.5t-70 -131.5t-52.5 -140.5t-38 -136.5 q-20 -82 -32.5 -165t-12.5 -167q0 -53 8 -108t31 -99.5t64 -73t106 -28.5q56 0 100.5 16t75 35.5t47 36l16.5 16.5l39 -92l-15 -15.5t-45.5 -35.5t-76 -39.5t-106.5 -27.5q-12 -45 -25.5 -78.5t-30 -61.5t-37 -54t-45.5 -56l-80 -92l-73 63q35 48 59 81t41 62.5t28.5 60.5 t22.5 75q-73 11 -123 47t-81.5 89.5t-45.5 121t-14 141.5z" />
<glyph unicode="&#xc8;" horiz-adv-x="868" d="M41 0l319 1280h633l-26 -113h-488l-110 -446h456l-28 -115h-457l-125 -493h487l-26 -113h-635zM215 113h487h-487zM541 1522l34 143l388 -164l-48 -71z" />
<glyph unicode="&#xc9;" horiz-adv-x="868" d="M41 0l319 1280h633l-26 -113h-488l-110 -446h456l-28 -115h-457l-125 -493h487l-26 -113h-635zM215 113h487h-487zM524 1501l469 164l-35 -143l-421 -92z" />
<glyph unicode="&#xca;" horiz-adv-x="868" d="M41 0l319 1280h633l-26 -113h-488l-110 -446h456l-28 -115h-457l-125 -493h487l-26 -113h-635zM215 113h487h-487zM471 1419v82l303 166l219 -166l-39 -82l-213 119z" />
<glyph unicode="&#xcb;" horiz-adv-x="868" d="M41 0l319 1280h633l-26 -113h-488l-110 -446h456l-28 -115h-457l-125 -493h487l-26 -113h-635zM215 113h487h-487zM555 1444l53 217h111l-55 -217h-109zM772 1444l53 217h111l-55 -217h-109z" />
<glyph unicode="&#xcc;" horiz-adv-x="461" d="M25 0l319 1282h148l-320 -1282h-147zM246 1522l35 143l389 -164l-49 -71z" />
<glyph unicode="&#xcd;" horiz-adv-x="461" d="M25 0l319 1282h148l-320 -1282h-147zM279 1501l471 164l-37 -143l-420 -92z" />
<glyph unicode="&#xce;" horiz-adv-x="461" d="M25 0l319 1282h148l-320 -1282h-147zM211 1419v82l301 166l221 -166l-39 -82l-213 119z" />
<glyph unicode="&#xcf;" horiz-adv-x="461" d="M25 0l319 1282h148l-320 -1282h-147zM297 1444l53 217h109l-53 -217h-109zM514 1444l53 217h111l-55 -217h-109z" />
<glyph unicode="&#xd0;" horiz-adv-x="1094" d="M49 0l172 688h-158l27 109h160l158 637h280q100 0 179 -20t134 -65.5t84 -118t29 -177.5q0 -39 -4.5 -83t-11 -86.5t-14 -82t-13.5 -70.5q-19 -93 -45.5 -183.5t-64.5 -172t-90 -150t-122.5 -119t-163 -78.5t-210.5 -28h-326zM223 106h148q90 0 160 26t124 70.5t94.5 105 t70.5 129.5t52.5 144t40.5 148q10 38 19 82.5t16 87.5t11 81t4 64q0 76 -20 130t-59 88t-96 49.5t-131 15.5h-131l-131 -530h256l-26 -109h-256z" />
<glyph unicode="&#xd1;" horiz-adv-x="1118" d="M41 0l317 1280h170l199 -963q4 -19 7 -42.5t5 -44t3 -34.5l1 -14l11 2l2 13t5.5 32.5t7.5 43t9 44.5l226 963h129l-320 -1280h-166l-201 967q-4 20 -7 44t-5 44.5t-3 34.5l-1 14h-10l-2 -13.5t-5.5 -33.5t-8 -44.5t-9.5 -45.5l-227 -967h-127zM510 1559l20 81l27.5 -10 t81.5 -10q46 0 86.5 7.5t80.5 17t80.5 17t86.5 7.5q38 0 67 -10t48 -21.5t28 -21.5l10 -10l-20 -82l-27 11t-80 11q-46 0 -86.5 -8t-80.5 -17.5t-81 -17.5t-87 -8q-39 0 -67.5 10t-48 22t-28.5 22z" />
<glyph unicode="&#xd2;" horiz-adv-x="1081" d="M74 309q0 85 14.5 169t36.5 165q20 82 44.5 162.5t58 154t78.5 136.5t106 109.5t140 73t181 26.5q161 0 245.5 -82.5t84.5 -243.5q0 -85 -15.5 -168.5t-35.5 -167.5q-20 -81 -44.5 -161.5t-58.5 -154.5t-79 -137t-106 -110t-140.5 -73.5t-180.5 -26.5q-162 0 -245.5 84 t-83.5 245zM223 330q0 -53 13 -97t38.5 -75.5t64.5 -48.5t91 -17q71 0 127 26t99.5 69.5t76 100t56.5 118.5t41.5 125t31.5 118q19 76 35 154.5t16 157.5q0 106 -50.5 167.5t-157.5 61.5q-71 0 -126.5 -25t-98.5 -67t-75 -97t-56 -115.5t-41.5 -122.5t-31.5 -118 q-20 -77 -36.5 -156t-16.5 -159zM588 1522l35 143l389 -164l-49 -71z" />
<glyph unicode="&#xd3;" horiz-adv-x="1081" d="M74 309q0 85 14.5 169t36.5 165q20 82 44.5 162.5t58 154t78.5 136.5t106 109.5t140 73t181 26.5q161 0 245.5 -82.5t84.5 -243.5q0 -85 -15.5 -168.5t-35.5 -167.5q-20 -81 -44.5 -161.5t-58.5 -154.5t-79 -137t-106 -110t-140.5 -73.5t-180.5 -26.5q-162 0 -245.5 84 t-83.5 245zM223 330q0 -53 13 -97t38.5 -75.5t64.5 -48.5t91 -17q71 0 127 26t99.5 69.5t76 100t56.5 118.5t41.5 125t31.5 118q19 76 35 154.5t16 157.5q0 106 -50.5 167.5t-157.5 61.5q-71 0 -126.5 -25t-98.5 -67t-75 -97t-56 -115.5t-41.5 -122.5t-31.5 -118 q-20 -77 -36.5 -156t-16.5 -159zM559 1501l469 164l-35 -143l-420 -92z" />
<glyph unicode="&#xd4;" horiz-adv-x="1081" d="M74 309q0 85 14.5 169t36.5 165q20 82 44.5 162.5t58 154t78.5 136.5t106 109.5t140 73t181 26.5q161 0 245.5 -82.5t84.5 -243.5q0 -85 -15.5 -168.5t-35.5 -167.5q-20 -81 -44.5 -161.5t-58.5 -154.5t-79 -137t-106 -110t-140.5 -73.5t-180.5 -26.5q-162 0 -245.5 84 t-83.5 245zM223 330q0 -53 13 -97t38.5 -75.5t64.5 -48.5t91 -17q71 0 127 26t99.5 69.5t76 100t56.5 118.5t41.5 125t31.5 118q19 76 35 154.5t16 157.5q0 106 -50.5 167.5t-157.5 61.5q-71 0 -126.5 -25t-98.5 -67t-75 -97t-56 -115.5t-41.5 -122.5t-31.5 -118 q-20 -77 -36.5 -156t-16.5 -159zM510 1419v82l301 166l221 -166l-39 -82l-213 119z" />
<glyph unicode="&#xd5;" horiz-adv-x="1081" d="M72 309q0 85 14.5 169t36.5 165q20 82 44.5 162.5t58 154t78.5 136.5t106 109.5t140 73t181 26.5q161 0 245.5 -82.5t84.5 -243.5q0 -85 -15.5 -168.5t-35.5 -167.5q-21 -81 -45.5 -162t-58.5 -154.5t-79 -137t-106.5 -110t-140.5 -73t-181 -26.5q-162 0 -244.5 84 t-82.5 245zM221 330q0 -53 12.5 -97t38 -75.5t64.5 -48.5t92 -17q71 0 127 26t99.5 69.5t76 100t56.5 118.5t41.5 125t31.5 118q19 76 35 154.5t16 157.5q0 106 -50.5 167.5t-158.5 61.5q-71 0 -126 -25t-98 -67t-75.5 -97t-57 -115.5t-42 -122.5t-31.5 -118 q-18 -77 -34.5 -156t-16.5 -159zM477 1559l21 81l28 -10t80 -10q46 0 86.5 7.5t80.5 17t80.5 17t86.5 7.5q39 0 68 -10t48.5 -21.5t29.5 -21.5l10 -10l-21 -82l-27.5 11t-80.5 11q-46 0 -86.5 -8t-80.5 -17.5t-80.5 -17.5t-86.5 -8q-39 0 -68 10t-48.5 22t-29.5 22z" />
<glyph unicode="&#xd6;" horiz-adv-x="1081" d="M74 309q0 85 14.5 169t36.5 165q20 82 44.5 162.5t58 154t78.5 136.5t106 109.5t140 73t181 26.5q161 0 245.5 -82.5t84.5 -243.5q0 -85 -15.5 -168.5t-35.5 -167.5q-20 -81 -44.5 -161.5t-58.5 -154.5t-79 -137t-106 -110t-140.5 -73.5t-180.5 -26.5q-162 0 -245.5 84 t-83.5 245zM223 330q0 -53 13 -97t38.5 -75.5t64.5 -48.5t91 -17q71 0 127 26t99.5 69.5t76 100t56.5 118.5t41.5 125t31.5 118q19 76 35 154.5t16 157.5q0 106 -50.5 167.5t-157.5 61.5q-71 0 -126.5 -25t-98.5 -67t-75 -97t-56 -115.5t-41.5 -122.5t-31.5 -118 q-20 -77 -36.5 -156t-16.5 -159zM592 1444l53 217h109l-54 -217h-108zM809 1444l53 217h109l-53 -217h-109z" />
<glyph unicode="&#xd7;" d="M41 242l281 284l-209 287l106 96l209 -282l277 286l61 -71l-285 -287l213 -291l-106 -94l-209 281l-277 -283z" />
<glyph unicode="&#xd8;" horiz-adv-x="1081" d="M-74 -49l176 223q-11 37 -14.5 76t-3.5 78q0 99 17.5 198t41.5 195q20 82 45 169t59.5 169t80.5 155t109 127.5t145.5 86.5t189.5 32q34 0 69 -4.5t68.5 -16.5t64 -33.5t54.5 -55.5l137 170l80 -31l-176 -219q12 -38 17.5 -78t5.5 -80q0 -99 -18.5 -197t-43.5 -194 q-21 -82 -45.5 -169.5t-59 -170.5t-81 -157t-109.5 -129t-145.5 -87.5t-188.5 -32.5q-75 0 -143 25t-115 90l-137 -174zM229 336l701 887l-6 20.5t-25 45t-56 45t-98 20.5q-71 0 -128.5 -31t-103 -82.5t-80 -117.5t-61 -136t-45 -138t-32.5 -124q-23 -96 -43.5 -193 t-22.5 -196zM246 219l5.5 -21t24.5 -46.5t55 -46.5t97 -21q71 0 128.5 32t103 85t80.5 121t62 139.5t46 140.5t33 125q23 93 42 188t19 191z" />
<glyph unicode="&#xd9;" horiz-adv-x="1065" d="M94 229q0 48 8 95.5t19 95.5l217 862h145l-215 -860q-9 -42 -16.5 -83t-7.5 -83q0 -174 174 -174q75 0 128 29t90 77t60.5 109t38.5 125l215 860h148l-215 -862q-27 -110 -64 -193t-93.5 -139t-136.5 -84.5t-194 -28.5q-66 0 -121.5 14.5t-95 45.5t-62 79t-22.5 115z M571 1522l35 143l389 -164l-49 -71z" />
<glyph unicode="&#xda;" horiz-adv-x="1065" d="M94 229q0 48 8 95.5t19 95.5l217 862h145l-215 -860q-9 -42 -16.5 -83t-7.5 -83q0 -174 174 -174q75 0 128 29t90 77t60.5 109t38.5 125l215 860h148l-215 -862q-27 -110 -64 -193t-93.5 -139t-136.5 -84.5t-194 -28.5q-66 0 -121.5 14.5t-95 45.5t-62 79t-22.5 115z M555 1501l469 164l-35 -143l-422 -92z" />
<glyph unicode="&#xdb;" horiz-adv-x="1065" d="M94 229q0 48 8 95.5t19 95.5l217 862h145l-215 -860q-9 -42 -16.5 -83t-7.5 -83q0 -174 174 -174q75 0 128 29t90 77t60.5 109t38.5 125l215 860h148l-215 -862q-27 -110 -64 -193t-93.5 -139t-136.5 -84.5t-194 -28.5q-66 0 -121.5 14.5t-95 45.5t-62 79t-22.5 115z M510 1419v82l301 166l221 -166l-39 -82l-213 119z" />
<glyph unicode="&#xdc;" horiz-adv-x="1065" d="M94 229q0 48 8 95.5t19 95.5l217 862h145l-215 -860q-9 -42 -16.5 -83t-7.5 -83q0 -174 174 -174q75 0 128 29t90 77t60.5 109t38.5 125l215 860h148l-215 -862q-27 -110 -64 -193t-93.5 -139t-136.5 -84.5t-194 -28.5q-66 0 -121.5 14.5t-95 45.5t-62 79t-22.5 115z M594 1444l53 217h109l-54 -217h-108zM811 1444l53 217h111l-55 -217h-109z" />
<glyph unicode="&#xdd;" horiz-adv-x="952" d="M233 1280h156l103 -496q4 -21 7.5 -47t6 -48t3.5 -37l1 -15h6l9.5 16t23 39t29.5 48.5t28 43.5l336 496h143l-538 -764l-129 -516h-148l129 518zM483 1501l469 164l-34 -143l-422 -92z" />
<glyph unicode="&#xde;" horiz-adv-x="926" d="M25 0l358 1434h147l-57 -226q50 0 106 -1t110 -8.5t103.5 -24t87 -48t59.5 -80.5t22 -120q0 -32 -5 -66.5t-8 -62.5q-11 -89 -53 -163t-109 -127.5t-155 -83.5t-191 -30h-170l-98 -393h-147zM297 502h137q77 0 138.5 23t106.5 64.5t74.5 98t41.5 123.5q5 25 7.5 48 t2.5 48q0 54 -16 91t-46 60.5t-73 33.5t-97 10h-127z" />
<glyph unicode="&#xdf;" horiz-adv-x="952" d="M-178 -422q35 45 59.5 79t42.5 67.5t32 73t28 96.5l268 1071q21 88 54.5 174.5t86 155t127 111t178.5 42.5q55 0 106.5 -15.5t90.5 -46.5t62.5 -76.5t23.5 -105.5q0 -71 -29.5 -122.5t-74.5 -89t-96.5 -65.5t-96.5 -53t-74.5 -51.5t-29.5 -60.5q0 -26 19.5 -47t48 -42 t62.5 -45t62.5 -55.5t48 -74t19.5 -99.5q0 -81 -23.5 -142t-65 -105t-97.5 -73.5t-120.5 -47t-134.5 -24.5t-139 -7l25 100q73 0 146 13.5t131.5 47t95 90.5t36.5 144q0 46 -18.5 79t-46 59.5t-59.5 49t-59.5 46t-46 51.5t-18.5 65q0 60 29 100.5t72.5 71t94.5 56.5t94.5 57 t72.5 71.5t29 100.5q0 35 -12 62t-33 45t-49.5 27.5t-61.5 9.5q-43 0 -79 -17.5t-65.5 -46.5t-52.5 -66.5t-40.5 -77.5t-30 -80.5t-21.5 -74.5l-274 -1089q-13 -52 -24.5 -89t-24 -66t-28 -52.5t-36 -48.5t-47.5 -54t-63 -69z" />
<glyph unicode="&#xe0;" horiz-adv-x="909" d="M29 258q0 66 11.5 134t31.5 136q33 109 87 209t128.5 176.5t168 122t206.5 45.5q48 0 88.5 -6t69.5 -13.5t45 -13.5l16 -6l-168 -677q-13 -45 -22 -91t-9 -94q0 -30 3 -56.5t6 -47t6 -32l3 -11.5l-94 -66l-45 195q-1 -1 -12.5 -19t-37 -46.5t-61 -55.5t-83.5 -46.5 t-105 -19.5q-65 0 -109 20.5t-72 57.5t-40 89t-12 116zM170 270q0 -38 5.5 -72.5t19.5 -60.5t39 -41.5t63 -15.5q41 0 79 23t71 61t61.5 86.5t51 100t39 101t26.5 89.5l102 411q-1 1 -9.5 7.5t-32 14t-58.5 7.5q-64 0 -122.5 -35t-109 -92.5t-92 -132t-71.5 -153.5 t-46 -156.5t-16 -141.5zM444 1319l35 141l389 -162l-49 -71z" />
<glyph unicode="&#xe1;" horiz-adv-x="909" d="M29 258q0 66 11.5 134t31.5 136q33 109 87 209t128.5 176.5t168 122t206.5 45.5q48 0 88.5 -6t69.5 -13.5t45 -13.5l16 -6l-168 -677q-13 -45 -22 -91t-9 -94q0 -30 3 -56.5t6 -47t6 -32l3 -11.5l-94 -66l-45 195q-1 -1 -12.5 -19t-37 -46.5t-61 -55.5t-83.5 -46.5 t-105 -19.5q-65 0 -109 20.5t-72 57.5t-40 89t-12 116zM170 270q0 -38 5.5 -72.5t19.5 -60.5t39 -41.5t63 -15.5q41 0 79 23t71 61t61.5 86.5t51 100t39 101t26.5 89.5l102 411q-1 1 -9.5 7.5t-32 14t-58.5 7.5q-64 0 -122.5 -35t-109 -92.5t-92 -132t-71.5 -153.5 t-46 -156.5t-16 -141.5zM455 1298l469 162l-37 -141l-420 -92z" />
<glyph unicode="&#xe2;" horiz-adv-x="909" d="M29 258q0 66 11.5 134t31.5 136q33 109 87 209t128.5 176.5t168 122t206.5 45.5q48 0 88.5 -6t69.5 -13.5t45 -13.5l16 -6l-168 -677q-13 -45 -22 -91t-9 -94q0 -30 3 -56.5t6 -47t6 -32l3 -11.5l-94 -66l-45 195q-1 -1 -12.5 -19t-37 -46.5t-61 -55.5t-83.5 -46.5 t-105 -19.5q-65 0 -109 20.5t-72 57.5t-40 89t-12 116zM170 270q0 -38 5.5 -72.5t19.5 -60.5t39 -41.5t63 -15.5q41 0 79 23t71 61t61.5 86.5t51 100t39 101t26.5 89.5l102 411q-1 1 -9.5 7.5t-32 14t-58.5 7.5q-64 0 -122.5 -35t-109 -92.5t-92 -132t-71.5 -153.5 t-46 -156.5t-16 -141.5zM387 1217v81l303 166l219 -166l-39 -81l-213 116z" />
<glyph unicode="&#xe3;" horiz-adv-x="909" d="M29 258q0 66 11.5 134t31.5 136q33 109 87 209t128.5 176.5t168 122t206.5 45.5q48 0 88.5 -6t69.5 -13.5t45 -13.5l16 -6l-168 -677q-13 -45 -22 -91t-9 -94q0 -30 3 -56.5t6 -47t6 -32.5l3 -11l-94 -66l-45 195q-1 -1 -12.5 -19t-37 -46.5t-61 -55.5t-83.5 -46.5 t-105 -19.5q-65 0 -109 20.5t-72 57.5t-40 89t-12 116zM170 270q0 -38 5.5 -72.5t19.5 -60.5t39 -41.5t63 -15.5q41 0 79 23t71 61t61.5 86.5t51 100t39 101t26.5 89.5l102 411q-1 1 -9.5 7.5t-32 14t-58.5 7.5q-64 0 -122.5 -35t-109 -92.5t-92 -132t-71.5 -153.5 t-46 -156.5t-16 -141.5zM352 1333l21 80l27 -10t81 -10q46 0 86.5 7.5t80.5 17t80.5 17t86.5 7.5q39 0 68 -10t48 -22t29 -22l9 -10l-21 -80q-1 1 -12 6t-36 11t-58 6q-46 0 -86.5 -8t-80.5 -17.5t-80.5 -17.5t-86.5 -8q-39 0 -68.5 10t-49 21.5t-28.5 21.5z" />
<glyph unicode="&#xe4;" horiz-adv-x="909" d="M29 258q0 66 11.5 134t31.5 136q33 109 87 209t128.5 176.5t168 122t206.5 45.5q48 0 88.5 -6t69.5 -13.5t45 -13.5l16 -6l-168 -677q-13 -45 -22 -91t-9 -94q0 -30 3 -56.5t6 -47t6 -32.5l3 -11l-94 -66l-45 195q-1 -1 -12.5 -19t-37 -46.5t-61 -55.5t-83.5 -46.5 t-105 -19.5q-65 0 -109 20.5t-72 57.5t-40 89t-12 116zM170 270q0 -38 5.5 -72.5t19.5 -60.5t39 -41.5t63 -15.5q41 0 79 23t71 61t61.5 86.5t51 100t39 101t26.5 89.5l102 411q-1 1 -9.5 7.5t-32 14t-58.5 7.5q-64 0 -122.5 -35t-109 -92.5t-92 -132t-71.5 -153.5 t-46 -156.5t-16 -141.5zM469 1217l53 217h109l-53 -217h-109zM686 1217l53 217h111l-55 -217h-109z" />
<glyph unicode="&#xe5;" horiz-adv-x="909" d="M29 258q0 66 11.5 134t31.5 136q33 109 87 209t128.5 176.5t168 122t206.5 45.5q48 0 88.5 -6t69.5 -13.5t45 -13.5l16 -6l-168 -677q-13 -45 -22 -91t-9 -94q0 -30 3 -56.5t6 -47t6 -32l3 -11.5l-94 -66l-45 195q-1 -1 -12.5 -19t-37 -46.5t-61 -55.5t-83.5 -46.5 t-105 -19.5q-65 0 -109 20.5t-72 57.5t-40 89t-12 116zM170 270q0 -38 5.5 -72.5t19.5 -60.5t39 -41.5t63 -15.5q41 0 79 23t71 61t61.5 86.5t51 100t39 101t26.5 89.5l102 411q-1 1 -9.5 7.5t-32 14t-58.5 7.5q-64 0 -122.5 -35t-109 -92.5t-92 -132t-71.5 -153.5 t-46 -156.5t-16 -141.5zM457.5 1252.5q-7.5 30.5 3.5 72.5q20 85 78.5 123.5t152.5 38.5q40 0 73 -9.5t54.5 -29t29 -50.5t-2.5 -73q-20 -84 -79 -123t-155 -39q-39 0 -71.5 9.5t-54 29.5t-29 50.5zM563 1325q-11 -42 6.5 -70t59.5 -28q46 0 74.5 27.5t39.5 70.5t-4 69.5 t-61 26.5q-45 0 -74.5 -26.5t-40.5 -69.5z" />
<glyph unicode="&#xe6;" horiz-adv-x="1321" d="M29 258q0 66 11.5 134t31.5 136q33 109 87 209t128.5 176.5t168 122t206.5 45.5q30 0 64 -4t68 -11.5t66 -17.5t58 -22q46 26 94 40.5t102 14.5q48 0 90 -15t73 -43t48.5 -66.5t17.5 -86.5q0 -66 -27.5 -123.5t-74.5 -104.5t-109.5 -85t-131 -65.5t-139.5 -45.5t-136 -26 q-5 -68 6 -130t40.5 -108.5t79.5 -74t124 -27.5q37 0 69.5 5t56.5 11.5t38 11.5l14 5l-25 -105l-13.5 -5t-38 -11.5t-58.5 -11.5t-74 -5q-139 0 -224.5 66.5t-119.5 181.5q-24 -48 -56 -92.5t-73 -79t-93 -55.5t-116 -21q-65 0 -109 20.5t-72 57.5t-40 89t-12 116zM170 270 q0 -38 5.5 -72.5t19.5 -60.5t39 -41.5t63 -15.5q41 0 77.5 23t67 61t56.5 87t47 100t37 100.5t28 89.5l131 417q-2 1 -13.5 6t-37.5 11t-59 6q-64 0 -123 -35t-110.5 -92.5t-93 -132t-71.5 -153.5t-46.5 -156.5t-16.5 -141.5zM735 522q81 9 165 37.5t152 73.5t111 104.5 t43 130.5q0 51 -29.5 81t-78.5 30q-45 0 -87.5 -21.5t-80.5 -57t-70.5 -82.5t-57.5 -97.5t-42.5 -102t-24.5 -96.5z" />
<glyph unicode="&#xe7;" horiz-adv-x="664" d="M43 285q0 79 14 169t42.5 178.5t72.5 169.5t105 143t139 99t174 37q34 0 62.5 -6t48.5 -12.5t31 -12.5l11 -6l-24 -104q-2 1 -15 9t-45 17t-75 9q-68 0 -124 -33t-100.5 -87.5t-78 -124t-55.5 -143t-33 -144.5t-11 -128q0 -38 6 -78.5t22.5 -74t46 -55t77.5 -21.5 q39 0 72.5 11t57.5 24t38 24l14 11l16 -88l-11.5 -11t-31.5 -25t-48 -28t-62 -20q-17 -63 -35 -108t-42.5 -82.5t-57.5 -73.5t-80 -82l-74 63q31 37 54.5 68t41.5 62t32 66.5t26 82.5q-54 9 -92 38t-62.5 70.5t-35.5 92.5t-11 104z" />
<glyph unicode="&#xe8;" horiz-adv-x="795" d="M55 383q0 77 18 158.5t51.5 159t81.5 146.5t107.5 121t129 82.5t147.5 30.5q48 0 89.5 -15t72 -43t48 -66.5t17.5 -86.5q0 -66 -27.5 -123.5t-74.5 -104.5t-108.5 -85t-130 -65.5t-139.5 -45.5t-136 -26q-6 -68 5 -130t40.5 -108.5t79.5 -74t123 -27.5q38 0 71 5t57 11.5 t38 11.5l14 5l-27 -105l-14 -5t-38 -11.5t-57.5 -11.5t-72.5 -5q-92 0 -160 29t-114 82.5t-68.5 129t-22.5 167.5zM211 522q81 9 164 37.5t151 73.5t111 104.5t43 130.5q0 51 -29.5 81t-79.5 30q-45 0 -88 -21.5t-81.5 -57.5t-71 -83t-57 -97.5t-41 -102t-21.5 -95.5z M428 1319l37 141l387 -162l-49 -71z" />
<glyph unicode="&#xe9;" horiz-adv-x="795" d="M55 383q0 77 18 158.5t51.5 159t81.5 146.5t107.5 121t129 82.5t147.5 30.5q48 0 89.5 -15t72 -43t48 -66.5t17.5 -86.5q0 -66 -27.5 -123.5t-74.5 -104.5t-108.5 -85t-130 -65.5t-139.5 -45.5t-136 -26q-6 -68 5 -130t40.5 -108.5t79.5 -74t123 -27.5q38 0 71 5t57 11.5 t38 11.5l14 5l-27 -105l-14 -5t-38 -11.5t-57.5 -11.5t-72.5 -5q-92 0 -160 29t-114 82.5t-68.5 129t-22.5 167.5zM211 522q81 9 164 37.5t151 73.5t111 104.5t43 130.5q0 51 -29.5 81t-79.5 30q-45 0 -88 -21.5t-81.5 -57.5t-71 -83t-57 -97.5t-41 -102t-21.5 -95.5z M414 1298l469 162l-35 -141l-422 -92z" />
<glyph unicode="&#xea;" horiz-adv-x="795" d="M55 383q0 77 18 158.5t51.5 159t81.5 146.5t107.5 121t129 82.5t147.5 30.5q48 0 89.5 -15t72 -43t48 -66.5t17.5 -86.5q0 -66 -27.5 -123.5t-74.5 -104.5t-108.5 -85t-130 -65.5t-139.5 -45.5t-136 -26q-6 -68 5 -130t40.5 -108.5t79.5 -74t123 -27.5q38 0 71 5t57 11.5 t38 11.5l14 5l-27 -105l-14 -5t-38 -11.5t-57.5 -11.5t-72.5 -5q-92 0 -160 29t-114 82.5t-68.5 129t-22.5 167.5zM211 522q81 9 164 37.5t151 73.5t111 104.5t43 130.5q0 51 -29.5 81t-79.5 30q-45 0 -88 -21.5t-81.5 -57.5t-71 -83t-57 -97.5t-41 -102t-21.5 -95.5z M358 1217v81l304 166l219 -166l-37 -81l-215 116z" />
<glyph unicode="&#xeb;" horiz-adv-x="795" d="M55 383q0 77 18 158.5t51.5 159t81.5 146.5t107.5 121t129 82.5t147.5 30.5q48 0 89.5 -15t72 -43t48 -66.5t17.5 -86.5q0 -66 -27.5 -123.5t-74.5 -104.5t-108.5 -85t-130 -65.5t-139.5 -45.5t-136 -26q-6 -68 5 -130t40.5 -108.5t79.5 -74t123 -27.5q38 0 71 5t57 11.5 t38 11.5l14 5l-27 -105l-14 -5t-38 -11.5t-57.5 -11.5t-72.5 -5q-92 0 -160 29t-114 82.5t-68.5 129t-22.5 167.5zM211 522q81 9 164 37.5t151 73.5t111 104.5t43 130.5q0 51 -29.5 81t-79.5 30q-45 0 -88 -21.5t-81.5 -57.5t-71 -83t-57 -97.5t-41 -102t-21.5 -95.5z M430 1217l55 217h109l-53 -217h-111zM649 1217l53 217h109l-53 -217h-109z" />
<glyph unicode="&#xec;" horiz-adv-x="418" d="M8 0l264 1057h131l-262 -1057h-133zM147 1319l37 141l387 -162l-49 -71z" />
<glyph unicode="&#xed;" horiz-adv-x="418" d="M8 0l264 1057h131l-262 -1057h-133zM225 1298l469 162l-35 -141l-421 -92z" />
<glyph unicode="&#xee;" horiz-adv-x="418" d="M8 0l264 1057h131l-262 -1057h-133zM135 1298l303 166l219 -166l-36 -81l-215 116l-269 -116z" />
<glyph unicode="&#xef;" horiz-adv-x="418" d="M8 0l264 1057h131l-262 -1057h-133zM217 1217l55 217h109l-55 -217h-109zM434 1217l55 217h109l-53 -217h-111z" />
<glyph unicode="&#xf0;" horiz-adv-x="852" d="M33 246q0 68 12 136t29 134q16 64 34 129t43.5 125.5t59.5 113t80.5 91.5t108.5 61.5t143 22.5q21 0 45.5 -5t49 -14t45.5 -22.5t34 -30.5l4 2q0 37 -4 77t-12.5 79.5t-22.5 76t-35 66.5l-184 -137l-43 72l182 131q-32 42 -82 76.5t-102 54.5l67 100q30 -9 63 -25.5 t64.5 -37t59.5 -43t47 -43.5l194 143l41 -72l-192 -139q24 -45 40.5 -88.5t26.5 -87.5t14.5 -89.5t4.5 -96.5q0 -103 -14 -202t-37 -198q-17 -70 -35.5 -143.5t-43.5 -143.5t-59.5 -132.5t-84.5 -109.5t-117.5 -74.5t-159.5 -27.5q-137 0 -200.5 68.5t-63.5 202.5zM166 252 q0 -38 8.5 -69.5t26 -55t45 -36.5t65.5 -13q54 0 96.5 21t75 56t56.5 80t42.5 94t31.5 98t24 91q15 65 29 130.5t14 131.5q0 83 -36.5 129.5t-119.5 46.5q-53 0 -94 -21t-72.5 -56.5t-54.5 -81t-40.5 -94t-29.5 -97t-22 -88.5q-17 -65 -31 -132.5t-14 -133.5z" />
<glyph unicode="&#xf1;" horiz-adv-x="893" d="M16 0l174 698q13 52 20.5 87.5t9 68.5t-3.5 71t-15 97l90 63l57 -155l23 23t64 50.5t96 50.5t120 23q67 0 107 -24t58 -65t16.5 -97.5t-17.5 -120.5l-94 -377q-17 -67 -26.5 -109.5t-12 -78.5t2 -74.5t15.5 -97.5l-90 -66l-32 90q-18 49 -23.5 88t-2 76.5t14 78 t23.5 93.5l92 371q12 46 16 84t-4 65.5t-30 42.5t-62 15q-46 0 -90.5 -21t-79 -46.5t-55.5 -46.5l-21 -21l-209 -836h-131zM319 1333l21 80l27.5 -10t81.5 -10q46 0 86 7.5t79.5 17t80 17t87.5 7.5q39 0 67.5 -10t48 -22t28.5 -22l10 -10l-21 -80q-1 1 -12 6t-35.5 11 t-58.5 6q-46 0 -87 -8t-80.5 -17.5t-80.5 -17.5t-88 -8q-38 0 -67 10t-48.5 21.5t-29.5 21.5z" />
<glyph unicode="&#xf2;" horiz-adv-x="848" d="M31 238q0 74 13 146.5t30 143.5q16 64 35 130t45 127.5t61.5 115t84.5 94t113 63.5t148 23q128 0 192 -67t64 -195q0 -74 -14 -146.5t-31 -144.5q-16 -65 -35 -131t-45 -127.5t-61.5 -115.5t-84 -93.5t-113.5 -62.5t-150 -23q-128 0 -190 66.5t-62 196.5zM166 254 q0 -37 6.5 -69t23 -56t44 -37.5t69.5 -13.5q53 0 95.5 21.5t75.5 57.5t57.5 83t43.5 97t32.5 100t23.5 93q17 66 31 134t14 137q0 39 -7.5 71.5t-25.5 56.5t-47.5 37t-73.5 13q-53 0 -94 -22t-73 -58.5t-55.5 -84t-41 -97t-30.5 -98.5t-23 -89q-17 -68 -31 -137.5 t-14 -138.5zM418 1319l35 141l387 -162l-49 -71z" />
<glyph unicode="&#xf3;" horiz-adv-x="848" d="M31 238q0 74 13 146.5t30 143.5q16 64 35 130t45 127.5t61.5 115t84.5 94t113 63.5t148 23q128 0 192 -67t64 -195q0 -74 -14 -146.5t-31 -144.5q-16 -65 -35 -131t-45 -127.5t-61.5 -115.5t-84 -93.5t-113.5 -62.5t-150 -23q-128 0 -190 66.5t-62 196.5zM166 254 q0 -37 6.5 -69t23 -56t44 -37.5t69.5 -13.5q53 0 95.5 21.5t75.5 57.5t57.5 83t43.5 97t32.5 100t23.5 93q17 66 31 134t14 137q0 39 -7.5 71.5t-25.5 56.5t-47.5 37t-73.5 13q-53 0 -94 -22t-73 -58.5t-55.5 -84t-41 -97t-30.5 -98.5t-23 -89q-17 -68 -31 -137.5 t-14 -138.5zM426 1298l469 162l-37 -141l-420 -92z" />
<glyph unicode="&#xf4;" horiz-adv-x="848" d="M31 238q0 74 13 146.5t30 143.5q16 64 35 130t45 127.5t61.5 115t84.5 94t113 63.5t148 23q128 0 192 -67t64 -195q0 -74 -14 -146.5t-31 -144.5q-16 -65 -35 -131t-45 -127.5t-61.5 -115.5t-84 -93.5t-113.5 -62.5t-150 -23q-128 0 -190 66.5t-62 196.5zM166 254 q0 -37 6.5 -69t23 -56t44 -37.5t69.5 -13.5q53 0 95.5 21.5t75.5 57.5t57.5 83t43.5 97t32.5 100t23.5 93q17 66 31 134t14 137q0 39 -7.5 71.5t-25.5 56.5t-47.5 37t-73.5 13q-53 0 -94 -22t-73 -58.5t-55.5 -84t-41 -97t-30.5 -98.5t-23 -89q-17 -68 -31 -137.5 t-14 -138.5zM358 1217v81l304 166l219 -166l-37 -81l-215 116z" />
<glyph unicode="&#xf5;" horiz-adv-x="848" d="M31 238q0 74 13 146.5t30 143.5q16 64 35 130t45 127.5t61.5 115t84.5 94t113 63.5t148 23q128 0 192 -67t64 -195q0 -74 -14 -146.5t-31 -144.5q-16 -65 -35 -131t-45 -127.5t-61.5 -115.5t-84 -93.5t-113.5 -62.5t-150 -23q-128 0 -190 66.5t-62 196.5zM166 254 q0 -37 6.5 -69t23 -56t44 -37.5t69.5 -13.5q53 0 95.5 21.5t75.5 57.5t57.5 83t43.5 97t32.5 100t23.5 93q17 66 31 134t14 137q0 39 -7.5 71.5t-25.5 56.5t-47.5 37t-73.5 13q-53 0 -94 -22t-73 -58.5t-55.5 -84t-41 -97t-30.5 -98.5t-23 -89q-17 -68 -31 -137.5 t-14 -138.5zM330 1333l18 80l28.5 -10t82.5 -10q46 0 86.5 7.5t80 17t80 17t87.5 7.5q38 0 66.5 -10t47 -22t27.5 -22l10 -10l-18 -80q-1 1 -12 6t-36.5 11t-60.5 6q-45 0 -86 -8t-80.5 -17.5t-80.5 -17.5t-87 -8q-38 0 -67 10t-48 21.5t-28 21.5z" />
<glyph unicode="&#xf6;" horiz-adv-x="848" d="M31 238q0 74 13 146.5t30 143.5q16 64 35 130t45 127.5t61.5 115t84.5 94t113 63.5t148 23q128 0 192 -67t64 -195q0 -74 -14 -146.5t-31 -144.5q-16 -65 -35 -131t-45 -127.5t-61.5 -115.5t-84 -93.5t-113.5 -62.5t-150 -23q-128 0 -190 66.5t-62 196.5zM166 254 q0 -37 6.5 -69t23 -56t44 -37.5t69.5 -13.5q53 0 95.5 21.5t75.5 57.5t57.5 83t43.5 97t32.5 100t23.5 93q17 66 31 134t14 137q0 39 -7.5 71.5t-25.5 56.5t-47.5 37t-73.5 13q-53 0 -94 -22t-73 -58.5t-55.5 -84t-41 -97t-30.5 -98.5t-23 -89q-17 -68 -31 -137.5 t-14 -138.5zM440 1217l56 217h106l-53 -217h-109zM657 1217l56 217h108l-53 -217h-111z" />
<glyph unicode="&#xf7;" d="M39 492l10 98h721l-10 -98h-721zM281 76l26 217h135l-26 -217h-135zM369 762l26 217h133l-26 -217h-133z" />
<glyph unicode="&#xf8;" horiz-adv-x="848" d="M-129 -100l178 221q-12 29 -16 62t-4 65q0 71 13 141t30 139q16 64 34.5 130.5t44.5 127.5t61.5 115t85 94t115 63t152.5 23q23 0 49.5 -3.5t53 -12t50.5 -22.5t42 -35l129 166l76 -33l-162 -209q11 -31 11.5 -66t0.5 -67q0 -71 -12 -136t-29 -135q-16 -65 -35 -131.5 t-45 -128t-61 -115t-84 -93t-113.5 -62.5t-148.5 -23q-24 0 -51 3t-53 10.5t-50.5 21.5t-42.5 35l-139 -176zM166 266l502 629q-14 42 -52.5 63t-83.5 21q-54 0 -96 -22t-74.5 -58.5t-57 -83.5t-42.5 -96.5t-30.5 -99t-22.5 -89.5q-17 -65 -30 -131.5t-13 -132.5zM180 156 q16 -44 52 -61t81 -17q53 0 95 21.5t74.5 57.5t57 83t43 97t32 100t24.5 93q15 65 27.5 125.5t15.5 128.5z" />
<glyph unicode="&#xf9;" horiz-adv-x="877" d="M44 159.5q2 56.5 19 123.5l193 774h131l-190 -766q-12 -47 -16 -85t4 -65t29.5 -42t61.5 -15q36 0 72.5 14t67 33t55 39t37.5 33l14 14l211 840h131l-176 -701q-13 -53 -20.5 -88t-8.5 -68t3.5 -71t15.5 -96l-90 -66l-60 158l-23 -23.5t-63 -51.5t-95.5 -51.5 t-119.5 -23.5q-68 0 -108.5 23t-58.5 64t-16 97.5zM414 1319l37 141l387 -162l-50 -71z" />
<glyph unicode="&#xfa;" horiz-adv-x="877" d="M44 159.5q2 56.5 19 123.5l193 774h131l-190 -766q-12 -47 -16 -85t4 -65t29.5 -42t61.5 -15q36 0 72.5 14t67 33t55 39t37.5 33l14 14l211 840h131l-176 -701q-13 -53 -20.5 -88t-8.5 -68t3.5 -71t15.5 -96l-90 -66l-60 158l-23 -23.5t-63 -51.5t-95.5 -51.5 t-119.5 -23.5q-68 0 -108.5 23t-58.5 64t-16 97.5zM424 1298l469 162l-37 -141l-422 -92z" />
<glyph unicode="&#xfb;" horiz-adv-x="877" d="M44 159.5q2 56.5 19 123.5l193 774h131l-190 -766q-12 -47 -16 -85t4 -65t29.5 -42t61.5 -15q36 0 72.5 14t67 33t55 39t37.5 33l14 14l211 840h131l-176 -701q-13 -53 -20.5 -88t-8.5 -68t3.5 -71t15.5 -96l-90 -66l-60 158l-23 -23.5t-63 -51.5t-95.5 -51.5 t-119.5 -23.5q-68 0 -108.5 23t-58.5 64t-16 97.5zM358 1217v81l304 166l219 -166l-39 -81l-213 116z" />
<glyph unicode="&#xfc;" horiz-adv-x="877" d="M44 159.5q2 56.5 19 123.5l193 774h131l-190 -766q-12 -47 -16 -85t4 -65t29.5 -42t61.5 -15q36 0 72.5 14t67 33t55 39t37.5 33l14 14l211 840h131l-176 -701q-13 -53 -20.5 -88t-8.5 -68t3.5 -71t15.5 -96l-90 -66l-60 158l-23 -23.5t-63 -51.5t-95.5 -51.5 t-119.5 -23.5q-68 0 -108.5 23t-58.5 64t-16 97.5zM434 1217l55 217h109l-53 -217h-111zM653 1217l54 217h108l-53 -217h-109z" />
<glyph unicode="&#xfd;" horiz-adv-x="707" d="M-119 -360q46 30 76.5 57.5t54 59.5t45 71.5t49.5 93.5l80 154l-30 981h145l8 -651q1 -21 0 -46t-2.5 -47t-2.5 -37l-1 -14h6l5.5 15t14 37t19 47t21.5 45l323 651h127l-635 -1229q-22 -43 -42 -77t-42.5 -63.5t-50.5 -57t-65 -56.5l-78 -61zM352 1298l469 162l-37 -141 l-419 -92z" />
<glyph unicode="&#xfe;" horiz-adv-x="877" d="M-37 -274q0 54 11.5 107t23.5 104l274 1103q14 53 26.5 106t12.5 107q0 39 -5 76t-11 74l88 63q22 -56 39.5 -107t17.5 -112q0 -66 -14.5 -130.5t-30.5 -127.5q47 42 103.5 67t119.5 25q66 0 111.5 -21t73 -58.5t39.5 -88.5t12 -110q0 -63 -8.5 -129.5t-22.5 -132.5 q-15 -72 -38.5 -142t-56 -133t-75 -116.5t-95 -92t-116 -60.5t-137.5 -22q-18 0 -38.5 2.5t-42 6.5t-41.5 10t-36 14q-8 -34 -18 -69.5t-18.5 -71.5t-14.5 -73t-6 -73q0 -37 6.5 -73.5t14.5 -73.5l-93 -63q-10 28 -19.5 53.5t-17.5 51t-13 52.5t-5 58zM174 119 q25 -19 59.5 -28t63.5 -9q59 0 107 21t87 56.5t70 82t54 98t40 105t29 102.5q8 29 14 63.5t10.5 68t6.5 62.5t2 47q0 34 -6 67.5t-22 60t-42.5 43t-66.5 16.5q-60 0 -105 -30.5t-77.5 -77t-54 -102t-34.5 -106.5z" />
<glyph unicode="&#xff;" horiz-adv-x="702" d="M-119 -360q46 30 76.5 57.5t54 59.5t45 71.5t49.5 93.5l80 154l-30 981h145l8 -651q1 -21 0 -46t-2.5 -47t-2.5 -37l-1 -14h6l5.5 15t14 37t19 47t21.5 45l323 651h127l-635 -1229q-22 -43 -42 -77t-42.5 -63.5t-50.5 -57t-65 -56.5l-78 -61zM381 1217l53 217h109 l-54 -217h-108zM598 1217l53 217h111l-55 -217h-109z" />
<glyph unicode="&#x152;" horiz-adv-x="1380" d="M84 342q0 96 18 191t41 188q22 88 47.5 175.5t60 166.5t81 147t110.5 118t149 78t197 28h756l-26 -107h-498q38 -48 55 -109.5t17 -121.5q0 -76 -12.5 -150.5t-30.5 -148.5h321l-27 -109h-319q-19 -75 -44.5 -157.5t-60.5 -161t-82.5 -147t-111.5 -116.5h489l-26 -106 h-758q-170 0 -258 85.5t-88 256.5zM233 354q0 -51 12 -96t36.5 -78t62.5 -52t90 -19q73 0 130.5 30.5t102.5 80.5t78.5 114.5t59 133t44 136t32.5 123.5q21 88 40 178.5t19 181.5q0 52 -11.5 95.5t-36.5 75t-63 49.5t-90 18q-74 0 -131.5 -29t-102.5 -77t-78 -110.5 t-58 -129t-42.5 -132.5t-31.5 -122q-23 -91 -42.5 -184t-19.5 -187z" />
<glyph unicode="&#x153;" horiz-adv-x="1350" d="M31 238q0 74 13 146.5t30 143.5q16 64 35 130t45 127.5t61.5 115t84.5 94t113 63.5t148 23q97 0 162 -43t84 -131q68 79 153.5 126.5t184.5 47.5q48 0 89.5 -15t72 -43t48 -66.5t17.5 -86.5q0 -66 -27.5 -123.5t-74.5 -104.5t-108.5 -85t-130 -65.5t-139.5 -45.5 t-136 -26q-6 -68 5 -130t40.5 -108.5t79.5 -74t123 -27.5q38 0 71 5t57 11.5t38 11.5l14 5l-27 -105l-13.5 -5t-37.5 -11.5t-57.5 -11.5t-73.5 -5q-62 0 -114.5 15.5t-94 44t-71.5 68t-48 87.5q-27 -45 -61.5 -84t-78.5 -68.5t-99.5 -46t-124.5 -16.5q-64 0 -111 18.5 t-78.5 52.5t-47 82.5t-15.5 109.5zM166 254q0 -37 6.5 -69t23 -56t44 -37.5t69.5 -13.5q53 0 95.5 21.5t75.5 57.5t57.5 83t43.5 97t32.5 100t23.5 93q17 66 31 134t14 137q0 39 -7.5 71.5t-25.5 56.5t-47.5 37t-73.5 13q-53 0 -94 -22t-73 -58.5t-55.5 -84t-41 -97 t-30.5 -98.5t-23 -89q-17 -68 -31 -137.5t-14 -138.5zM766 522q81 9 164 37.5t151 73.5t111 104.5t43 130.5q0 51 -29.5 81t-79.5 30q-46 0 -88.5 -21.5t-81 -57.5t-70.5 -83t-57 -97.5t-41.5 -102t-21.5 -95.5z" />
<glyph unicode="&#x178;" horiz-adv-x="901" d="M213 1280h156l102 -496q4 -21 7.5 -47t6 -48t3.5 -37l1 -15h9l9 16t22.5 39t29.5 48.5t29 43.5l334 496h143l-541 -764l-129 -516h-145l129 518zM535 1444l53 217h108l-53 -217h-108zM752 1444l55 217h108l-55 -217h-108z" />
<glyph unicode="&#x2c6;" horiz-adv-x="639" d="M225 1419v82l301 166l222 -166l-39 -82l-213 119z" />
<glyph unicode="&#x2dc;" horiz-adv-x="639" d="M197 1559l20 81l27.5 -10t81.5 -10q46 0 86.5 7.5t80.5 17t81 17t88 7.5q38 0 66.5 -10t47 -21.5t28.5 -21.5l9 -10l-18 -82l-27.5 11t-81.5 11q-46 0 -86.5 -8t-80.5 -17.5t-80.5 -17.5t-86.5 -8q-38 0 -67 10t-48.5 22t-29.5 22z" />
<glyph unicode="&#x2000;" horiz-adv-x="837" />
<glyph unicode="&#x2001;" horiz-adv-x="1675" />
<glyph unicode="&#x2002;" horiz-adv-x="837" />
<glyph unicode="&#x2003;" horiz-adv-x="1675" />
<glyph unicode="&#x2004;" horiz-adv-x="558" />
<glyph unicode="&#x2005;" horiz-adv-x="418" />
<glyph unicode="&#x2006;" horiz-adv-x="279" />
<glyph unicode="&#x2007;" horiz-adv-x="279" />
<glyph unicode="&#x2008;" horiz-adv-x="209" />
<glyph unicode="&#x2009;" horiz-adv-x="335" />
<glyph unicode="&#x200a;" horiz-adv-x="93" />
<glyph unicode="&#x2010;" horiz-adv-x="637" d="M66 489l14 101h489l-12 -101h-491z" />
<glyph unicode="&#x2011;" horiz-adv-x="637" d="M66 489l14 101h489l-12 -101h-491z" />
<glyph unicode="&#x2012;" horiz-adv-x="637" d="M66 489l14 101h489l-12 -101h-491z" />
<glyph unicode="&#x2013;" horiz-adv-x="909" d="M66 489l14 101h762l-13 -101h-763z" />
<glyph unicode="&#x2014;" horiz-adv-x="1190" d="M70 489l12 101h1040l-12 -101h-1040z" />
<glyph unicode="&#x2018;" horiz-adv-x="348" d="M68 956l10 82q8 69 17 112.5t22.5 78t33.5 67t52 78.5l63 94l72 -57q-38 -62 -60 -103.5t-34.5 -79.5t-20 -81t-14.5 -107l-10 -84h-131z" />
<glyph unicode="&#x2019;" horiz-adv-x="348" d="M10 979q25 41 43 73t31 59t21 51.5t14 52t10.5 60t9.5 75.5l11 84h133l-11 -80q-8 -69 -17 -113.5t-22.5 -79t-34 -67t-51.5 -78.5l-63 -94z" />
<glyph unicode="&#x201a;" horiz-adv-x="350" d="M12 -238q25 41 43 73t31 59t21 51.5t14 52t10.5 60t9.5 75.5l11 84h133l-11 -82q-8 -68 -17 -112t-22.5 -79t-33.5 -68t-51 -79l-64 -92z" />
<glyph unicode="&#x201c;" horiz-adv-x="612" d="M68 956l10 82q8 69 17 112.5t22.5 78t33.5 67t52 78.5l63 94l72 -57q-38 -62 -60 -103.5t-34.5 -79.5t-20 -81t-14.5 -107l-10 -84h-131zM328 956l10 82q8 69 17 112.5t22.5 78t33.5 67t52 78.5l63 94l74 -57q-25 -42 -43 -73.5t-30.5 -58.5t-20.5 -51.5t-14 -52t-11 -60 t-10 -75.5l-10 -84h-133z" />
<glyph unicode="&#x201d;" horiz-adv-x="612" d="M12 979q25 41 43 73t31 59t21 51.5t14 52t10.5 60t9.5 75.5l11 84h133l-11 -80q-8 -69 -17 -113.5t-22.5 -79t-33.5 -67t-51 -78.5l-64 -94zM274 979q25 41 43 73t31 59t21 51.5t14 52t10.5 60t9.5 75.5l11 84h133l-10 -80q-9 -69 -18 -113.5t-22.5 -79t-34.5 -67 t-52 -78.5l-64 -94z" />
<glyph unicode="&#x201e;" horiz-adv-x="612" d="M12 -238q25 41 43 73t31 59t21 51.5t14 52t10.5 60t9.5 75.5l11 84h133l-11 -82q-8 -68 -17 -112t-22.5 -79t-33.5 -68t-51 -79l-64 -92zM274 -238q25 41 43 73t31 59t21 51.5t14 52t10.5 60t9.5 75.5l11 84h133l-10 -82q-9 -68 -18 -112t-22.5 -79t-34.5 -68t-52 -79 l-64 -92z" />
<glyph unicode="&#x2022;" horiz-adv-x="453" d="M39 811q0 66 8.5 116t30 84t58 51t91.5 17t91.5 -17t57.5 -51t29.5 -84t8.5 -116q0 -65 -8.5 -115.5t-30.5 -85t-58.5 -52t-91.5 -17.5q-56 0 -92 17.5t-57 52t-29 85t-8 115.5z" />
<glyph unicode="&#x2026;" horiz-adv-x="846" d="M92 0l29 217h131l-27 -217h-133zM356 0l27 217h131l-27 -217h-131zM616 0l27 217h131l-26 -217h-132z" />
<glyph unicode="&#x202f;" horiz-adv-x="335" />
<glyph unicode="&#x2039;" horiz-adv-x="508" d="M59 686l291 381l111 -20l-238 -361l150 -358l-105 -23z" />
<glyph unicode="&#x203a;" horiz-adv-x="508" d="M45 326l238 360l-150 358l113 23l209 -381l-291 -381z" />
<glyph unicode="&#x205f;" horiz-adv-x="418" />
<glyph unicode="&#x20ac;" d="M23 422l12 98h661l-12 -98h-389q0 -64 8.5 -124.5t30.5 -107.5t60.5 -75.5t97.5 -28.5q40 0 72 11t54.5 24t35.5 24l12 11l26 -88l-15 -14.5t-44 -32t-71.5 -32t-96.5 -14.5q-88 0 -147.5 37t-96 99.5t-52 143t-13.5 167.5h-133zM45 616l12 101h146q23 78 57.5 145 t83.5 115.5t114.5 76t149.5 27.5q47 0 84.5 -9.5t55.5 -18t20 -9.5l-10 -104q-2 1 -17 9t-48 17t-75 9q-59 0 -104 -20.5t-78.5 -55.5t-57 -82t-38.5 -100h381l-12 -101h-664z" />
<glyph unicode="&#x2122;" horiz-adv-x="1092" d="M66 1016q0 120 34.5 204t98 137.5t153 78t199.5 24.5q108 0 196 -24.5t150 -78t95.5 -137.5t33.5 -204q0 -119 -34 -204t-97 -139t-152 -79t-198 -25t-197.5 25t-151 79t-96.5 139t-34 204zM150 1018q0 -102 27.5 -176t79 -121t125 -69.5t165.5 -22.5q91 0 164.5 22.5 t124.5 69.5t78.5 121t27.5 176q0 103 -27 175t-78 118t-124.5 67t-165.5 21t-165.5 -22.5t-125 -69.5t-79 -119t-27.5 -170zM260 1188l8 57h203l-6 -57h-62l-51 -412h-80l50 412h-62zM449 776l57 469h106l33 -231l88 231h109l-60 -469h-80l52 357l-97 -232h-73l-35 232 l-41 -357h-59z" />
<glyph unicode="&#x25fc;" horiz-adv-x="1085" d="M0 0v1085h1085v-1085h-1085z" />
<glyph unicode="&#xfb01;" horiz-adv-x="922" d="M-147 -420q28 38 48.5 67.5t35.5 54.5t26 48.5t20.5 50.5t18.5 61t21 79l251 1011h-137l25 105h139l55 225q39 151 125 227t228 76q18 0 29 -1l12 -1l-9 -100q-43 3 -81 -4t-69.5 -30t-56.5 -64.5t-42 -108.5l-56 -219h471l-262 -1057h-133l238 952h-338l-252 -1011 q-15 -62 -27 -106t-27.5 -81t-39.5 -71.5t-64 -77.5l-82 -90zM817 1217l53 217h131l-53 -217h-131z" />
<glyph unicode="&#xfb02;" horiz-adv-x="942" d="M-150 -422q29 40 49.5 69t36 53.5t26.5 47.5t20.5 50t19 61t21.5 82l251 1011h-139l27 105h137l51 203q22 86 53.5 147.5t79 101t113 58t154.5 18.5q46 0 98 -4.5t95.5 -10t72 -10l28.5 -4.5l-290 -1163q-16 -64 -25.5 -106t-12.5 -79t2 -76.5t17 -98.5l-92 -66l-33 90 q-14 39 -19 73.5t-3 73t11 84t24 105.5l270 1080l-14.5 2t-37 4t-50 4t-54.5 2q-62 0 -104 -14.5t-70 -44.5t-46.5 -75t-33.5 -106l-47 -188h158l-27 -105h-157l-252 -1011q-15 -62 -26 -104t-26 -77.5t-38.5 -71t-65.5 -83.5l-78 -90z" />
</font>
</defs>
</svg>
