<?xml version="1.0" standalone="no"?>
<!DOCTYPE svg PUBLIC "-//W3C//DTD SVG 1.1//EN" "http://www.w3.org/Graphics/SVG/1.1/DTD/svg11.dtd" >
<svg xmlns="http://www.w3.org/2000/svg" xmlns:xlink="http://www.w3.org/1999/xlink" version="1.1">
<metadata></metadata>
<defs>
<font id="aenor_fontana_nd_semicondenRg" horiz-adv-x="899" >
<font-face units-per-em="2048" ascent="1585" descent="-463" />
<missing-glyph horiz-adv-x="395" />
<glyph horiz-adv-x="0" />
<glyph unicode="&#xd;" horiz-adv-x="1024" />
<glyph unicode=" "  horiz-adv-x="395" />
<glyph unicode="&#x09;" horiz-adv-x="395" />
<glyph unicode="&#xa0;" horiz-adv-x="395" />
<glyph unicode="!" horiz-adv-x="496" d="M66 0l36 217h156l-20 -217h-172zM125 381l111 1053h184l-146 -1053h-149z" />
<glyph unicode="&#x22;" horiz-adv-x="688" d="M88 944l59 490h164l-71 -490h-152zM379 944l59 490h162l-70 -490h-151z" />
<glyph unicode="#" d="M25 256l12 119h141l39 325h-137l14 117h139l29 240h160l-31 -240h182l29 240h160l-31 -240h143l-16 -117h-139l-39 -325h141l-12 -119h-143l-31 -256h-158l33 256h-186l-31 -256h-158l33 256h-143zM338 369h186l41 336h-188z" />
<glyph unicode="$" d="M78 78l65 110q20 -18 45.5 -33t52.5 -26t55 -17t54 -6q40 0 77 12.5t65 36.5t44.5 58t16.5 76q0 51 -27.5 86t-68.5 63.5t-89.5 56t-89.5 62t-68.5 81.5t-27.5 116q0 60 19 111.5t53.5 92t81.5 68.5t104 43l45 365h164l-49 -353q16 -1 37.5 -4t45 -7.5t45.5 -11t40 -14.5 l-16 -126q-39 15 -88 26.5t-93 11.5q-40 0 -79.5 -9.5t-71 -30.5t-51 -54t-19.5 -80q0 -48 27.5 -81t68.5 -61t88.5 -55t88.5 -62t68.5 -82.5t27.5 -116.5q0 -62 -20 -116t-56 -97t-85.5 -73.5t-108.5 -45.5l-46 -373h-163l51 361q-27 2 -57 10t-58.5 20.5t-54 29.5 t-43.5 38z" />
<glyph unicode="%" horiz-adv-x="1188" d="M60 655q-2 56 6 121q8 64 24 119.5t44.5 95.5t72 63t108.5 23q64 0 101.5 -23t54.5 -63t18 -95.5t-8 -119.5q-8 -65 -22.5 -121t-42 -97t-71 -65t-107.5 -24q-65 0 -102.5 24t-55.5 65t-20 97zM157.5 702.5q2.5 -33.5 13.5 -57.5t31 -37.5t52 -13.5q31 0 54.5 14t40 38.5 t26 58t14.5 73.5t4 72.5t-11.5 55.5t-30.5 35.5t-52 12.5q-62 0 -96 -48.5t-43 -129.5q-5 -40 -2.5 -73.5zM426 -381l201 1661h125l-203 -1661h-123zM696 164q-2 56 6 121q9 64 24.5 119.5t43.5 96.5t71.5 64t108.5 23q64 0 102 -23t56 -64t19.5 -96.5t-7.5 -119.5 q-8 -65 -23 -121t-43 -97.5t-71.5 -65.5t-108.5 -24t-102.5 24t-55.5 65.5t-20 97.5zM793.5 211.5q2.5 -33.5 13.5 -58t31.5 -38t52.5 -13.5q31 0 55 13.5t40.5 38t26.5 58.5t15 75q5 40 3 72.5t-12.5 55.5t-31 35.5t-51.5 12.5q-63 0 -96.5 -50t-42.5 -128 q-6 -40 -3.5 -73.5z" />
<glyph unicode="&#x26;" horiz-adv-x="1204" d="M68 389q0 78 21 140.5t54 109t74.5 76.5t83.5 43q-39 15 -73.5 43.5t-60 68.5t-40 91.5t-14.5 113.5q0 94 35 165.5t96 120t143 73t176 24.5q36 0 66.5 -3.5t53 -7.5t35.5 -7l13 -4v-136q-2 1 -18.5 6.5t-53.5 12t-86 6.5q-61 0 -111 -16.5t-85 -48t-54.5 -79 t-19.5 -108.5q0 -65 19.5 -113t55.5 -80.5t87 -48.5t115 -16h264v242l182 49v-293h158v-133h-158v-336q0 -48 1 -81.5t8 -65t21.5 -69.5t41.5 -95l-125 -66l-58 90q-26 41 -40.5 69.5t-21 58t-8 66t-1.5 93.5v334h-271q-72 0 -130 -17.5t-99.5 -53t-63.5 -89t-22 -125.5 q0 -67 19.5 -119.5t56.5 -88.5t90 -55t121 -19q41 0 75.5 5.5t59 11.5t38.5 12l13 5v-139l-13.5 -5t-40.5 -10.5t-67 -10.5t-92 -5q-99 0 -181.5 27.5t-142.5 80.5t-93 130t-33 176z" />
<glyph unicode="'" horiz-adv-x="399" d="M88 944l59 490h164l-71 -490h-152z" />
<glyph unicode="(" horiz-adv-x="571" d="M95.5 -90.5q-3.5 54.5 4.5 123.5l117 960q9 68 26 122t40.5 101t52.5 90.5t61 90.5l64 90l106 -64q-38 -62 -68.5 -113.5t-54.5 -101t-40 -101t-23 -114.5l-119 -960q-8 -63 -6 -115t11.5 -101.5t26.5 -101.5t40 -114l-113 -64l-41 90q-21 47 -39 90.5t-30 90.5 t-15.5 101.5z" />
<glyph unicode=")" horiz-adv-x="571" d="M2 -399q38 62 69.5 114t55.5 101.5t39.5 101.5t23.5 115l117 960q8 63 6.5 114.5t-10.5 101t-25 101t-38 113.5l110 64l41 -90q22 -47 40.5 -90.5t30 -90.5t15 -101t-5.5 -122l-119 -960q-8 -69 -24.5 -123.5t-39.5 -101.5t-52 -90.5t-62 -90.5l-61 -90z" />
<glyph unicode="*" horiz-adv-x="854" d="M59 1071q39 30 64.5 47.5t53 29.5t65 22.5t102.5 25.5q-23 44 -38 70t-31.5 45t-38.5 36.5t-58 43.5l78 82q41 -27 65 -45t44 -40.5t42 -57t58 -93.5q34 37 54 60t33 44.5t23 48t23 70.5l102 -47q-8 -32 -15 -55t-14.5 -41.5t-17.5 -35.5t-24.5 -36.5t-36 -44.5 t-51.5 -59q44 -23 71.5 -35t52 -18t52 -6.5t71.5 1.5l-10 -112q-47 -3 -77 -3t-60 6t-68 20.5t-102 41.5q-6 -49 -8.5 -79.5t-0.5 -55.5t9 -52t21 -69l-109 -22q-11 30 -18.5 52.5t-12 42t-6.5 39t-2 43.5q0 25 1.5 57t4.5 77q-49 -9 -78.5 -16t-52 -16.5t-45.5 -24.5 t-59 -41z" />
<glyph unicode="+" d="M41 479l14 123h318l49 377h162l-45 -379h317l-14 -123l-320 2l-51 -403l-166 -2l51 405h-315z" />
<glyph unicode="," horiz-adv-x="297" d="M-49 -231q25 41 43 72t30.5 57.5t20.5 50t14 50.5t11 59t10 75l10 84h164l-10 -82q-9 -68 -16.5 -112.5t-20 -80t-32.5 -68t-54 -77.5l-64 -82z" />
<glyph unicode="-" horiz-adv-x="637" d="M68 475l12 123h489l-14 -123h-487z" />
<glyph unicode="." horiz-adv-x="322" d="M78 0l26 217h162l-26 -217h-162z" />
<glyph unicode="/" horiz-adv-x="483" d="M78 -381l203 1661h125l-203 -1661h-125z" />
<glyph unicode="0" d="M88 528q0 114 15 214.5t55 175.5t111 119t182 44q112 0 182.5 -44t110 -119t53.5 -175.5t14 -214.5t-15.5 -214.5t-56.5 -176.5t-112.5 -120t-182.5 -44t-180.5 44t-108.5 120t-53 176.5t-14 214.5zM211 530q0 -80 7.5 -150.5t32.5 -123.5t72 -84t126 -31q80 0 128 31.5 t73.5 85t33.5 124.5t8 150t-9 148t-36 120.5t-76 81t-129 29.5q-79 0 -125 -30t-69.5 -81.5t-30 -121t-6.5 -148.5z" />
<glyph unicode="1" d="M78 911l483 191v-977h260v-125h-733v125h311v778l-268 -141z" />
<glyph unicode="2" d="M74 0q55 56 115.5 114t119 117.5t111.5 120.5t93 122.5t63.5 123.5t23.5 125q0 62 -20 106.5t-54.5 72.5t-81 41t-98.5 13q-40 0 -79 -7.5t-69.5 -17t-49.5 -17l-19 -7.5v127l21.5 7.5t56 16t78 16t88.5 7.5q79 0 151 -21t126.5 -65.5t87 -113t32.5 -162.5 q0 -90 -32 -171t-83.5 -154.5t-116 -140.5t-128.5 -128h401v-125h-737z" />
<glyph unicode="3" d="M63 -291q2 0 31 2t79.5 10.5t109 24.5t119 43.5t109 68.5t79.5 99t31 135q0 82 -31.5 132t-78.5 76.5t-102 35.5t-102 8.5t-79 -5.5l-31 -5v127l28.5 3.5t71.5 13.5t92.5 29.5t92.5 51t71.5 78t28.5 111.5q0 59 -22.5 98.5t-59.5 63.5t-84.5 34t-96.5 10q-44 0 -85 -7.5 t-72.5 -16t-50.5 -16.5l-19 -7v127l22.5 7.5t58.5 16t80 16t87 7.5q85 0 159 -20t128.5 -61t86 -103.5t31.5 -148.5q0 -71 -23 -125.5t-55 -91t-65.5 -60t-54.5 -33t-23 -10.5q2 0 27 -6.5t64.5 -27t77 -57.5t64.5 -97.5t27 -147.5q0 -102 -37 -178.5t-95.5 -130t-130.5 -89 t-142.5 -55.5t-131 -30t-95.5 -12.5t-37 -2.5z" />
<glyph unicode="4" d="M100 0v127q-1 70 1.5 121.5t11.5 98t27 93t50 105.5l289 536l162 -49l-317 -590q-24 -44 -36.5 -79t-18.5 -70t-6.5 -74.5t-0.5 -93.5h356v364h162v-870h-162v381h-518z" />
<glyph unicode="5" d="M100 -289l39 5t98 20.5t127.5 44.5t127.5 77.5t98 119t39 169.5q0 79 -28 131t-72 83t-98.5 45.5t-107.5 17.5t-98.5 0t-72 -7.5t-27.5 -4.5l76 645h286q36 0 60.5 2.5t45.5 7.5t42 12.5t49 18.5l35 12l43 -104l-37 -19q-32 -15 -56.5 -26t-49 -18t-51.5 -10t-62 -3h-162 l-41 -377q1 0 27.5 1t71.5 -3.5t97 -17.5t106 -40t97.5 -72t71 -113.5t27.5 -164.5q0 -93 -28 -166t-73.5 -129t-104 -96.5t-119 -68.5t-119 -45.5t-104 -27t-73.5 -13l-28 -3.5z" />
<glyph unicode="6" d="M74 610q0 169 35 297.5t90 219t123 152t134.5 97.5t123.5 54.5t90 24t35 5.5l43 -108l-32.5 -7.5t-82 -28t-109 -57.5t-114 -95.5t-96.5 -141.5t-56 -197l15 4t40.5 9.5t59 9.5t69.5 4q100 0 175.5 -31t125.5 -88.5t75.5 -139t25.5 -181.5q0 -94 -24 -174t-71 -139 t-118.5 -92.5t-165.5 -33.5q-83 0 -144 24t-104.5 67t-71.5 102.5t-43.5 130t-21.5 150t-6 163.5zM237.5 565.5q-1.5 -69.5 4.5 -136t20 -126.5t40.5 -105.5t65.5 -72.5t95 -27q64 0 105 23.5t65 65t33.5 96.5t9.5 118q0 73 -14.5 133t-46 102.5t-81.5 65.5t-122 23 q-36 0 -66.5 -4t-53 -9.5t-35.5 -9.5l-13 -4q-5 -63 -6.5 -132.5z" />
<glyph unicode="7" d="M96 565v492h715q0 -69 0.5 -133.5t-4 -127t-15.5 -124t-34 -123.5l-352 -955l-162 48l358 960q18 47 27.5 85t14 75.5t5 78t0.5 91.5h-389v-367h-164z" />
<glyph unicode="8" d="M66 336q0 73 21.5 134t57 111.5t81.5 92.5t96 78q-44 35 -83 72t-68.5 79t-47 92.5t-17.5 112.5q0 77 26.5 141t74 110t112.5 71.5t142 25.5q73 0 134.5 -22.5t106.5 -64t70 -100.5t25 -132q0 -61 -14 -112t-41 -96.5t-66 -88.5t-88 -88q47 -36 91 -74t78.5 -83.5 t55.5 -100t21 -121.5q0 -89 -28 -162t-79.5 -125.5t-124.5 -81.5t-162 -29q-84 0 -153 25t-118 71.5t-76 113.5t-27 151zM213 344q0 -54 15.5 -98.5t44.5 -77t71 -50.5t96 -18q55 0 97 20t70.5 55.5t42.5 83t14 101.5q0 52 -21 96t-55 82.5t-78 73t-90 66.5 q-37 -32 -74 -66.5t-66.5 -74.5t-48 -87.5t-18.5 -105.5zM279 1116q0 -51 17.5 -91.5t46 -75t65.5 -63.5t75 -57q41 37 72 72t52 71.5t31.5 76t10.5 86.5q0 41 -13 77t-36.5 63t-57 42.5t-75.5 15.5q-47 0 -82 -16.5t-58.5 -46t-35.5 -69t-12 -85.5z" />
<glyph unicode="9" d="M57 641q0 94 24 174.5t71 139.5t118 92.5t166 33.5q124 0 201 -52.5t119 -141t56.5 -204t14.5 -241.5q0 -169 -35 -296.5t-90 -218t-123 -152.5t-134 -98t-123 -55t-90 -24.5t-35 -5.5l-43 109l32.5 7.5t82 28.5t108.5 58t113 95.5t95.5 141.5t55.5 197l-15 -4t-40 -9 t-58 -9t-69 -4q-100 0 -175 30.5t-125.5 87.5t-76 138t-25.5 182zM225 651q0 -72 14 -131.5t45.5 -102t82 -66t122.5 -23.5q36 0 66.5 4t53 9t35.5 9l13 4q5 64 6 133t-4.5 136t-20 127.5t-40 106t-65 72.5t-95.5 27q-64 0 -105 -24t-65 -65t-33.5 -96.5t-9.5 -119.5z" />
<glyph unicode=":" horiz-adv-x="426" d="M78 0l26 217h164l-26 -217h-164zM180 838l29 219h162l-27 -219h-164z" />
<glyph unicode=";" horiz-adv-x="426" d="M-35 -231q25 41 43 72t31 57.5t21 50t14 50.5t10.5 59t9.5 75l10 84h162l-10 -82q-9 -68 -17.5 -112t-21.5 -79t-33 -68t-51 -79l-61 -92zM180 838l29 219h162l-27 -219h-164z" />
<glyph unicode="&#x3c;" d="M74 455l20 176l760 344l-16 -160l-645 -270l579 -291l-18 -166z" />
<glyph unicode="=" d="M47 352l14 125h766l-14 -125h-766zM76 600l12 125h766l-14 -125h-764z" />
<glyph unicode="&#x3e;" d="M45 92l16 160l641 270l-575 291l18 166l676 -367l-18 -176z" />
<glyph unicode="?" horiz-adv-x="709" d="M18 1305l17 129l14.5 3.5t39 8t56 8.5t66.5 4q93 0 172 -25.5t136 -77t89.5 -129t32.5 -182.5q0 -93 -30.5 -185.5t-86 -180.5t-132.5 -170.5t-169 -157.5l-137 66q85 72 153.5 150.5t117 159.5t74.5 161.5t26 156.5q0 63 -15.5 115t-47.5 89.5t-81.5 58t-117.5 20.5 q-33 0 -65 -3.5t-57 -7.5t-40 -8zM66 0l34 217h154l-23 -217h-165z" />
<glyph unicode="@" horiz-adv-x="1704" d="M80 205q0 111 27.5 219t78.5 204.5t123 178t162 140.5t195 92.5t221 33.5q78 0 141 -16t107.5 -52t69 -93.5t24.5 -141.5q0 -68 -9 -136t-20 -135.5t-20 -135t-9 -136.5q0 -51 12 -99.5t29 -94.5l-110 -66l-80 158q-21 -36 -52.5 -64t-69 -47t-78.5 -29t-83 -10 q-59 0 -104.5 18t-77 51t-47.5 80t-16 105q0 86 22.5 150t62.5 109.5t94 77t116.5 53t131.5 36.5t138 29q3 25 4.5 50.5t1.5 49.5q0 51 -12.5 84t-37 52t-60.5 26.5t-83 7.5q-89 0 -172 -33t-154 -90t-127.5 -133t-92.5 -161q-34 -78 -51 -159.5t-17 -162.5q0 -113 33 -214 t97 -177.5t157.5 -121t214.5 -44.5q90 0 169 21t150 63q114 66 190.5 157.5t123 199.5t66.5 227.5t20 242.5q0 46 -6 88l155 33q6 -42 8 -83t2 -83q0 -137 -26 -264t-77 -237.5t-126.5 -202t-175 -156.5t-222.5 -101t-268 -36q-150 0 -272.5 50t-209.5 140t-134 214.5 t-47 273.5zM662 248q0 -60 33 -98.5t96 -38.5q56 0 95 22t65.5 58t42.5 82.5t25.5 96t14.5 98t10 89.5l-92 -22t-88.5 -25.5t-79.5 -35.5t-64 -52t-42.5 -73.5t-15.5 -100.5z" />
<glyph unicode="A" horiz-adv-x="1067" d="M33 0l393 1434h215l393 -1434h-198l-117 451h-420l-119 -451h-147zM336 588h350l-147 559q-6 20 -10.5 44t-8.5 45t-6 36l-2 14h-6l-2 -14q-3 -13 -7 -33.5t-9 -44.5t-11 -45z" />
<glyph unicode="B" horiz-adv-x="1075" d="M156 0v1434h426q89 0 161.5 -22.5t124 -67.5t79.5 -113.5t28 -159.5q0 -73 -19.5 -127t-46.5 -89.5t-55.5 -57.5t-46.5 -30t-19 -9q2 0 23 -8.5t55 -31.5t66 -62t55 -101.5t23 -148.5q0 -102 -28.5 -178.5t-83 -127t-134 -75.5t-182.5 -25h-426zM340 135h190 q147 0 221 68.5t74 214.5q0 67 -21.5 116.5t-61 81t-95.5 47t-125 15.5h-182v-543zM340 813h182q133 0 199.5 61.5t66.5 192.5q0 61 -18 105t-52 72t-82.5 41t-109.5 13h-186v-485z" />
<glyph unicode="C" horiz-adv-x="895" d="M80 725q0 159 24.5 293.5t86 232t165 152.5t262.5 55q49 0 92 -6.5t75.5 -15t51.5 -14.5l19 -7v-139l-18 8q-17 7 -47.5 15.5t-71.5 16t-88 7.5q-112 0 -183 -44.5t-111 -124t-54.5 -189.5t-14.5 -242q0 -120 15.5 -230t53.5 -194t103 -134t164 -50q58 0 100.5 16 t70.5 35t42 35l14 16l60 -121l-18 -19q-18 -19 -55.5 -42.5t-96 -42.5t-139.5 -19q-96 0 -170.5 29t-130.5 80t-94.5 121.5t-62 154.5t-34 177t-10.5 190z" />
<glyph unicode="D" horiz-adv-x="1143" d="M156 0v1434h350q155 0 261.5 -50t172 -140.5t94.5 -218t29 -282.5v-2q0 -161 -27 -296.5t-91.5 -234.5t-172 -154.5t-268.5 -55.5h-348zM340 135h137q125 0 203 48t121 130t58 192t15 234v2q0 123 -16.5 225.5t-61.5 176t-124 114.5t-203 41h-129v-1163z" />
<glyph unicode="E" horiz-adv-x="881" d="M156 0v1434h671v-136h-487v-487h457v-135h-457v-541h487v-135h-671z" />
<glyph unicode="F" horiz-adv-x="850" d="M156 0v1434h649v-136h-465v-487h434v-135h-434v-676h-184z" />
<glyph unicode="G" horiz-adv-x="1104" d="M80 729q0 163 32 297.5t102.5 230.5t184 148.5t277.5 52.5q51 0 99 -7t84.5 -15.5t58.5 -15.5l22 -7v-137l-21.5 7.5t-57.5 16t-83 16t-98 7.5q-122 0 -202 -47.5t-126.5 -129t-65 -190t-18.5 -229.5q0 -72 7 -146t24 -142.5t44.5 -128t68 -104t96 -70t127.5 -25.5 q45 0 76 4.5t50.5 9.5t28.5 9.5l9 4.5v484h-238v137h420v-699l-24.5 -14t-70 -30.5t-110 -30t-143.5 -13.5q-150 0 -255 61t-171.5 165t-96.5 241t-30 289z" />
<glyph unicode="H" horiz-adv-x="1128" d="M156 0v1434h184v-623h448v623h185v-1434h-185v676h-448v-676h-184z" />
<glyph unicode="I" horiz-adv-x="496" d="M158 0v1434h182v-1434h-182z" />
<glyph unicode="J" horiz-adv-x="582" d="M23 1298v136h403v-1229q0 -72 -3.5 -127.5t-10 -101.5t-17.5 -85.5t-27.5 -80t-39 -85t-52.5 -100.5q0 -1 -10 -19.5t-21.5 -40.5t-21.5 -40.5l-10 -18.5l-115 70q34 76 58 133t40 103t25.5 87t14.5 85t6.5 96t1.5 121v1097h-221z" />
<glyph unicode="K" horiz-adv-x="1053" d="M156 0v1434h184v-627q59 23 102.5 45.5t76 49t58 59.5t48.5 77l221 430l139 -98l-274 -496l331 -874h-202l-273 754l-227 -90v-664h-184z" />
<glyph unicode="L" horiz-adv-x="762" d="M156 0v1434h184v-1299h399v-135h-583z" />
<glyph unicode="M" horiz-adv-x="1417" d="M156 0v1434h225l285 -744q7 -20 15 -43.5t14 -44t10 -34.5l4 -13h8l4 13q4 14 10.5 34.5t14.5 44t16 43.5l280 744h220v-1434h-181l13 1071q0 21 2 46.5t4 47.5t4 37l2 15h-10l-4 -15q-5 -15 -12 -37t-14.5 -47t-14.5 -45l-260 -694h-187l-266 708q-7 18 -15 41t-14.5 43 t-10.5 34l-5 14h-8l1 -15q2 -15 4 -36.5t4 -45t3 -39.5l10 -1083h-151z" />
<glyph unicode="N" horiz-adv-x="1126" d="M156 0v1434h235l400 -1067q7 -20 15 -43t15 -43.5t11 -34.5l4 -13h8l-1 13l-2.5 32.5t-2.5 43t-2 45.5l-17 1067h152v-1434h-238l-397 1071q-8 21 -16 44.5t-14 43.5q-7 19 -11 33l-4 14h-10l1 -13q2 -13 3.5 -33t3 -44t2.5 -45l14 -1071h-149z" />
<glyph unicode="O" horiz-adv-x="1114" d="M80 721q0 97 8.5 189.5t29 175t55 151t87.5 118.5t126.5 77.5t170.5 27.5q98 0 171 -27.5t126 -77.5t88 -118.5t55.5 -151t28.5 -175t8 -189.5q0 -99 -8 -192.5t-28.5 -176.5t-55.5 -152t-88 -119t-126 -78t-171 -28q-97 0 -170.5 27.5t-126.5 77.5t-87.5 119t-55 152 t-29 177t-8.5 193zM264 725q0 -69 3.5 -141t14 -140t30.5 -128.5t52.5 -105.5t79.5 -71t113 -26t113.5 26t80 71t52 105.5t30 128.5t14 140.5t3.5 142.5q0 64 -3.5 133.5t-14 135.5t-30.5 125.5t-52.5 104.5t-80 71t-112.5 26q-66 0 -113 -26t-79.5 -71t-52.5 -104.5 t-30.5 -126t-14 -136t-3.5 -134.5z" />
<glyph unicode="P" horiz-adv-x="997" d="M156 0v1434h323q108 0 194 -22.5t146 -71.5t91.5 -126t31.5 -186q0 -100 -33 -176t-91.5 -127.5t-137.5 -77.5t-170 -26h-170v-621h-184zM340 758h106q75 0 132.5 15.5t96.5 49.5t59 87t20 128q0 71 -21.5 120.5t-61 80.5t-96.5 45t-129 14h-106v-540z" />
<glyph unicode="Q" horiz-adv-x="1096" d="M66 903q0 120 29 221.5t87.5 176t147.5 116t209 41.5q133 0 224.5 -46.5t147.5 -129t80.5 -196.5t24.5 -248q0 -160 -34.5 -277.5t-86.5 -201.5t-112.5 -137t-112.5 -83t-86.5 -41.5l-34.5 -11.5v-4q73 -5 147 -18.5t134 -27t97.5 -24l37.5 -10.5l-64 -156l-26 10t-71 26 t-106.5 34.5t-133 35.5t-149 30t-155.5 18v135q135 0 241 58t179 155.5t111 224t38 263.5q0 58 -5 117t-17 113.5t-33 101.5t-52.5 82t-75.5 55t-103 20q-82 0 -137.5 -36.5t-89 -96t-48 -135.5t-14.5 -154q0 -81 14.5 -153t48.5 -126t89.5 -86t136.5 -32l-51 -131 q-111 0 -191 41.5t-132.5 113.5t-77.5 168t-25 205z" />
<glyph unicode="R" horiz-adv-x="1055" d="M156 0v1434h366q96 0 175.5 -21t136.5 -65.5t88.5 -113.5t31.5 -165q0 -81 -22.5 -139.5t-53.5 -94.5t-63.5 -57.5t-53 -29t-22.5 -7.5q42 -19 67.5 -43.5t44 -60t34 -85t35.5 -118.5l112 -393l-178 -76l-135 520q-15 58 -40 95.5t-59.5 59.5t-78.5 30t-97 8h-104v-678 h-184zM340 813h154q133 0 202.5 61.5t69.5 192.5q0 63 -19.5 107t-55 71.5t-86 40t-113.5 12.5h-152v-485z" />
<glyph unicode="S" horiz-adv-x="844" d="M43 96l57 121l18 -17q18 -16 51.5 -36t80.5 -36.5t104 -16.5q56 0 101.5 16t77.5 46.5t49.5 74.5t17.5 100q0 62 -23 107.5t-60.5 82t-85.5 67.5t-98 63t-98 68.5t-85.5 85t-60.5 111.5t-23 148q0 88 32.5 158t89.5 119t133.5 74.5t163.5 25.5q60 0 107 -7t79 -15.5 t49 -15.5l17 -7v-139l-16 8q-16 7 -45.5 16.5t-70.5 17t-91 7.5q-56 0 -103 -15t-81.5 -44t-54 -71.5t-19.5 -98.5q0 -62 23 -107t60.5 -81t85 -66.5t97.5 -62t97.5 -67.5t85 -84t60.5 -111t23 -148q0 -89 -32.5 -161.5t-88.5 -124t-132.5 -80t-163.5 -28.5q-83 0 -144.5 19 t-102.5 42.5t-51 33.5z" />
<glyph unicode="T" horiz-adv-x="799" d="M23 1298v136h753v-136h-284v-1298h-185v1298h-284z" />
<glyph unicode="U" horiz-adv-x="1124" d="M145 451v983h183v-973q0 -77 7.5 -141t31.5 -110.5t70 -72.5t124 -26t124.5 26t71 72.5t31.5 111t7 140.5v973h184v-983q0 -115 -20 -203.5t-68 -149t-128.5 -92t-201.5 -31.5q-116 0 -195.5 31t-128.5 91.5t-70.5 149t-21.5 204.5z" />
<glyph unicode="V" horiz-adv-x="987" d="M23 1434h190l270 -1096q6 -21 10 -44.5t7 -43.5t4 -34l2 -13h8l2 13q1 14 4 34t7 43.5t10 44.5l272 1096h158l-371 -1434h-203z" />
<glyph unicode="W" horiz-adv-x="1339" d="M23 1434h188l170 -1108q3 -21 5 -45t3 -45q1 -20 1 -34l1 -14h10l1 13q2 13 5 33t6.5 43.5t8.5 44.5l158 735h215l145 -738q4 -21 7.5 -45.5l6.5 -45.5q3 -20 5 -34l2 -14h10l1 14q0 15 1 37t3 47t5 46l174 1110h162l-248 -1434h-217l-158 729q-4 21 -7 44.5t-5 43.5 q-2 19 -4 33l-2 14h-10l-2 -14q-1 -13 -4 -33t-7 -43.5t-8 -44.5l-160 -729h-217z" />
<glyph unicode="X" horiz-adv-x="977" d="M29 0l352 743l-111 258q-22 49 -37.5 85t-29 64t-27.5 50t-31.5 43t-41 43t-56.5 51l74 131q70 -44 113.5 -77.5t73 -67.5t51.5 -75t49 -101l114 -256l242 543h162l-326 -691l148 -335q21 -48 35 -82t26.5 -59.5t25 -45.5t29.5 -39t41 -39.5t60 -48.5l-74 -131 q-48 28 -83 50.5t-60.5 43t-44 41.5t-34.5 45t-30.5 54t-32.5 69l-147 330l-266 -596h-164z" />
<glyph unicode="Y" horiz-adv-x="985" d="M23 1436h204l219 -523q9 -20 20 -46.5t20.5 -50.5t16.5 -41l7 -17h6l6.5 16.5t16 40.5t20 50.5t19.5 47.5l217 523h168l-379 -861v-575h-183v578z" />
<glyph unicode="Z" horiz-adv-x="874" d="M33 0v154l553 1142h-533v140h799l-621 -1299h220q46 0 78 0.5t56.5 3.5t46 9.5t46.5 18.5t57.5 29.5t79.5 43.5l47 -129q-54 -28 -90.5 -47.5t-65 -32t-54 -19.5t-56.5 -10t-73 -3.5t-103 -0.5h-387z" />
<glyph unicode="[" horiz-adv-x="666" d="M72 -432l231 1888h363l-17 -123h-194l-203 -1642h194l-14 -123h-360z" />
<glyph unicode="\" horiz-adv-x="483" d="M76 1280h125l205 -1661h-123z" />
<glyph unicode="]" horiz-adv-x="666" d="M2 -432l14 123h197l201 1642h-197l16 123h361l-232 -1888h-360z" />
<glyph unicode="^" d="M37 256l414 801h180l215 -801h-180l-162 625l-322 -625h-145z" />
<glyph unicode="_" horiz-adv-x="854" d="M25 -455l14 121h790l-14 -121h-790z" />
<glyph unicode="`" horiz-adv-x="645" d="M115 1495v170l430 -164l-33 -92z" />
<glyph unicode="a" horiz-adv-x="868" d="M45 285q0 78 22.5 134t62 96t91.5 67t111.5 45t123 31t124.5 26q0 67 -11 117.5t-39 84.5t-75.5 51t-120.5 17q-34 0 -71.5 -5.5t-69 -12.5t-51.5 -12l-21 -6v126l22 6t57.5 12.5t79.5 12.5t89 6q104 0 176 -29t116.5 -82t64 -127t19.5 -165v-336q0 -48 1 -80.5t7.5 -64 t21 -69t40.5 -95.5l-104 -66l-99 158q-8 -18 -29 -44t-55 -49.5t-81.5 -40t-108.5 -16.5q-66 0 -120 22t-92.5 62.5t-59.5 97.5t-21 128zM213 279q0 -35 11 -65.5t31.5 -53.5t50 -36t67.5 -13q54 0 93 23t65 61.5t38.5 88t12.5 103.5v170q-86 -21 -154.5 -39.5t-116 -47 t-73 -73.5t-25.5 -118z" />
<glyph unicode="b" horiz-adv-x="930" d="M133 0v1583h164v-534q2 1 20.5 8t57 15.5t86.5 8.5q97 0 172 -39.5t126.5 -114t78 -181t26.5 -240.5q0 -126 -24.5 -224.5t-70.5 -167t-112.5 -104t-150.5 -35.5q-70 0 -117.5 23.5t-76.5 51.5q-30 28 -42 52l-12 23l-70 -125h-55zM297 420q0 -85 14 -145.5t40 -98.5 t62 -56t81 -18q50 0 88 29t64 83t39 130t13 170q0 88 -13 168t-44.5 141t-83 97t-129.5 36q-46 0 -75.5 -9.5t-55.5 -18.5v-508z" />
<glyph unicode="c" horiz-adv-x="684" d="M66 541q0 119 22.5 218t71.5 170.5t126.5 111.5t188.5 40q35 0 66 -6t53.5 -12.5t35.5 -12.5l13 -6v-122q-2 1 -17 8t-48.5 15.5t-75.5 8.5q-78 0 -129 -34.5t-81 -93t-42 -136.5t-12 -164q0 -68 11.5 -143t39 -137.5t73.5 -103t115 -40.5q37 0 66 10.5t49 23.5t30 24 l11 10l41 -102l-13 -14q-13 -15 -41 -32.5t-72 -32t-106 -14.5q-101 0 -172 46.5t-116.5 124.5t-66.5 180.5t-21 214.5z" />
<glyph unicode="d" horiz-adv-x="942" d="M66 506q0 134 27 240.5t78.5 181t127 114t172.5 39.5q37 0 67 -5t51.5 -11t33.5 -11l12 -5v534h162v-1241q0 -48 1.5 -80.5t8 -64t21 -69t40.5 -95.5l-104 -66l-92 154q0 -1 -7.5 -15t-25.5 -36.5t-46 -43.5t-70 -36t-97 -15q-85 0 -152 35.5t-113 104t-70.5 167 t-24.5 224.5zM233 514q0 -94 13 -170t38.5 -130t63.5 -83t88 -29q45 0 82 18t63 56t40 98.5t14 145.5v508l-10 4q-10 5 -27 10t-41.5 9.5t-52.5 4.5q-78 0 -130 -36t-83.5 -97t-44.5 -141t-13 -168z" />
<glyph unicode="e" horiz-adv-x="852" d="M66 545q0 117 21.5 215.5t67 170t116.5 111t171 39.5q113 0 182.5 -43t108 -118.5t51.5 -178t13 -221.5h-564q0 -46 6 -95t20.5 -95.5t38.5 -88.5t60 -73t85.5 -49.5t115.5 -18.5q39 0 73.5 4t60 9.5t40.5 9.5l15 4v-125l-13 -4t-38.5 -9.5t-63.5 -9.5t-88 -4 q-123 0 -213 42t-149.5 117.5t-88 180.5t-28.5 230zM236 647h393q0 55 -6 111t-25 100t-55 72t-97 28q-60 0 -100 -28.5t-64.5 -73t-35 -100t-10.5 -109.5z" />
<glyph unicode="f" horiz-adv-x="526" d="M35 932v125h137v227q0 67 13.5 115.5t35.5 82t50 54.5t58 32t58 15t51 4t37 -2l14 -2l52 -123q-13 0 -28 1t-32 1q-25 0 -51 -6.5t-47 -27.5t-34 -61t-13 -107v-203h156v-125h-156v-1041q0 -56 -1.5 -92.5t-8.5 -66t-22 -58.5t-42 -69l-55 -90l-105 63q26 59 40.5 97.5 t21 70t7.5 64.5t1 81v1041h-137z" />
<glyph unicode="g" horiz-adv-x="881" d="M66 657q0 103 26 179.5t75 127.5t118 76t155 25q52 0 85.5 -1t57.5 0t43 5t41.5 13t52.5 25t77 42l49 -115l-158 -106l14.5 -17t32.5 -51t32.5 -85t14.5 -118q0 -82 -18 -143.5t-48 -105.5t-68 -72t-77.5 -43.5t-78.5 -20.5q-24 -3 -44 -3q-13 0 -24 1v-143q19 2 40 2 q14 0 30 -1q39 -2 79 -11t78 -27.5t67.5 -49t47.5 -74t18 -103.5q0 -86 -38 -149.5t-101 -105.5t-143.5 -62.5t-165.5 -20.5q-51 0 -96.5 5t-79 10.5t-52.5 10.5l-20 5l25 120l17.5 -4t44.5 -9t60.5 -9t65.5 -4q65 0 122 12t99 37t66 64t24 92q0 41 -18 70t-48 47t-69.5 26 t-81.5 8q-30 0 -58.5 -2.5t-51 -5.5t-35.5 -6l-14 -2l63 299q-38 9 -79 34.5t-75 70t-56.5 109.5t-22.5 154zM236 666q0 -53 9.5 -102.5t31.5 -87.5t58.5 -61.5t90.5 -23.5q56 0 92.5 23t57.5 61t29.5 88t8.5 103q0 55 -8 105t-29 88t-58 60.5t-95 22.5q-53 0 -89 -23.5 t-58 -62t-31.5 -88t-9.5 -102.5z" />
<glyph unicode="h" horiz-adv-x="915" d="M133 0v1583h164v-622q13 13 35.5 33t54.5 38.5t73 31.5t91 13q74 0 123 -25t78 -69t41 -104.5t12 -130.5v-748h-164v729q0 48 -4.5 88.5t-18 69.5t-39 45t-67.5 16q-39 0 -72.5 -15.5t-61 -36.5t-48 -43.5t-33.5 -37.5v-815h-164z" />
<glyph unicode="i" horiz-adv-x="430" d="M133 0v1057h164v-1057h-164zM133 1217v217h164v-217h-164z" />
<glyph unicode="j" horiz-adv-x="465" d="M14 932v125h320v-1141q0 -65 -1 -106t-8 -72.5t-22 -61t-43 -71.5l-55 -90l-105 63q26 59 40.5 97.5t21 73t7.5 72t1 95.5v1016h-156zM170 1217v217h164v-217h-164z" />
<glyph unicode="k" horiz-adv-x="834" d="M133 0v1583h164v-926q41 13 67 24t44 25t31.5 33t29.5 49l166 302l131 -72l-207 -352l262 -666h-186l-199 569l-139 -51v-518h-164z" />
<glyph unicode="l" horiz-adv-x="442" d="M133 369v1214h164v-1216q0 -59 1.5 -99t8 -74.5t20.5 -71t40 -89.5l-105 -66l-55 90q-26 40 -41 70t-22.5 62.5t-9 74t-1.5 105.5z" />
<glyph unicode="m" horiz-adv-x="1399" d="M63 1022l105 63l96 -153q12 14 35.5 38.5t57 48t76.5 41t93 17.5q93 0 150.5 -39.5t83.5 -113.5q12 19 34 45.5t54 50.5t74.5 40.5t93.5 16.5q73 0 122.5 -23.5t80 -66t44 -101t13.5 -128.5v-758h-164v735q0 45 -4.5 84t-18 67t-39 44t-67.5 16q-35 0 -66.5 -16 t-57.5 -38t-45 -45t-28 -38v-809h-163v733q0 47 -4 86t-17.5 67.5t-39 44t-68.5 15.5q-35 0 -67 -16t-58 -38.5t-45 -45.5t-27 -37v-809h-164v715q0 46 -1 78t-7.5 63.5t-21 69t-40.5 96.5z" />
<glyph unicode="n" horiz-adv-x="926" d="M63 1022l105 63l96 -153q15 18 39.5 42.5t59 47.5t79 39t99.5 16q69 0 119 -22t82 -63.5t47.5 -99.5t15.5 -130v-762h-164v741q0 47 -5.5 85t-20 64.5t-40 41t-65.5 14.5q-41 0 -75.5 -15t-61.5 -36.5t-46 -44.5t-30 -39v-811h-164v715q0 46 -1 78t-7.5 63.5t-21 69 t-40.5 96.5z" />
<glyph unicode="o" horiz-adv-x="895" d="M66 528q0 118 18 219.5t62 175.5t118 116t185 42q112 0 185.5 -42t116.5 -116t60.5 -175.5t17.5 -219.5q0 -119 -18.5 -220.5t-63.5 -176t-119.5 -116.5t-185.5 -42t-184 42t-115.5 116.5t-59.5 176t-17 220.5zM229 530q0 -46 2.5 -96.5t10 -98.5t22.5 -91.5t39 -76.5 t59 -52t84 -19q51 0 87.5 19t61 51.5t39 76t22.5 92t10 99t2 98.5q0 46 -2.5 95.5t-10 97t-22.5 90t-40.5 74.5t-62 50.5t-88.5 18.5q-50 0 -85 -19t-59 -51.5t-37.5 -75.5t-20.5 -90.5t-9 -97t-2 -94.5z" />
<glyph unicode="p" horiz-adv-x="940" d="M76 1024l102 63l94 -151l12 22.5t40.5 50t75.5 50t116 22.5q85 0 152 -35.5t113.5 -103.5t71 -166.5t24.5 -224.5q0 -135 -27 -242t-79 -181.5t-127.5 -113.5t-172.5 -39q-37 0 -67 5t-51.5 10.5t-33.5 10.5l-12 5v-461h-162v1170q0 48 -1 80t-7.5 63.5t-20.5 69 t-40 96.5zM307 129l10 -4.5t27.5 -10t42 -10t53.5 -4.5q78 0 129.5 36t82.5 96.5t44 140.5t13 168q0 94 -13 170t-38.5 130t-63.5 83.5t-88 29.5q-45 0 -82 -17.5t-63 -56t-40 -98.5t-14 -145v-508z" />
<glyph unicode="q" horiz-adv-x="930" d="M63 551q0 126 24.5 224.5t71 166.5t113.5 103.5t152 35.5q55 0 97 -15.5t70.5 -37t47 -44t26 -37t7.5 -15.5l69 125h54v-1512h-162v461l-12 -5t-33.5 -10.5t-51.5 -10.5t-67 -5q-97 0 -172.5 39t-127.5 113.5t-79 181.5t-27 242zM231 541q0 -88 13 -168t44.5 -140.5 t83.5 -96.5t130 -36q45 0 75 9t56 20v508q0 85 -14 145t-40 98.5t-63 56t-82 17.5q-50 0 -88 -29.5t-63.5 -83.5t-38.5 -130t-13 -170z" />
<glyph unicode="r" horiz-adv-x="557" d="M76 1022l102 63l98 -153q40 58 80.5 88t76 42.5t63.5 13.5t43 1v-143q-20 1 -46.5 0.5t-57 -12t-63.5 -37.5t-65 -74v-811h-162v711q0 32 -0.5 56.5t-2 46t-6 42t-12 44.5t-19.5 53.5t-29 68.5z" />
<glyph unicode="s" horiz-adv-x="690" d="M35 76l51 110l17 -12q17 -13 46.5 -28t69 -27.5t84.5 -12.5q37 0 69.5 11t57 31.5t39 49.5t14.5 66q0 45 -18.5 78.5t-48.5 60t-68.5 48.5t-78.5 44.5t-78.5 49t-68.5 61t-48.5 80t-18.5 107.5q0 71 27 125.5t73 91t106.5 55t127.5 18.5q45 0 84.5 -6t68.5 -13.5 t46 -13.5l16 -6v-126l-16 6q-16 6 -42.5 13t-60 13t-67.5 6q-41 0 -77.5 -8.5t-64 -27.5t-43.5 -48t-16 -69q0 -56 31.5 -93t79.5 -67.5t103 -60t103 -69t79.5 -94.5t31.5 -138q0 -71 -26 -127.5t-72 -95.5t-107.5 -60t-132.5 -21q-65 0 -115.5 15.5t-85 34t-43.5 25.5z" />
<glyph unicode="t" horiz-adv-x="504" d="M23 932v125h139v215l162 49v-264h155v-125h-155v-588q0 -48 1 -81.5t7.5 -65t20.5 -69.5t40 -95l-102 -66l-58 90q-26 41 -40.5 69.5t-21 58t-8 66t-1.5 93.5v588h-139z" />
<glyph unicode="u" horiz-adv-x="915" d="M111 295v762h163v-742q0 -47 5.5 -85t20.5 -65t40.5 -41.5t65.5 -14.5t74 15t61 36t46.5 44t30.5 38v815h164v-1057h-53l-80 127q-13 -18 -37 -43.5t-58 -49t-79 -40.5t-100 -17q-70 0 -120 22.5t-82 64t-47 100.5t-15 131z" />
<glyph unicode="v" horiz-adv-x="786" d="M25 1057h172l176 -738q5 -21 9 -45t6 -44q3 -20 4 -34l1 -14l13 2l2 14q1 13 4 33t7 43.5t9 44.5l184 738h152l-281 -1057h-188z" />
<glyph unicode="w" horiz-adv-x="1298" d="M23 1057h176l151 -748q4 -21 8 -44.5t7 -43.5q3 -19 5 -33l1 -14h10l1 13l5 32.5t7 43t9 44.5l156 750h203l156 -748q4 -21 8 -44t7 -43t5 -33l2 -13h8l2 14q1 13 3.5 33.5t6.5 44.5t9 45l155 744h152l-242 -1057h-200l-162 758q-5 21 -8 44.5t-5 43.5t-3 34l-1 13h-12 l-1 -13q-2 -14 -4.5 -34t-5.5 -43.5t-7 -44.5l-160 -758h-199z" />
<glyph unicode="x" horiz-adv-x="774" d="M16 0l269 549l-99 205q-19 39 -34 67t-32 51.5t-39 45.5t-54 49l53 118q52 -32 88 -56.5t63 -49.5t47 -54.5t41 -70.5l91 -178l180 381h147l-250 -508l125 -270q19 -42 33 -69.5t30 -50t37 -43.5t56 -50l-55 -117q-62 33 -100 58t-62.5 50t-40.5 52t-33 65l-110 242 l-199 -416h-152z" />
<glyph unicode="y" horiz-adv-x="762" d="M25 1057h182l174 -615q5 -21 9.5 -45.5t8 -46.5t5.5 -36l2 -15h6l1.5 14.5t4.5 36.5t7 46.5t9 45.5l160 615h151l-333 -1229q-13 -48 -24.5 -81.5t-27 -61t-38.5 -54t-60 -59.5l-65 -59l-80 141q39 27 64 51t42.5 53.5t30 68t27.5 95.5l38 154z" />
<glyph unicode="z" horiz-adv-x="700" d="M23 0v113l407 819h-391v125h635l-465 -930h190q45 0 73 2t51.5 9.5t49.5 22t66 38.5l49 -113q-52 -31 -85.5 -48t-64.5 -25.5t-67.5 -10.5t-95.5 -2h-352z" />
<glyph unicode="{" horiz-adv-x="569" d="M55 514l70 92q37 51 52.5 105t23.5 114l18 168q9 68 26 122t40.5 101.5t52.5 91t61 89.5l64 90l102 -64q-38 -62 -67.5 -113.5t-52 -101t-37.5 -101t-23 -114.5l-23 -168q-4 -30 -9 -58.5t-13.5 -55.5t-21.5 -53.5t-33 -51.5l-72 -92l47 -84q22 -37 29 -98t-2 -135 l-21 -164q-8 -63 -5 -115t13.5 -101.5t28 -101.5t39.5 -114l-113 -64l-41 90q-21 46 -40 89.5t-32 91t-17.5 102t3.5 123.5l21 164q8 60 5 116t-28 107z" />
<glyph unicode="|" horiz-adv-x="483" d="M178 -381v1661h125v-1661h-125z" />
<glyph unicode="}" horiz-adv-x="569" d="M-6 -399q37 62 67 114t52.5 101.5t37.5 101.5t23 115l23 164q3 29 8.5 60t15 61t24 59t34.5 53l69 84l-45 82q-13 25 -21 50.5t-12 53t-3.5 58t5.5 67.5l21 168q7 63 4.5 114.5t-13 101t-28 101t-39.5 113.5l115 64l41 -90q21 -46 39.5 -89.5t31.5 -91t17 -101.5t-4 -122 l-21 -168q-8 -60 -6 -114t27 -105l47 -92l-70 -94q-37 -51 -52.5 -107t-23.5 -116l-20 -164q-9 -69 -25.5 -123.5t-40 -102t-52 -91t-60.5 -89.5l-64 -90z" />
<glyph unicode="~" d="M143 516l13 96l10 -4.5t27 -10.5t39 -10.5t47 -4.5q43 0 79.5 7.5t72.5 17t73.5 17t81.5 7.5q35 0 66 -11.5t54 -25t36 -24.5l14 -11l-13 -94q-2 1 -16.5 8t-44 15t-61.5 8q-43 0 -80 -8t-73 -18t-73.5 -18t-81.5 -8q-35 0 -66 11t-54 24.5t-37 24.5z" />
<glyph unicode="&#xa1;" horiz-adv-x="496" d="M66 -379l145 1055h149l-110 -1055h-184zM227 838l21 219h172l-37 -219h-156z" />
<glyph unicode="&#xa2;" d="M139 408q0 65 7.5 134.5t25 137.5t46 131t70 115t97.5 89.5t129 53.5l43 365h170l-55 -357q29 -3 60 -11t59 -22l-17 -122q-13 8 -30.5 14t-36.5 10t-38 6t-34 2q-65 0 -114.5 -26t-85.5 -69t-59.5 -98.5t-38 -115.5t-20.5 -119.5t-6 -109.5q0 -32 3 -67.5t11.5 -70.5 t22.5 -67t36 -56t52.5 -38.5t71.5 -14.5q21 0 43 5t44 14t41 21.5t34 27.5l28 -102q-15 -18 -36 -33t-45 -26t-49.5 -18.5t-47.5 -10.5l-43 -361h-168l60 367q-69 18 -113.5 63t-70.5 104t-36 126t-10 129z" />
<glyph unicode="&#xa3;" d="M72 502l16 121h191l10 102q10 99 44 165t80.5 105.5t100.5 58.5t105.5 24t95 2t68.5 -8t26 -5l25 -125l-25 6t-62.5 8t-83 -4.5t-87 -30.5t-72.5 -70.5t-41 -125.5l-12 -102h301l-17 -121h-297l-10 -86q-6 -55 -14.5 -92.5t-23.5 -68.5t-38.5 -61.5t-58.5 -70.5h489 l-14 -123h-657l14 109q34 48 56.5 82.5t36.5 66.5t22 69t14 91l8 84h-190z" />
<glyph unicode="&#xa4;" d="M29 16l168 244l-12 15.5t-24.5 48t-20 82.5t0.5 120q9 69 29 119.5t40.5 83.5t36 48.5l15.5 15.5l-92 245l117 31l80 -209l8.5 5t25 11.5t40.5 11.5t55 5q37 0 66.5 -8t43 -15t15.5 -8l122 209l115 -33l-156 -245l11.5 -15.5t23.5 -48.5t19.5 -83.5t-0.5 -119.5 q-9 -69 -29 -119t-40.5 -83t-36 -48.5l-15.5 -15.5l92 -244l-117 -34l-75 211q-2 -1 -17 -8t-46.5 -15t-70.5 -8q-38 0 -66 8t-40 15t-14 8l-123 -211zM299.5 434q2.5 -45 15.5 -79t38.5 -54t64.5 -20q40 0 70.5 20.5t52.5 55t35.5 79.5t19.5 94q6 50 3 94t-16.5 77t-39 52 t-64.5 19t-68.5 -18.5t-51 -51.5t-35.5 -77.5t-21 -96.5q-6 -49 -3.5 -94z" />
<glyph unicode="&#xa5;" d="M78 373l16 131l203 -2v8l-158 547h183l108 -518l236 518h174l-285 -547v-8l201 2l-19 -131l-248 6l-47 -379h-159l47 379z" />
<glyph unicode="&#xa6;" horiz-adv-x="461" d="M80 2l67 553h125l-67 -553h-125zM188 881l68 553h125l-70 -553h-123z" />
<glyph unicode="&#xa7;" d="M66 539q0 57 15 113t43 104.5t69 88.5t94 66q-13 31 -18 68.5t-5 69.5q0 87 30.5 160.5t84.5 127t127.5 83.5t159.5 30q40 0 81 -6t78 -19l-20 -133q-70 17 -139 17q-52 0 -91.5 -19t-66.5 -51t-41 -75.5t-14 -92.5q0 -60 28 -107t70.5 -88.5t92 -83.5t92 -93t70.5 -116 t28 -153q0 -57 -15.5 -112t-44 -104t-69.5 -89.5t-93 -67.5q13 -29 18 -66t5 -69q0 -87 -30 -161t-83.5 -127t-127 -83t-161.5 -30q-40 0 -81 5.5t-78 16.5l18 135q67 -18 137 -18q52 0 92 19t68 52t42.5 76.5t14.5 92.5q0 60 -28 106.5t-70.5 88t-91.5 83t-91.5 92.5 t-70.5 116t-28 153zM252 578q0 -46 15.5 -85t41 -74t57.5 -66.5t66 -61.5t66 -60.5t57 -62.5q45 37 68.5 97t23.5 128q0 45 -15.5 84.5t-40.5 74t-57 66t-66 61.5t-66.5 60t-57.5 62q-46 -34 -69 -94t-23 -129z" />
<glyph unicode="&#xa8;" horiz-adv-x="645" d="M121 1444v217h133v-217h-133zM387 1444v217h133v-217h-133z" />
<glyph unicode="&#xa9;" horiz-adv-x="1075" d="M66 528q0 124 28.5 226t87 175t148.5 113.5t213 40.5t211.5 -40.5t145.5 -113.5t83.5 -175t26.5 -226q0 -123 -27.5 -225.5t-85.5 -176t-147.5 -114.5t-212.5 -41q-124 0 -213 41t-146.5 114.5t-84.5 176t-27 225.5zM186 530q0 -93 20.5 -178.5t63 -151t109.5 -104.5 t160 -39t160 39t110 104.5t63.5 151t20.5 178.5t-20.5 178t-63 149.5t-109 103t-159.5 38.5t-160 -38.5t-110.5 -103t-64 -149.5t-20.5 -178zM369.5 420.5q-2.5 56.5 5.5 118.5q7 65 24.5 119.5t48 93.5t77 60.5t112.5 21.5q35 0 56.5 -6.5l21.5 -6.5l-10 -98l-17.5 4 t-40.5 4q-38 0 -61.5 -17.5t-38 -46t-22 -65t-11.5 -74.5q-3 -31 -3.5 -65.5t6.5 -63.5t23.5 -48t47.5 -19q21 0 37 6t23.5 11.5t8.5 6.5l7 -86l-7.5 -6.5t-22.5 -15t-37 -15t-50 -6.5q-62 0 -99.5 25.5t-56.5 68.5t-21.5 99.5z" />
<glyph unicode="&#xaa;" horiz-adv-x="528" d="M45 1008q9 70 39.5 109.5t72.5 61.5t89.5 31.5t91.5 18.5q4 34 1.5 57.5t-13.5 38t-32 21t-54 6.5q-28 0 -54.5 -4t-40.5 -7t-16 -4l10 93l11 2t29.5 5t43.5 5t53 2q59 0 98 -12.5t61 -39t27.5 -68.5t-1.5 -101l-23 -176q-4 -34 -5.5 -55t-0.5 -39t5.5 -37t13.5 -50 l-89 -32l-38 73q-3 -5 -13.5 -16.5t-28.5 -23.5t-44 -21.5t-60 -9.5q-32 0 -58.5 11t-44.5 32.5t-26.5 54t-3.5 74.5zM172 1014q-5 -35 9 -55.5t42 -20.5q24 0 40.5 10.5t27.5 28t17 41t9 49.5l11 72q-35 -9 -62 -17t-46.5 -20.5t-31.5 -33t-16 -54.5z" />
<glyph unicode="&#xab;" horiz-adv-x="854" d="M37 686l291 381l125 -20l-242 -361l154 -358l-121 -23zM369 686l290 381l125 -20l-239 -361l151 -358l-121 -23z" />
<glyph unicode="&#xac;" d="M23 475l14 125h813l-55 -436h-164l41 311h-649z" />
<glyph unicode="&#xad;" horiz-adv-x="637" d="M68 475l12 123h489l-14 -123h-487z" />
<glyph unicode="&#xae;" horiz-adv-x="918" d="M66 1004q0 103 22.5 187t70.5 144t122.5 92.5t177.5 32.5q101 0 175 -32.5t122.5 -92.5t72 -144t23.5 -187q0 -102 -24 -186.5t-72.5 -144.5t-123.5 -93t-177 -33q-103 0 -176.5 33t-121 93t-69.5 144.5t-22 186.5zM195 1006q0 -77 12 -146t42 -120.5t80 -82t126 -30.5 t128 30.5t83.5 82t45 120.5t13.5 146t-13 145t-44 118.5t-82.5 79.5t-128.5 29t-127.5 -29t-80.5 -79.5t-42 -118.5t-12 -145zM287 772l57 469h162q136 0 127 -127q-3 -28 -11 -47t-19.5 -31.5t-24.5 -19.5t-25 -10v-7q25 -9 34 -28t11 -60l6 -127l-115 -22l-2 131 q0 35 -8 51.5t-37 16.5h-20l-25 -189h-110zM432 1044h27q31 0 42.5 17t14.5 43q5 29 -6.5 42t-40.5 13h-23z" />
<glyph unicode="&#xaf;" horiz-adv-x="645" d="M57 1513v125h531v-125h-531z" />
<glyph unicode="&#xb0;" horiz-adv-x="535" d="M41 1188q0 69 12.5 119t40 83t70.5 48.5t104 15.5t104 -15.5t70 -48t39.5 -82.5t12.5 -120q0 -66 -12.5 -116.5t-39.5 -84.5t-70.5 -51.5t-105.5 -17.5q-61 0 -103.5 15.5t-69.5 48.5t-39.5 84t-12.5 122zM174 1188q0 -37 3.5 -69.5t14 -56.5t29 -38t47.5 -14 q28 0 46 13.5t28.5 37.5t14 57t3.5 72q0 37 -4 68.5t-14.5 54.5t-28 36t-45.5 13t-46.5 -13.5t-29 -37t-14.5 -55t-4 -68.5z" />
<glyph unicode="&#xb1;" d="M33 0l14 121h748l-17 -121h-745zM102 571l15 121h293l43 365h163l-47 -365h297l-16 -121h-293l-43 -368h-164l47 368h-295z" />
<glyph unicode="&#xb2;" horiz-adv-x="557" d="M109 930v80q40 43 78 86.5t68 87t48.5 88t18.5 90.5q0 51 -28 82t-79 31q-24 0 -47.5 -7t-36 -13t-14.5 -7v84q2 1 17.5 7t45 13t60.5 7q43 0 78.5 -13.5t60 -39t38 -61t13.5 -79.5q0 -54 -16 -101t-42.5 -90t-60.5 -83t-71 -78h88h27q12 0 22 1t21 4t26 9l12 6l13 -80 l-15 -8q-16 -8 -29.5 -11.5t-27 -4.5t-28 -0.5t-32.5 0.5h-208z" />
<glyph unicode="&#xb3;" horiz-adv-x="557" d="M115 1016l25 -7.5t67 -7.5q54 0 90.5 26.5t36.5 80.5q0 37 -18 56t-44 27t-54 8.5t-48 0.5v82q29 0 57 4.5t49.5 17t34.5 33.5t13 54q0 21 -8.5 36.5t-22.5 26t-32.5 16t-39.5 5.5q-27 0 -51 -5.5t-35.5 -10t-13.5 -5.5v84q2 1 17 5.5t45 10t65 5.5t68.5 -9t59 -28.5 t41 -49.5t15.5 -73t-14.5 -71t-31.5 -44t-32 -22l-14 -7v-4l16 -6t35 -22.5t35 -45.5t16 -75q0 -48 -18 -83t-47.5 -57.5t-67.5 -33t-78 -10.5q-28 0 -53.5 3.5t-38 6.5t-14.5 4z" />
<glyph unicode="&#xb4;" horiz-adv-x="645" d="M109 1501l428 164v-170l-398 -86z" />
<glyph unicode="&#xb5;" horiz-adv-x="938" d="M133 -455v1512h164v-742q0 -47 5.5 -85t20 -65t40 -41.5t65.5 -14.5q41 0 75 15.5t61 37t46.5 45t30.5 39.5v811h164v-715q0 -47 1 -79t7 -63.5t20 -69t41 -95.5l-104 -64l-96 154q-15 -18 -39.5 -43t-59.5 -48.5t-80 -40t-100 -16.5q-29 0 -52.5 6t-34 11t-11.5 6v-455 h-164z" />
<glyph unicode="&#xb6;" horiz-adv-x="961" d="M55 539q0 97 25 190t76.5 166t131 117.5t187.5 44.5h406l-185 -1512h-164l170 1389h-131l-120 -993q-7 -54 -14 -94t-16.5 -72t-21 -60t-27.5 -57.5t-36.5 -63.5t-46.5 -79l-115 55q43 81 66.5 155.5t37 149t21 153.5t18.5 171q-72 0 -122 30t-81 78t-45 109t-14 123z " />
<glyph unicode="&#xb7;" horiz-adv-x="324" d="M66 471l26 217h166l-27 -217h-165z" />
<glyph unicode="&#xb8;" horiz-adv-x="645" d="M170 -309q24 50 37.5 84t21 65.5t9.5 66.5t2 87l163 -2q0 -51 -2.5 -85.5t-9.5 -63t-20.5 -57t-34.5 -67.5l-53 -94z" />
<glyph unicode="&#xb9;" horiz-adv-x="557" d="M98 1479l248 92v-557h109v-84h-353v84h136v436l-125 -78z" />
<glyph unicode="&#xba;" horiz-adv-x="571" d="M60 1023q-3 57 6 130q9 72 27 128.5t48 95.5t75 59t108 20q64 0 104 -20t60 -59t23 -95.5t-5 -128.5q-9 -68 -25.5 -124.5t-46.5 -96.5t-75.5 -62t-110.5 -22q-64 0 -104 20t-60.5 59t-23.5 96zM191 1076q-3 -38 2 -68.5t20 -49t47 -18.5q31 0 50.5 18.5t31.5 49t18.5 69 t12.5 78.5q4 40 6.5 77.5t-2 67t-19.5 47t-45 17.5q-31 0 -50.5 -18t-32 -47.5t-19.5 -67.5t-12 -78q-5 -39 -8 -77z" />
<glyph unicode="&#xbb;" horiz-adv-x="854" d="M59 326l240 360l-152 358l121 23l205 -381l-287 -381zM391 326l240 360l-150 358l121 23l205 -381l-289 -381z" />
<glyph unicode="&#xbc;" horiz-adv-x="557" d="M41 733v84h473v-84h-473zM98 1479l248 92v-557h109v-84h-353v84h136v436l-125 -78zM102 147v82q0 29 2 50.5t7.5 40.5t13.5 38t20 43l121 232l103 -21l-125 -250q-11 -21 -17.5 -35t-10 -27.5t-4.5 -29t-1 -39.5h113v150h106v-381h-106v147h-222z" />
<glyph unicode="&#xbd;" horiz-adv-x="557" d="M41 733v84h473v-84h-473zM98 1479l248 92v-557h109v-84h-353v84h136v436l-125 -78zM109 0v80q40 44 78 87.5t68 87t48.5 88t18.5 89.5q0 51 -28 83t-79 32q-24 0 -47.5 -7.5t-36 -14t-14.5 -7.5v84q2 1 17.5 7.5t45 14t60.5 7.5q43 0 78.5 -14t60 -39.5t38 -61.5 t13.5 -80q0 -53 -16 -100t-42.5 -90t-60.5 -83t-71 -79h88h27q12 0 22 1.5t21 4.5t26 10l12 6l13 -79l-15 -9q-16 -9 -29.5 -13t-27 -5t-28 -0.5t-32.5 0.5h-208z" />
<glyph unicode="&#xbe;" horiz-adv-x="557" d="M41 733v84h473v-84h-473zM102 147v82q0 29 2 50.5t7.5 40.5t13.5 38t20 43l121 232l103 -21l-125 -250q-11 -21 -17.5 -35t-10 -27.5t-4.5 -29t-1 -39.5h113v150h106v-381h-106v147h-222zM115 1016l25 -7.5t67 -7.5q54 0 90.5 26.5t36.5 80.5q0 37 -18 56t-44 27t-54 8.5 t-48 0.5v82q29 0 57 4.5t49.5 17t34.5 33.5t13 54q0 21 -8.5 36.5t-22.5 26t-32.5 16t-39.5 5.5q-27 0 -51 -5.5t-35.5 -10t-13.5 -5.5v84q2 1 17 5.5t45 10t65 5.5t68.5 -9t59 -28.5t41 -49.5t15.5 -73t-14.5 -71t-31.5 -44t-32 -22l-14 -7v-4l16 -6t35 -22.5t35 -45.5 t16 -75q0 -48 -18 -83t-47.5 -57.5t-67.5 -33t-78 -10.5q-28 0 -53.5 3.5t-38 6.5t-14.5 4z" />
<glyph unicode="&#xbf;" horiz-adv-x="709" d="M66 10q0 94 30.5 186.5t86 181t132 171t168.5 156.5l140 -64q-86 -72 -155 -151t-117 -160.5t-73.5 -162.5t-25.5 -157q0 -62 15 -114t46.5 -89.5t81 -58t117.5 -20.5q33 0 64.5 3.5t56.5 7.5t40 7.5l15 3.5l-14 -129l-14.5 -4t-39 -8.5t-56.5 -8t-66 -3.5 q-94 0 -173 25.5t-136.5 77t-90 129t-32.5 181.5zM453 838l22 219h166l-35 -219h-153z" />
<glyph unicode="&#xc0;" horiz-adv-x="1067" d="M33 0l393 1280h215l393 -1280h-198l-115 395h-422l-119 -395h-147zM334 1495v170l428 -164l-31 -92zM336 528h350l-139 476q-6 21 -12.5 45t-11.5 45t-8 35l-3 14h-4l-3 -13.5t-7.5 -34t-10.5 -44.5t-12 -45z" />
<glyph unicode="&#xc1;" horiz-adv-x="1067" d="M33 0l393 1280h215l393 -1280h-198l-115 395h-422l-119 -395h-147zM326 1501l428 164v-170l-398 -86zM336 528h350l-139 476q-6 21 -12.5 45t-11.5 45t-8 35l-3 14h-4l-3 -13.5t-7.5 -34t-10.5 -44.5t-12 -45z" />
<glyph unicode="&#xc2;" horiz-adv-x="1067" d="M33 0l393 1280h215l393 -1280h-198l-115 395h-422l-119 -395h-147zM270 1501l262 166l261 -166l-19 -96l-242 113l-239 -113zM336 528h350l-139 476q-6 21 -12.5 45t-11.5 45t-8 35l-3 14h-4l-3 -13.5t-7.5 -34t-10.5 -44.5t-12 -45z" />
<glyph unicode="&#xc3;" horiz-adv-x="1067" d="M33 0l393 1280h215l393 -1280h-198l-115 395h-422l-119 -395h-147zM229 1554v97l10.5 -5t28.5 -10.5t41 -10.5t47 -5q43 0 79 7.5t71 17t71 17t80 7.5q36 0 69 -11.5t58 -25.5t40 -26l14 -11v-94l-10.5 5t-28.5 11.5t-41 11.5t-47 5q-43 0 -79 -8t-71 -17.5t-71.5 -17.5 t-79.5 -8q-36 0 -69 11t-58 24.5t-39 24.5zM336 528h350l-139 476q-6 21 -12.5 45t-11.5 45t-8 35l-3 14h-4l-3 -13.5t-7.5 -34t-10.5 -44.5t-12 -45z" />
<glyph unicode="&#xc4;" horiz-adv-x="1067" d="M33 0l393 1280h215l393 -1280h-198l-115 395h-422l-119 -395h-147zM334 1444v217h133v-217h-133zM336 528h350l-139 476q-6 21 -12.5 45t-11.5 45t-8 35l-3 14h-4l-3 -13.5t-7.5 -34t-10.5 -44.5t-12 -45zM600 1444v217h133v-217h-133z" />
<glyph unicode="&#xc5;" horiz-adv-x="1067" d="M33 0l393 1280h215l393 -1280h-198l-115 395h-422l-119 -395h-147zM336 528h350l-139 476q-6 21 -12.5 45t-11.5 45t-8 35l-3 14h-4l-3 -13.5t-7.5 -34t-10.5 -44.5t-12 -45zM336 1516q0 42 15 72t42 49.5t63.5 28.5t78.5 9q41 0 76.5 -9t61.5 -28.5t41 -49.5t15 -72 t-15 -72.5t-41 -50.5t-61.5 -29.5t-76.5 -9.5q-42 0 -78.5 9.5t-63.5 29.5t-42 50.5t-15 72.5zM451 1516q0 -44 18.5 -69.5t65.5 -25.5q46 0 63.5 25t17.5 70q0 43 -17.5 67.5t-63.5 24.5q-47 0 -65.5 -24.5t-18.5 -67.5z" />
<glyph unicode="&#xc6;" horiz-adv-x="1460" d="M14 0l570 1434h622l21 -136h-408l76 -487h403l23 -135h-406l80 -541h406l20 -135h-596l-61 451h-420l-174 -451h-156zM397 588h348l-77 559q-3 21 -5.5 44.5t-3.5 43.5t-1.5 33.5l-0.5 13.5h-8l-3.5 -13.5t-9 -34t-13 -44t-15.5 -43.5z" />
<glyph unicode="&#xc7;" horiz-adv-x="895" d="M80 725q0 159 24.5 293.5t86 232t165 152.5t262.5 55q48 0 91 -6.5t75.5 -15t52 -15l19.5 -6.5v-139l-17.5 7.5t-47.5 16t-71 16t-89 7.5q-112 0 -183 -44.5t-111.5 -124t-55.5 -189.5t-15 -242q0 -120 15.5 -230t54.5 -194t104.5 -134t165.5 -50q58 0 100.5 16t71 35 t42.5 35l14 16l55 -119l-11 -14t-37.5 -33.5t-70 -39.5t-108.5 -31q0 -51 -3 -85t-11 -61.5t-21 -53.5t-33 -61l-53 -94l-113 66q24 50 38 83.5t21 63.5t9 63t2 81q-113 16 -192.5 79.5t-129.5 162.5t-73 227t-23 274z" />
<glyph unicode="&#xc8;" horiz-adv-x="881" d="M156 0v1280h671v-121h-487v-434h457v-123h-457v-481h487v-121h-671zM268 1495v170l430 -164l-30 -92z" />
<glyph unicode="&#xc9;" horiz-adv-x="881" d="M156 0v1280h671v-121h-487v-434h457v-123h-457v-481h487v-121h-671zM285 1501l430 164v-170l-400 -86z" />
<glyph unicode="&#xca;" horiz-adv-x="881" d="M156 0v1280h671v-121h-487v-434h457v-123h-457v-481h487v-121h-671zM231 1501l261 166l262 -166l-21 -96l-241 113l-240 -113z" />
<glyph unicode="&#xcb;" horiz-adv-x="881" d="M156 0v1280h671v-121h-487v-434h457v-123h-457v-481h487v-121h-671zM291 1444v217h133v-217h-133zM557 1444v217h133v-217h-133z" />
<glyph unicode="&#xcc;" horiz-adv-x="496" d="M23 1495v170l428 -164l-31 -92zM158 0v1280h182v-1280h-182z" />
<glyph unicode="&#xcd;" horiz-adv-x="496" d="M41 1501l428 164v-170l-397 -86zM158 0v1280h182v-1280h-182z" />
<glyph unicode="&#xce;" horiz-adv-x="496" d="M-14 1501l262 166l260 -166l-19 -96l-241 113l-242 -113zM158 0v1280h182v-1280h-182z" />
<glyph unicode="&#xcf;" horiz-adv-x="496" d="M47 1444v217h133v-217h-133zM158 0v1280h182v-1280h-182zM315 1444v217h134v-217h-134z" />
<glyph unicode="&#xd0;" horiz-adv-x="1153" d="M8 686v115h160v633h348q156 0 262.5 -50t172 -140.5t94 -218t28.5 -282.5v-2q0 -161 -27 -296.5t-91.5 -234.5t-172 -154.5t-268.5 -55.5h-346v686h-160zM350 135h139q83 0 145 22t106 61.5t72.5 94.5t45 122t23 144t6.5 160v2q0 123 -17 225.5t-62.5 176t-125 114.5 t-203.5 41h-129v-497h260v-115h-260v-551z" />
<glyph unicode="&#xd1;" horiz-adv-x="1126" d="M156 0v1280h235l397 -946q9 -20 17.5 -43.5t15 -44t11.5 -34.5l4 -13h8l-1 13t-2.5 33t-2.5 43.5t-2 45.5l-17 946h152v-1280h-238l-395 952q-9 20 -17 43.5t-15 44t-11 34.5l-4 13h-10l1.5 -13t3 -33.5t3 -44t2.5 -44.5l14 -952h-149zM254 1554v97l10.5 -5t28.5 -10.5 t41 -10.5t49 -5q42 0 78 7.5t70.5 17t71 17t79.5 7.5q36 0 68.5 -11.5t57.5 -25.5t40 -26l14 -11v-94l-10.5 5t-28 11.5t-40.5 11.5t-48 5q-43 0 -79 -8t-70.5 -17.5t-71 -17.5t-80.5 -8q-35 0 -67.5 11t-57.5 24.5t-40 24.5z" />
<glyph unicode="&#xd2;" horiz-adv-x="1114" d="M80 645q0 87 8.5 170t29 156.5t55 135t87.5 106t126.5 69.5t170.5 25q98 0 171 -25t126 -69.5t88 -106t55.5 -135t28.5 -156.5t8 -170q0 -88 -8 -171.5t-28.5 -158t-55.5 -136.5t-88 -107t-126 -70t-171 -25q-97 0 -170.5 25t-126.5 69.5t-87.5 106.5t-55 136.5t-29 158 t-8.5 172.5zM264 647q0 -61 3.5 -124.5t14 -123t30.5 -111.5t52.5 -91t79.5 -61.5t113 -22.5t113.5 22.5t80 61.5t52 92t30 112.5t14 123.5t3.5 126q0 58 -3.5 119t-14 119t-30.5 109t-52.5 89.5t-80 61t-112.5 22.5q-66 0 -113 -22.5t-79.5 -61.5t-52.5 -90.5t-30.5 -109.5 t-14 -120t-3.5 -120zM336 1495v170l428 -164l-31 -92z" />
<glyph unicode="&#xd3;" horiz-adv-x="1114" d="M80 645q0 87 8.5 170t29 156.5t55 135t87.5 106t126.5 69.5t170.5 25q98 0 171 -25t126 -69.5t88 -106t55.5 -135t28.5 -156.5t8 -170q0 -88 -8 -171.5t-28.5 -158t-55.5 -136.5t-88 -107t-126 -70t-171 -25q-97 0 -170.5 25t-126.5 69.5t-87.5 106.5t-55 136.5t-29 158 t-8.5 172.5zM264 647q0 -61 3.5 -124.5t14 -123t30.5 -111.5t52.5 -91t79.5 -61.5t113 -22.5t113.5 22.5t80 61.5t52 92t30 112.5t14 123.5t3.5 126q0 58 -3.5 119t-14 119t-30.5 109t-52.5 89.5t-80 61t-112.5 22.5q-66 0 -113 -22.5t-79.5 -61.5t-52.5 -90.5t-30.5 -109.5 t-14 -120t-3.5 -120zM375 1501l428 164v-170l-400 -86z" />
<glyph unicode="&#xd4;" horiz-adv-x="1114" d="M80 645q0 87 8.5 170t29 156.5t55 135t87.5 106t126.5 69.5t170.5 25q98 0 171 -25t126 -69.5t88 -106t55.5 -135t28.5 -156.5t8 -170q0 -88 -8 -171.5t-28.5 -158t-55.5 -136.5t-88 -107t-126 -70t-171 -25q-97 0 -170.5 25t-126.5 69.5t-87.5 106.5t-55 136.5t-29 158 t-8.5 172.5zM264 647q0 -61 3.5 -124.5t14 -123t30.5 -111.5t52.5 -91t79.5 -61.5t113 -22.5t113.5 22.5t80 61.5t52 92t30 112.5t14 123.5t3.5 126q0 58 -3.5 119t-14 119t-30.5 109t-52.5 89.5t-80 61t-112.5 22.5q-66 0 -113 -22.5t-79.5 -61.5t-52.5 -90.5t-30.5 -109.5 t-14 -120t-3.5 -120zM297 1501l260 166l260 -166l-16 -96l-244 113l-240 -113z" />
<glyph unicode="&#xd5;" horiz-adv-x="1114" d="M80 645q0 87 8.5 170t29 156.5t55 135t87.5 106t126.5 69.5t170.5 25q98 0 171 -25t126 -69.5t88 -106t55.5 -135t28.5 -156.5t8 -170q0 -88 -8 -171.5t-28.5 -158t-55.5 -136.5t-88 -107t-126 -70t-171 -25q-97 0 -170.5 25t-126.5 69.5t-87.5 106.5t-55 136.5t-29 158 t-8.5 172.5zM254 1554v97l10.5 -5t28.5 -10.5t41 -10.5t49 -5q42 0 78 7.5t70.5 17t71 17t79.5 7.5q36 0 68.5 -11.5t57.5 -25.5t40 -26l14 -11v-94l-10.5 5t-28 11.5t-40.5 11.5t-48 5q-43 0 -79 -8t-70.5 -17.5t-71 -17.5t-80.5 -8q-35 0 -67.5 11t-57.5 24.5t-40 24.5z M264 647q0 -61 3.5 -124.5t14 -123t30.5 -111.5t52.5 -91t79.5 -61.5t113 -22.5t113.5 22.5t80 61.5t52 92t30 112.5t14 123.5t3.5 126q0 58 -3.5 119t-14 119t-30.5 109t-52.5 89.5t-80 61t-112.5 22.5q-66 0 -113 -22.5t-79.5 -61.5t-52.5 -90.5t-30.5 -109.5t-14 -120 t-3.5 -120z" />
<glyph unicode="&#xd6;" horiz-adv-x="1114" d="M80 645q0 87 8.5 170t29 156.5t55 135t87.5 106t126.5 69.5t170.5 25q98 0 171 -25t126 -69.5t88 -106t55.5 -135t28.5 -156.5t8 -170q0 -88 -8 -171.5t-28.5 -158t-55.5 -136.5t-88 -107t-126 -70t-171 -25q-97 0 -170.5 25t-126.5 69.5t-87.5 106.5t-55 136.5t-29 158 t-8.5 172.5zM264 647q0 -61 3.5 -124.5t14 -123t30.5 -111.5t52.5 -91t79.5 -61.5t113 -22.5t113.5 22.5t80 61.5t52 92t30 112.5t14 123.5t3.5 126q0 58 -3.5 119t-14 119t-30.5 109t-52.5 89.5t-80 61t-112.5 22.5q-66 0 -113 -22.5t-79.5 -61.5t-52.5 -90.5t-30.5 -109.5 t-14 -120t-3.5 -120zM358 1444v217h134v-217h-134zM625 1444v217h135v-217h-135z" />
<glyph unicode="&#xd7;" d="M43 258l301 268l-252 285l131 98l242 -270l303 272l82 -90l-311 -274l247 -281l-116 -108l-250 274l-299 -264z" />
<glyph unicode="&#xd8;" horiz-adv-x="1114" d="M80 -47l113 211q-33 51 -54.5 114t-34.5 134.5t-18.5 149.5t-5.5 159q0 97 8.5 189.5t29 175t55 151t87.5 118.5t126.5 77.5t170.5 27.5q93 0 163.5 -24.5t123.5 -69.5l86 160l104 -41l-112 -211q32 -52 53.5 -115t34.5 -133.5t18.5 -147.5t5.5 -157q0 -99 -8 -192.5 t-28.5 -176.5t-55.5 -152t-88 -119t-126 -78t-171 -28q-93 0 -162.5 25t-122.5 72l-86 -160zM264 725q0 -97 6.5 -187.5t28.5 -177.5l461 852q-15 22 -34 42.5t-43 35.5t-55 24t-71 9q-66 0 -113 -26t-79.5 -71t-52.5 -104.5t-30.5 -126t-14 -136t-3.5 -134.5zM352 223 q17 -22 36 -42t43.5 -35t55 -24t70.5 -9q66 0 113.5 26t80 71t52 105.5t30 128.5t14 140.5t3.5 142.5q0 93 -6.5 178.5t-28.5 171.5z" />
<glyph unicode="&#xd9;" horiz-adv-x="1124" d="M145 451v829h183v-819q0 -77 7.5 -141t31.5 -110.5t70 -72.5t124 -26t124.5 26t71 72.5t31.5 111t7 140.5v819h184v-829q0 -115 -20 -203.5t-68 -149t-128.5 -92t-201.5 -31.5q-116 0 -195.5 31t-128.5 91.5t-70.5 149t-21.5 204.5zM362 1495v170l429 -164l-31 -92z" />
<glyph unicode="&#xda;" horiz-adv-x="1124" d="M145 451v829h183v-819q0 -77 7.5 -141t31.5 -110.5t70 -72.5t124 -26t124.5 26t71 72.5t31.5 111t7 140.5v819h184v-829q0 -115 -20 -203.5t-68 -149t-128.5 -92t-201.5 -31.5q-116 0 -195.5 31t-128.5 91.5t-70.5 149t-21.5 204.5zM354 1501l430 164v-170l-399 -86z" />
<glyph unicode="&#xdb;" horiz-adv-x="1124" d="M145 451v829h183v-819q0 -77 7.5 -141t31.5 -110.5t70 -72.5t124 -26t124.5 26t71 72.5t31.5 111t7 140.5v819h184v-829q0 -115 -20 -203.5t-68 -149t-128.5 -92t-201.5 -31.5q-116 0 -195.5 31t-128.5 91.5t-70.5 149t-21.5 204.5zM301 1501l260 166l262 -166l-18 -96 l-244 113l-239 -113z" />
<glyph unicode="&#xdc;" horiz-adv-x="1124" d="M145 451v829h183v-819q0 -77 7.5 -141t31.5 -110.5t70 -72.5t124 -26t124.5 26t71 72.5t31.5 111t7 140.5v819h184v-829q0 -115 -20 -203.5t-68 -149t-128.5 -92t-201.5 -31.5q-116 0 -195.5 31t-128.5 91.5t-70.5 149t-21.5 204.5zM360 1444v217h134v-217h-134z M629 1444v217h133v-217h-133z" />
<glyph unicode="&#xdd;" horiz-adv-x="985" d="M23 1280h204l219 -469q9 -19 20.5 -44.5t21 -48t16 -38.5l6.5 -16h6l6 15.5t15.5 38t20.5 48t20 45.5l217 469h168l-379 -764v-516h-183v518zM285 1501l430 164v-170l-400 -86z" />
<glyph unicode="&#xde;" horiz-adv-x="997" d="M156 0v1434h184v-226h139q108 0 194 -22.5t146 -71.5t91.5 -126t31.5 -185q0 -101 -33 -177.5t-91.5 -128t-137.5 -78t-170 -26.5h-170v-393h-184zM340 530h106q149 0 228.5 66t79.5 215q0 70 -21.5 119.5t-61 81t-96.5 45.5t-129 14h-106v-541z" />
<glyph unicode="&#xdf;" horiz-adv-x="977" d="M63 -422q26 58 40.5 96.5t21 70.5t7.5 65.5t1 83.5v1071q0 102 20.5 190t66 153.5t117 102.5t173.5 37q83 0 148.5 -26t111.5 -73t70 -113.5t24 -148.5q0 -123 -54 -207t-148 -122q49 -12 93 -42t77.5 -76t53 -105t19.5 -129q0 -105 -30.5 -181.5t-84 -126.5t-125.5 -74 t-155 -24h-102v123h57q64 0 115 15.5t87 50t55 88.5t19 131q0 67 -21.5 118.5t-58.5 86.5t-85 53t-101 18h-67v123q57 0 109.5 10.5t92.5 40t64 83t24 140.5q0 51 -11.5 95t-35.5 77t-60 51.5t-85 18.5q-62 0 -102.5 -28.5t-64.5 -75t-34 -106.5t-10 -124v-1095 q0 -56 -1 -93t-7 -67t-19.5 -58.5t-38.5 -66.5l-61 -92z" />
<glyph unicode="&#xe0;" horiz-adv-x="868" d="M45 285q0 78 22.5 134t62 96t91.5 67t111.5 45t123 31t124.5 26q0 67 -11 117.5t-39 84.5t-75.5 51t-120.5 17q-34 0 -71.5 -5.5t-69 -12.5t-52 -12.5l-20.5 -5.5v126l22 6t57.5 12.5t79.5 12.5t89 6q104 0 176 -29t116.5 -82t64 -127t19.5 -165v-336q0 -48 1 -80.5 t7.5 -64t21 -69t40.5 -95.5l-104 -66l-99 158q-8 -18 -29 -44t-55 -49.5t-81.5 -40t-108.5 -16.5q-66 0 -120 22t-92.5 62.5t-59.5 97.5t-21 128zM209 1290v170l428 -162l-31 -94zM213 279q0 -35 11 -65.5t31.5 -53.5t50 -36t67.5 -13q54 0 93 23t65 61.5t38.5 88 t12.5 103.5v170q-86 -21 -154.5 -39.5t-116 -47t-73 -73.5t-25.5 -118z" />
<glyph unicode="&#xe1;" horiz-adv-x="868" d="M45 285q0 78 22.5 134t62 96t91.5 67t111.5 45t123 31t124.5 26q0 67 -11 117.5t-39 84.5t-75.5 51t-120.5 17q-34 0 -71.5 -5.5t-69 -12.5t-52 -12.5l-20.5 -5.5v126l22 6t57.5 12.5t79.5 12.5t89 6q104 0 176 -29t116.5 -82t64 -127t19.5 -165v-336q0 -48 1 -80.5 t7.5 -64t21 -69t40.5 -95.5l-104 -66l-99 158q-8 -18 -29 -44t-55 -49.5t-81.5 -40t-108.5 -16.5q-66 0 -120 22t-92.5 62.5t-59.5 97.5t-21 128zM213 279q0 -35 11 -65.5t31.5 -53.5t50 -36t67.5 -13q54 0 93 23t65 61.5t38.5 88t12.5 103.5v170q-86 -21 -154.5 -39.5 t-116 -47t-73 -73.5t-25.5 -118zM221 1298l428 162v-170l-397 -86z" />
<glyph unicode="&#xe2;" horiz-adv-x="868" d="M45 285q0 78 22.5 134t62 96t91.5 67t111.5 45t123 31t124.5 26q0 67 -11 117.5t-39 84.5t-75.5 51t-120.5 17q-34 0 -71.5 -5.5t-69 -12.5t-52 -12.5l-20.5 -5.5v126l22 6t57.5 12.5t79.5 12.5t89 6q104 0 176 -29t116.5 -82t64 -127t19.5 -165v-336q0 -48 1 -80.5 t7.5 -64t21 -69t40.5 -95.5l-104 -66l-99 158q-8 -18 -29 -44t-55 -49.5t-81.5 -40t-108.5 -16.5q-66 0 -120 22t-92.5 62.5t-59.5 97.5t-21 128zM156 1298l262 166l260 -166l-19 -98l-241 115l-242 -115zM213 279q0 -35 11 -65.5t31.5 -53.5t50 -36t67.5 -13q54 0 93 23 t65 61.5t38.5 88t12.5 103.5v170q-86 -21 -154.5 -39.5t-116 -47t-73 -73.5t-25.5 -118z" />
<glyph unicode="&#xe3;" horiz-adv-x="868" d="M45 285q0 78 22.5 134t62 96t91.5 67t111.5 45t123 31t124.5 26q0 67 -11 117.5t-39 84.5t-75.5 51t-120.5 17q-34 0 -71.5 -5.5t-69 -12.5t-51.5 -12l-21 -6v126l22 6t57.5 12.5t79.5 12.5t89 6q104 0 176 -29t116.5 -82t64 -127t19.5 -165v-336q0 -48 1 -80.5t7.5 -64 t21 -69t40.5 -95.5l-104 -66l-99 158q-8 -18 -29 -44t-55 -49.5t-81.5 -40t-108.5 -16.5q-66 0 -120 22t-92.5 62.5t-59.5 97.5t-21 128zM96 1327v96l10.5 -4.5t28.5 -10.5t41 -10.5t47 -4.5q43 0 79.5 7.5t71.5 17t71 17t79 7.5q36 0 68.5 -11.5t57 -25t38.5 -24.5l14 -11 v-94l-10.5 5t-27.5 10.5t-40.5 10.5t-48.5 5q-43 0 -79 -8t-70.5 -18t-70.5 -18t-79 -8q-36 0 -68.5 11t-57.5 24.5t-40 25.5zM213 279q0 -35 11 -65.5t31.5 -53.5t50 -36t67.5 -13q54 0 93 23t65 61.5t38.5 88t12.5 103.5v170q-86 -21 -154.5 -39.5t-116 -47t-73 -73.5 t-25.5 -118z" />
<glyph unicode="&#xe4;" horiz-adv-x="868" d="M45 285q0 78 22.5 134t62 96t91.5 67t111.5 45t123 31t124.5 26q0 67 -11 117.5t-39 84.5t-75.5 51t-120.5 17q-34 0 -71.5 -5.5t-69 -12.5t-51.5 -12l-21 -6v126l22 6t57.5 12.5t79.5 12.5t89 6q104 0 176 -29t116.5 -82t64 -127t19.5 -165v-336q0 -48 1 -80.5t7.5 -64 t21 -69t40.5 -95.5l-104 -66l-99 158q-8 -18 -29 -44t-55 -49.5t-81.5 -40t-108.5 -16.5q-66 0 -120 22t-92.5 62.5t-59.5 97.5t-21 128zM213 279q0 -35 11 -65.5t31.5 -53.5t50 -36t67.5 -13q54 0 93 23t65 61.5t38.5 88t12.5 103.5v170q-86 -21 -154.5 -39.5t-116 -47 t-73 -73.5t-25.5 -118zM217 1217v217h133v-217h-133zM485 1217v217h133v-217h-133z" />
<glyph unicode="&#xe5;" horiz-adv-x="868" d="M45 285q0 78 22.5 134t62 96t91.5 67t111.5 45t123 31t124.5 26q0 67 -11 117.5t-39 84.5t-75.5 51t-120.5 17q-34 0 -71.5 -5.5t-69 -12.5t-51.5 -12l-21 -6v126l22 6t57.5 12.5t79.5 12.5t89 6q104 0 176 -29t116.5 -82t64 -127t19.5 -165v-336q0 -48 1 -80.5t7.5 -64 t21 -69t40.5 -95.5l-104 -66l-99 158q-8 -18 -29 -44t-55 -49.5t-81.5 -40t-108.5 -16.5q-66 0 -120 22t-92.5 62.5t-59.5 97.5t-21 128zM213 279q0 -35 11 -65.5t31.5 -53.5t50 -36t67.5 -13q54 0 93 23t65 61.5t38.5 88t12.5 103.5v170q-86 -21 -154.5 -39.5t-116 -47 t-73 -73.5t-25.5 -118zM223 1325q0 42 15 73t41.5 50.5t62.5 29t78 9.5q41 0 77 -9.5t62.5 -29t41.5 -50.5t15 -73t-15 -72.5t-41.5 -50.5t-62.5 -29.5t-77 -9.5q-42 0 -78 9.5t-62.5 29.5t-41.5 50.5t-15 72.5zM336 1325q0 -42 19.5 -68t66.5 -26q46 0 64 25.5t18 68.5 t-18 67.5t-64 24.5q-47 0 -66.5 -24.5t-19.5 -67.5z" />
<glyph unicode="&#xe6;" horiz-adv-x="1368" d="M45 281q0 76 23.5 132.5t63.5 97t93.5 67t113 42t121.5 21.5t120 6q0 77 -8.5 134.5t-34.5 96t-73 57.5t-124 19q-33 0 -71.5 -5.5t-71 -12.5t-54.5 -12.5l-22 -5.5v126l22 6t57.5 12.5t79.5 12.5t89 6q121 0 196 -36t117 -101q48 65 113.5 101t156.5 36 q113 0 183.5 -41.5t110 -115.5t53.5 -175.5t14 -220.5h-565q0 -48 6 -98.5t20 -98t38 -89.5t60 -73.5t85.5 -50t115.5 -18.5q39 0 73.5 4t60 9.5t40.5 9.5l15 4v-125l-13 -4t-38.5 -9.5t-63.5 -9.5t-88 -4q-134 0 -235.5 53t-164.5 169q-4 -13 -13.5 -34.5t-25 -46 t-39.5 -50t-58.5 -45.5t-80 -33t-104.5 -13q-67 0 -121 22.5t-92.5 63t-59 97t-20.5 123.5zM213 291q0 -39 10.5 -72t31 -57t50 -37.5t68.5 -13.5q54 0 93 23t65 61.5t38.5 88t12.5 103.5v139q-80 0 -147.5 -11t-117 -37.5t-77 -72t-27.5 -114.5zM750 647h393q0 60 -6.5 116 t-26.5 99.5t-56.5 69.5t-97.5 26q-60 0 -99.5 -30t-63 -75.5t-33.5 -100.5t-10 -105z" />
<glyph unicode="&#xe7;" horiz-adv-x="684" d="M66 541q0 119 22.5 218t71.5 170.5t126.5 111.5t188.5 40q35 0 66 -6t53.5 -12.5t35.5 -12.5l13 -6v-122q-2 1 -17 8t-48.5 15.5t-75.5 8.5q-78 0 -129 -34.5t-81 -93t-42 -136.5t-12 -164q0 -68 11.5 -143t39 -137.5t73.5 -103t115 -40.5q37 0 66 10.5t49 23.5 t30.5 23.5l10.5 10.5l41 -102l-8.5 -10t-25.5 -23.5t-44 -27.5t-64 -23q0 -48 -2.5 -81.5t-10 -61.5t-20.5 -56t-34 -66l-53 -94l-113 66q23 49 36.5 82t21 63t10 62.5t2.5 81.5q-81 17 -138 68.5t-94 127t-54 169.5t-17 196z" />
<glyph unicode="&#xe8;" horiz-adv-x="852" d="M66 545q0 117 21.5 215.5t67 170t116.5 111t171 39.5q113 0 182.5 -43t108 -118.5t51.5 -178t13 -221.5h-564q0 -46 6 -95t20.5 -95.5t38.5 -88.5t60 -73t85.5 -49.5t115.5 -18.5q39 0 73.5 4t60 9.5t40.5 9.5l15 4v-125l-13 -4t-38.5 -9.5t-63.5 -9.5t-88 -4 q-123 0 -213 42t-149.5 117.5t-88 180.5t-28.5 230zM217 1290v170l428 -162l-31 -94zM236 647h393q0 55 -6 111t-25 100t-55 72t-97 28q-60 0 -100 -28.5t-64.5 -73t-35 -100t-10.5 -109.5z" />
<glyph unicode="&#xe9;" horiz-adv-x="852" d="M66 545q0 117 21.5 215.5t67 170t116.5 111t171 39.5q113 0 182.5 -43t108 -118.5t51.5 -178t13 -221.5h-564q0 -46 6 -95t20.5 -95.5t38.5 -88.5t60 -73t85.5 -49.5t115.5 -18.5q39 0 73.5 4t60 9.5t40.5 9.5l15 4v-125l-13 -4t-38.5 -9.5t-63.5 -9.5t-88 -4 q-123 0 -213 42t-149.5 117.5t-88 180.5t-28.5 230zM231 1298l428 162v-170l-399 -86zM236 647h393q0 55 -6 111t-25 100t-55 72t-97 28q-60 0 -100 -28.5t-64.5 -73t-35 -100t-10.5 -109.5z" />
<glyph unicode="&#xea;" horiz-adv-x="852" d="M66 545q0 117 21.5 215.5t67 170t116.5 111t171 39.5q113 0 182.5 -43t108 -118.5t51.5 -178t13 -221.5h-564q0 -46 6 -95t20.5 -95.5t38.5 -88.5t60 -73t85.5 -49.5t115.5 -18.5q39 0 73.5 4t60 9.5t40.5 9.5l15 4v-125l-13 -4t-38.5 -9.5t-63.5 -9.5t-88 -4 q-123 0 -213 42t-149.5 117.5t-88 180.5t-28.5 230zM176 1298l260 166l262 -166l-18 -98l-244 115l-239 -115zM236 647h393q0 55 -6 111t-25 100t-55 72t-97 28q-60 0 -100 -28.5t-64.5 -73t-35 -100t-10.5 -109.5z" />
<glyph unicode="&#xeb;" horiz-adv-x="852" d="M66 545q0 117 21.5 215.5t67 170t116.5 111t171 39.5q113 0 182.5 -43t108 -118.5t51.5 -178t13 -221.5h-564q0 -46 6 -95t20.5 -95.5t38.5 -88.5t60 -73t85.5 -49.5t115.5 -18.5q39 0 73.5 4t60 9.5t40.5 9.5l15 4v-125l-13 -4t-38.5 -9.5t-63.5 -9.5t-88 -4 q-123 0 -213 42t-149.5 117.5t-88 180.5t-28.5 230zM227 1217v217h133v-217h-133zM236 647h393q0 55 -6 111t-25 100t-55 72t-97 28q-60 0 -100 -28.5t-64.5 -73t-35 -100t-10.5 -109.5zM494 1217v217h135v-217h-135z" />
<glyph unicode="&#xec;" horiz-adv-x="430" d="M-27 1290v170l428 -162l-30 -94zM133 0v1057h164v-1057h-164z" />
<glyph unicode="&#xed;" horiz-adv-x="430" d="M27 1298l428 162v-170l-398 -86zM133 0v1057h164v-1057h-164z" />
<glyph unicode="&#xee;" horiz-adv-x="430" d="M-47 1298l260 166l260 -166l-16 -98l-244 115l-242 -115zM133 0v1057h164v-1057h-164z" />
<glyph unicode="&#xef;" horiz-adv-x="430" d="M14 1217v217h133v-217h-133zM133 0v1057h164v-1057h-164zM281 1217v217h135v-217h-135z" />
<glyph unicode="&#xf0;" horiz-adv-x="918" d="M78 516q0 118 18 217.5t62 172t118 113t185 40.5q41 0 72.5 -9.5t52.5 -21.5t32 -21.5l11 -9.5l3 2t5 0q-28 81 -69 151t-91 126l-172 -152l-69 93l157 139q-32 28 -67.5 48.5t-65.5 34t-50 19.5l-20 6l66 121l22 -6.5t58 -22t82 -41.5t94 -65l170 154l74 -84l-164 -146 q77 -92 125.5 -188t76.5 -201t38 -221t10 -248q0 -118 -19 -217.5t-64 -172t-120 -113t-186 -40.5t-183.5 40.5t-115 113t-59.5 172t-17 217.5zM240 518q0 -69 6.5 -143.5t29 -136.5t66 -102t117.5 -40q51 0 87 18t60.5 49.5t39 73.5t22 89t10 96.5t2.5 97.5q0 47 -2.5 96 t-10.5 95t-23 87t-40.5 71.5t-62.5 48.5t-88 18q-50 0 -85.5 -18.5t-59 -49.5t-37.5 -72.5t-20.5 -88t-8.5 -95.5t-2 -94z" />
<glyph unicode="&#xf1;" horiz-adv-x="926" d="M63 1022l105 63l96 -153q15 18 39.5 42.5t59 47.5t79 39t99.5 16q69 0 119 -22t82 -63.5t47.5 -99.5t15.5 -130v-762h-164v741q0 47 -5.5 85t-20 64.5t-40 41t-65.5 14.5q-41 0 -75.5 -15t-61.5 -36.5t-46 -44.5t-30 -39v-811h-164v715q0 46 -1 78t-7.5 63.5t-21 69 t-40.5 96.5zM145 1327v96l10.5 -4.5t28.5 -10.5t41 -10.5t47 -4.5q43 0 79.5 7.5t71.5 17t71 17t79 7.5q36 0 69 -11.5t58 -25t40 -24.5l14 -11v-94l-10.5 5t-28.5 10.5t-41 10.5t-47 5q-43 0 -79 -8t-71 -18t-71.5 -18t-79.5 -8q-36 0 -69 11t-58 24.5t-39 25.5z" />
<glyph unicode="&#xf2;" horiz-adv-x="895" d="M66 528q0 118 18 219.5t62 175.5t118 116t185 42q112 0 185.5 -42t116.5 -116t60.5 -175.5t17.5 -219.5q0 -119 -18.5 -220.5t-63.5 -176t-119.5 -116.5t-185.5 -42t-184 42t-115.5 116.5t-59.5 176t-17 220.5zM229 530q0 -46 2.5 -96.5t10 -98.5t22.5 -91.5t39 -76.5 t59 -52t84 -19q51 0 87.5 19t61 51.5t39 76t22.5 92t10 99t2 98.5q0 46 -2.5 95.5t-10 97t-22.5 90t-40.5 74.5t-62 50.5t-88.5 18.5q-50 0 -85 -19t-59 -51.5t-37.5 -75.5t-20.5 -90.5t-9 -97t-2 -94.5zM240 1290v170l428 -162l-29 -94z" />
<glyph unicode="&#xf3;" horiz-adv-x="895" d="M66 528q0 118 18 219.5t62 175.5t118 116t185 42q112 0 185.5 -42t116.5 -116t60.5 -175.5t17.5 -219.5q0 -119 -18.5 -220.5t-63.5 -176t-119.5 -116.5t-185.5 -42t-184 42t-115.5 116.5t-59.5 176t-17 220.5zM229 530q0 -46 2.5 -96.5t10 -98.5t22.5 -91.5t39 -76.5 t59 -52t84 -19q51 0 87.5 19t61 51.5t39 76t22.5 92t10 99t2 98.5q0 46 -2.5 95.5t-10 97t-22.5 90t-40.5 74.5t-62 50.5t-88.5 18.5q-50 0 -85 -19t-59 -51.5t-37.5 -75.5t-20.5 -90.5t-9 -97t-2 -94.5zM250 1298l428 162v-170l-399 -86z" />
<glyph unicode="&#xf4;" horiz-adv-x="895" d="M66 528q0 118 18 219.5t62 175.5t118 116t185 42q112 0 185.5 -42t116.5 -116t60.5 -175.5t17.5 -219.5q0 -119 -18.5 -220.5t-63.5 -176t-119.5 -116.5t-185.5 -42t-184 42t-115.5 116.5t-59.5 176t-17 220.5zM184 1298l262 166l261 -166l-19 -98l-242 115l-239 -115z M229 530q0 -46 2.5 -96.5t10 -98.5t22.5 -91.5t39 -76.5t59 -52t84 -19q51 0 87.5 19t61 51.5t39 76t22.5 92t10 99t2 98.5q0 46 -2.5 95.5t-10 97t-22.5 90t-40.5 74.5t-62 50.5t-88.5 18.5q-50 0 -85 -19t-59 -51.5t-37.5 -75.5t-20.5 -90.5t-9 -97t-2 -94.5z" />
<glyph unicode="&#xf5;" horiz-adv-x="895" d="M66 528q0 118 18 219.5t62 175.5t118 116t185 42q112 0 185.5 -42t116.5 -116t60.5 -175.5t17.5 -219.5q0 -119 -18.5 -220.5t-63.5 -176t-119.5 -116.5t-185.5 -42t-184 42t-115.5 116.5t-59.5 176t-17 220.5zM143 1327v96l10.5 -4.5t28.5 -10.5t41 -10.5t47 -4.5 q43 0 79 7.5t71 17t71 17t80 7.5q36 0 69 -11.5t58 -25t40 -24.5l14 -11v-94l-10.5 5t-28.5 10.5t-41 10.5t-47 5q-43 0 -79.5 -8t-71.5 -18t-71 -18t-79 -8q-36 0 -69 11t-58 24.5t-39 25.5zM229 530q0 -46 2.5 -96.5t10 -98.5t22.5 -91.5t39 -76.5t59 -52t84 -19 q51 0 87.5 19t61 51.5t39 76t22.5 92t10 99t2 98.5q0 46 -2.5 95.5t-10 97t-22.5 90t-40.5 74.5t-62 50.5t-88.5 18.5q-50 0 -85 -19t-59 -51.5t-37.5 -75.5t-20.5 -90.5t-9 -97t-2 -94.5z" />
<glyph unicode="&#xf6;" horiz-adv-x="895" d="M66 528q0 118 18 219.5t62 175.5t118 116t185 42q112 0 185.5 -42t116.5 -116t60.5 -175.5t17.5 -219.5q0 -119 -18.5 -220.5t-63.5 -176t-119.5 -116.5t-185.5 -42t-184 42t-115.5 116.5t-59.5 176t-17 220.5zM229 530q0 -46 2.5 -96.5t10 -98.5t22.5 -91.5t39 -76.5 t59 -52t84 -19q51 0 87.5 19t61 51.5t39 76t22.5 92t10 99t2 98.5q0 46 -2.5 95.5t-10 97t-22.5 90t-40.5 74.5t-62 50.5t-88.5 18.5q-50 0 -85 -19t-59 -51.5t-37.5 -75.5t-20.5 -90.5t-9 -97t-2 -94.5zM248 1217v217h133v-217h-133zM514 1217v217h133v-217h-133z" />
<glyph unicode="&#xf7;" d="M45 479l14 123h793l-12 -123h-795zM313 84l27 217h164l-29 -217h-162zM397 762l27 217h162l-27 -217h-162z" />
<glyph unicode="&#xf8;" horiz-adv-x="895" d="M41 -96l115 207q-51 75 -70.5 182.5t-19.5 234.5q0 118 18 219.5t62 175.5t118 116t185 42q66 0 117 -14.5t91 -42.5l82 152l105 -41l-107 -191q51 -74 71.5 -181t20.5 -235q0 -119 -18.5 -220.5t-63.5 -176t-119.5 -116.5t-185.5 -42q-65 0 -115.5 15t-90.5 41l-91 -162 zM229 530q0 -63 3.5 -122t19.5 -119l336 608q-12 12 -26 23t-31 19.5t-39 13.5t-50 5q-50 0 -85 -19t-59 -51.5t-37.5 -75.5t-20.5 -90.5t-9 -97t-2 -94.5zM307 164q12 -13 24.5 -25.5t28.5 -22t37 -15t49 -5.5q51 0 87.5 19t61 51.5t39 76t22.5 92t10 99t2 98.5 q0 63 -4.5 123.5t-18.5 120.5z" />
<glyph unicode="&#xf9;" horiz-adv-x="915" d="M111 295v762h163v-742q0 -47 5.5 -85t20.5 -65t40.5 -41.5t65.5 -14.5t74 15t61 36t46.5 44t30.5 38v815h164v-1057h-53l-80 127q-13 -18 -37 -43.5t-58 -49t-79 -40.5t-100 -17q-70 0 -120 22.5t-82 64t-47 100.5t-15 131zM240 1290v170l428 -162l-29 -94z" />
<glyph unicode="&#xfa;" horiz-adv-x="915" d="M111 295v762h163v-742q0 -47 5.5 -85t20.5 -65t40.5 -41.5t65.5 -14.5t74 15t61 36t46.5 44t30.5 38v815h164v-1057h-53l-80 127q-13 -18 -37 -43.5t-58 -49t-79 -40.5t-100 -17q-70 0 -120 22.5t-82 64t-47 100.5t-15 131zM250 1298l428 162v-170l-399 -86z" />
<glyph unicode="&#xfb;" horiz-adv-x="915" d="M111 295v762h163v-742q0 -47 5.5 -85t20.5 -65t40.5 -41.5t65.5 -14.5t74 15t61 36t46.5 44t30.5 38v815h164v-1057h-53l-80 127q-13 -18 -37 -43.5t-58 -49t-79 -40.5t-100 -17q-70 0 -120 22.5t-82 64t-47 100.5t-15 131zM184 1298l262 166l261 -166l-19 -98l-242 115 l-239 -115z" />
<glyph unicode="&#xfc;" horiz-adv-x="915" d="M111 295v762h163v-742q0 -47 5.5 -85t20.5 -65t40.5 -41.5t65.5 -14.5t74 15t61 36t46.5 44t30.5 38v815h164v-1057h-53l-80 127q-13 -18 -37 -43.5t-58 -49t-79 -40.5t-100 -17q-70 0 -120 22.5t-82 64t-47 100.5t-15 131zM248 1217v217h133v-217h-133zM514 1217v217 h133v-217h-133z" />
<glyph unicode="&#xfd;" horiz-adv-x="762" d="M25 1057h182l174 -615q5 -21 9.5 -45.5t8 -46.5t5.5 -36l2 -15h6l1.5 14.5t4.5 36.5t7 46.5t9 45.5l160 615h151l-333 -1229q-13 -48 -24.5 -81.5t-27 -61t-38.5 -54t-60 -59.5l-65 -59l-80 141q39 27 64 51t42.5 53.5t30 68t27.5 95.5l38 154zM182 1298l430 162v-170 l-399 -86z" />
<glyph unicode="&#xfe;" horiz-adv-x="940" d="M76 1405l102 63l58 -88q26 -40 40.5 -70t21 -62.5t8 -74.5t1.5 -106v-78q14 15 33.5 31.5t45 30t58 22t72.5 8.5q85 0 152 -35.5t113.5 -103.5t71 -166.5t24.5 -224.5q0 -135 -27 -242t-79 -181.5t-127.5 -113.5t-172.5 -39q-37 0 -67 5t-51.5 10.5t-33.5 10.5l-12 5v-96 q0 -60 1.5 -100t8.5 -74.5t21.5 -71t40.5 -90.5l-105 -63l-57 88q-26 40 -40.5 70t-21.5 62.5t-8.5 74.5t-1.5 106v1157q0 59 -1.5 99t-8 74.5t-20.5 71.5t-39 91zM307 129l10 -4.5t27.5 -10t42 -10t53.5 -4.5q78 0 129.5 36t82.5 96.5t44 140.5t13 168q0 94 -13 170 t-38.5 130t-63.5 83.5t-88 29.5q-45 0 -82 -17.5t-63 -56t-40 -98.5t-14 -145v-508z" />
<glyph unicode="&#xff;" horiz-adv-x="762" d="M25 1057h182l174 -615q5 -21 9.5 -45.5t8 -46.5t5.5 -36l2 -15h6l1.5 14.5t4.5 36.5t7 46.5t9 45.5l160 615h151l-333 -1229q-13 -48 -24.5 -81.5t-27 -61t-38.5 -54t-60 -59.5l-65 -59l-80 141q39 27 64 51t42.5 53.5t30 68t27.5 95.5l38 154zM203 1217v217h133v-217 h-133zM469 1217v217h133v-217h-133z" />
<glyph unicode="&#x152;" horiz-adv-x="1415" d="M80 721q0 160 21.5 291t79 225t158.5 145.5t259 51.5h764v-136h-471q35 -40 61 -96t43.5 -120.5t26 -134t8.5 -136.5h316v-135h-314q0 -66 -6 -140t-22 -146t-43.5 -138t-69.5 -117h471v-135h-758q-163 0 -265 52t-159.5 146.5t-78.5 227.5t-21 295zM264 725 q0 -69 3.5 -139.5t14 -135.5t30.5 -122.5t52.5 -99.5t79.5 -66.5t113 -24.5t113.5 24.5t80 67t52 99.5t30 122.5t14 136t3.5 140.5q0 64 -3.5 131.5t-14 130.5t-30.5 119t-52.5 98t-80 66t-112.5 24q-66 0 -113 -24t-79.5 -66t-52.5 -98t-30.5 -119.5t-14 -131t-3.5 -132.5z " />
<glyph unicode="&#x153;" horiz-adv-x="1448" d="M66 528q0 118 18 219.5t62 175.5t118 116t185 42q112 0 185 -42.5t118 -116.5q46 75 113 117t173 42q113 0 182.5 -43t108 -118.5t51.5 -178t13 -221.5h-564q0 -46 6 -95t20.5 -95.5t38.5 -88.5t60 -73t85.5 -49.5t115.5 -18.5q39 0 73.5 4t60 9.5t40 9.5l14.5 4v-125 l-13 -4t-38.5 -9.5t-63 -9.5t-87.5 -4q-134 0 -227 49.5t-152 137.5q-45 -88 -122 -138.5t-198 -50.5q-111 0 -184 42t-115.5 116.5t-59.5 176t-17 220.5zM229 530q0 -46 2.5 -96.5t10 -98.5t22.5 -91.5t39 -76.5t59 -52t84 -19q51 0 87.5 19t61 51.5t39 76t22.5 92t10 99 t2 98.5q0 46 -2.5 95.5t-10 97t-22.5 90t-40.5 74.5t-62 50.5t-88.5 18.5q-50 0 -85 -19t-59 -51.5t-37.5 -75.5t-20.5 -90.5t-9 -97t-2 -94.5zM831 647h392q0 55 -5.5 111t-24.5 100t-54.5 72t-96.5 28q-60 0 -100 -28.5t-65 -73t-35.5 -100t-10.5 -109.5z" />
<glyph unicode="&#x178;" horiz-adv-x="985" d="M23 1280h204l219 -469q9 -19 20.5 -44.5t21 -48t16.5 -38.5l6 -16h6l6 15.5t15.5 38t20.5 48t20 45.5l217 469h168l-379 -764v-516h-183v518zM315 1444v217h134v-217h-134zM582 1444v217h135v-217h-135z" />
<glyph unicode="&#x2c6;" horiz-adv-x="645" d="M61 1501l261 166l262 -166l-21 -96l-241 113l-240 -113z" />
<glyph unicode="&#x2dc;" horiz-adv-x="645" d="M18 1554v97l10.5 -5t28.5 -10.5t41.5 -10.5t48.5 -5q43 0 79 7.5t70.5 17t70.5 17t79 7.5q36 0 69 -11.5t58 -25.5t39 -26l15 -11v-94l-10.5 5t-28.5 11.5t-41 11.5t-47 5q-43 0 -79 -8t-71 -17.5t-71.5 -17.5t-79.5 -8q-36 0 -69 11t-58 24.5t-40 24.5z" />
<glyph unicode="&#x2000;" horiz-adv-x="837" />
<glyph unicode="&#x2001;" horiz-adv-x="1675" />
<glyph unicode="&#x2002;" horiz-adv-x="837" />
<glyph unicode="&#x2003;" horiz-adv-x="1675" />
<glyph unicode="&#x2004;" horiz-adv-x="558" />
<glyph unicode="&#x2005;" horiz-adv-x="418" />
<glyph unicode="&#x2006;" horiz-adv-x="279" />
<glyph unicode="&#x2007;" horiz-adv-x="279" />
<glyph unicode="&#x2008;" horiz-adv-x="209" />
<glyph unicode="&#x2009;" horiz-adv-x="335" />
<glyph unicode="&#x200a;" horiz-adv-x="93" />
<glyph unicode="&#x2010;" horiz-adv-x="637" d="M68 475l12 123h489l-14 -123h-487z" />
<glyph unicode="&#x2011;" horiz-adv-x="637" d="M68 475l12 123h489l-14 -123h-487z" />
<glyph unicode="&#x2012;" horiz-adv-x="637" d="M68 475l12 123h489l-14 -123h-487z" />
<glyph unicode="&#x2013;" horiz-adv-x="973" d="M76 475l14 125h807l-16 -125h-805z" />
<glyph unicode="&#x2014;" horiz-adv-x="1268" d="M76 475l14 125h1104l-16 -125h-1102z" />
<glyph unicode="&#x2018;" horiz-adv-x="379" d="M66 956l10 82q8 69 16.5 112.5t21.5 78t33 67t52 78.5l61 94l107 -63q-37 -62 -59 -103t-34.5 -77.5t-20 -78.5t-15.5 -106l-11 -84h-161z" />
<glyph unicode="&#x2019;" horiz-adv-x="383" d="M12 985q25 42 43 73t31 57t21 50t14 51t10.5 59t9.5 75l11 84h165l-10 -80q-8 -69 -17 -113.5t-22.5 -79t-34 -67t-51.5 -78.5l-63 -94z" />
<glyph unicode="&#x201a;" horiz-adv-x="383" d="M12 -231q25 41 43 72t31 57.5t21 50t14 50.5t10.5 59t9.5 75l11 84h165l-10 -82q-8 -68 -17 -112t-22.5 -79t-34 -68t-51.5 -79l-63 -92z" />
<glyph unicode="&#x201c;" horiz-adv-x="702" d="M66 956l10 82q8 69 16.5 112.5t21.5 78t33 67t52 78.5l61 94l107 -63q-37 -62 -59 -103t-34.5 -77.5t-20 -78.5t-15.5 -106l-11 -84h-161zM389 956l10 82q9 69 17.5 112.5t21.5 78t32.5 67t51.5 78.5l64 94l104 -63q-37 -62 -58.5 -103t-34 -77.5t-20 -78.5t-16.5 -106 l-8 -84h-164z" />
<glyph unicode="&#x201d;" horiz-adv-x="711" d="M12 985q25 42 43 73t31 57t21 50t14 51t10.5 59t9.5 75l11 84h165l-10 -80q-8 -69 -17 -113.5t-22.5 -79t-34 -67t-51.5 -78.5l-63 -94zM342 985q24 42 42 73t30 57t20.5 50t14.5 51t10.5 59t9.5 75l10 84h166l-10 -80q-9 -69 -17.5 -113.5t-22 -79t-34 -67t-51.5 -78.5 l-64 -94z" />
<glyph unicode="&#x201e;" horiz-adv-x="711" d="M12 -231q25 41 43 72t31 57.5t21 50t14 50.5t10.5 59t9.5 75l11 84h165l-10 -82q-8 -68 -17 -112t-22.5 -79t-34 -68t-51.5 -79l-63 -92zM342 -231q24 41 42 72t30 57.5t20.5 50t14.5 50.5t10.5 59t9.5 75l10 84h166l-10 -82q-9 -68 -17.5 -112t-22 -79t-34 -68 t-51.5 -79l-64 -92z" />
<glyph unicode="&#x2022;" horiz-adv-x="580" d="M63 811q0 70 13 120t40.5 82.5t70.5 48t104 15.5t104 -15.5t70 -48t39 -82.5t12 -120q0 -132 -51 -200t-174 -68q-62 0 -105 15.5t-70.5 48t-40 83t-12.5 121.5z" />
<glyph unicode="&#x2026;" horiz-adv-x="1069" d="M92 0l29 217h162l-27 -217h-164zM442 0l27 217h162l-29 -217h-160zM788 0l27 217h162l-29 -217h-160z" />
<glyph unicode="&#x202f;" horiz-adv-x="335" />
<glyph unicode="&#x2039;" horiz-adv-x="541" d="M59 686l289 381l127 -20l-242 -361l154 -358l-121 -23z" />
<glyph unicode="&#x203a;" horiz-adv-x="541" d="M59 326l242 360l-154 358l121 23l207 -381l-289 -381z" />
<glyph unicode="&#x205f;" horiz-adv-x="418" />
<glyph unicode="&#x20ac;" d="M57 389l13 125h698l-12 -125h-398q1 -54 12.5 -106t35.5 -92t63 -64.5t96 -24.5q37 0 68 10.5t53 23.5t34.5 23.5l12.5 10.5l29 -102l-15 -14.5t-45 -32t-76 -32t-108 -14.5q-85 0 -146.5 32.5t-101.5 88.5t-60 131.5t-22 161.5h-131zM82 623l10 125h148 q26 76 64.5 137.5t91.5 105t121 67t153 23.5q35 0 65.5 -6t53 -12.5t35 -12.5l12.5 -6l-17 -122q-2 1 -16.5 8t-47.5 15.5t-75 8.5q-51 0 -91 -15.5t-72 -42.5t-55.5 -65t-41.5 -83h373l-13 -125h-698z" />
<glyph unicode="&#x2122;" horiz-adv-x="1223" d="M66 1004q0 120 40.5 206t113 141.5t172.5 82t220 26.5q119 0 219 -26.5t172.5 -82t113 -141.5t40.5 -206q0 -119 -41 -205.5t-114 -142.5t-174 -82.5t-220 -26.5t-218.5 26.5t-171.5 82.5t-112 142.5t-40 205.5zM193 1006q0 -98 28 -169.5t81 -118t130.5 -69t175.5 -22.5 t177 22.5t134.5 69t85 118t29.5 169.5t-29.5 168.5t-84.5 115.5t-133.5 66.5t-176.5 21.5t-175.5 -21.5t-131 -67t-82 -116t-28.5 -167.5zM285 1159l10 82h221l-10 -82l-57 2l-48 -389h-106l47 389zM489 772l58 469h137l10 -70q3 -21 5.5 -46t4 -46l2.5 -35l1 -14h6l4 14 l10 35t13.5 45t15.5 45l26 72h146l-58 -469h-104l25 182q2 21 6 45t8 44t7 33l3 14h-6l-5.5 -14t-14 -34.5t-18.5 -44.5t-19 -43l-27 -59h-88l-12 61q-4 22 -7.5 46t-6 44t-3.5 33l-2 13h-8v-14q0 -13 -0.5 -33t-2 -44t-3.5 -45l-23 -184h-80z" />
<glyph unicode="&#x25fc;" horiz-adv-x="1085" d="M0 0v1085h1085v-1085h-1085z" />
<glyph unicode="&#xfb01;" horiz-adv-x="926" d="M35 932v125h137v227q0 67 13.5 115.5t35.5 82t50 54.5t58 32t58 15t51 4t37 -2l14 -2l52 -123q-13 0 -27.5 1t-30.5 1q-25 0 -51 -6t-47.5 -27t-35 -60t-13.5 -105v-207h457v-1057h-162v932h-295v-1041q0 -56 -1.5 -92.5t-8.5 -66t-22 -58.5t-42 -69l-55 -90l-105 63 q26 59 40.5 97.5t21 70t7.5 64.5t1 81v1041h-137zM631 1217v217h162v-217h-162z" />
<glyph unicode="&#xfb02;" horiz-adv-x="948" d="M35 932v125h137v188q0 94 18 159.5t58.5 106t105.5 58.5t160 18q51 0 103.5 -5t95.5 -10.5t70.5 -10.5l27.5 -5v-1163v-105t6 -77t20.5 -76.5t43.5 -101.5l-105 -66l-55 90q-30 47 -45.5 81t-21.5 69t-6.5 78t-0.5 108v1063l-35 5t-94 5q-57 0 -93 -13.5t-55.5 -41.5 t-26.5 -70t-7 -100v-184h156v-125h-156v-991v-82q0 -35 -1 -62t-5 -48t-12.5 -42.5t-22 -45.5t-33.5 -56l-55 -90l-105 63q19 41 31.5 72.5t20.5 57.5t11.5 50t5 50.5t1.5 58.5v74v991h-137z" />
</font>
</defs>
</svg>
